{"glyphs":{"0":{"ha":407,"x_min":0,"x_max":353,"o":"m 176 860 q 353 480 325 860 l 353 426 q 220 8 349 90 q 182 0 199 0 l 165 0 q 22 209 73 0 q 0 431 0 318 q 122 844 7 761 q 176 860 150 860 m 49 453 l 49 401 q 136 62 49 174 q 176 46 160 46 l 179 46 q 301 328 268 46 q 307 429 307 409 q 214 798 307 692 q 176 814 203 808 q 52 526 85 814 q 49 453 49 494 z "},"1":{"ha":250,"x_min":0,"x_max":208,"o":"m 136 857 l 136 45 l 208 45 l 208 0 l 18 0 l 18 45 l 90 45 l 90 751 l 29 696 l 0 725 l 136 857 z "},"2":{"ha":543,"x_min":0,"x_max":477,"o":"m 260 860 q 472 689 430 860 q 477 627 477 643 l 477 602 q 100 46 477 498 l 450 46 l 450 0 l 0 0 l 0 3 q 431 608 424 497 q 252 814 431 814 q 122 760 164 798 q 65 632 71 707 l 23 632 q 214 854 24 803 q 260 860 241 860 z "},"3":{"ha":547,"x_min":59,"x_max":494,"o":"m 68 860 l 326 860 q 472 768 433 860 q 486 700 486 743 l 486 692 q 393 491 486 551 q 494 279 494 410 l 494 252 q 414 54 494 149 q 270 0 346 0 l 237 0 q 95 78 134 0 q 59 185 59 149 q 60 193 59 189 l 104 193 q 243 46 133 46 l 254 46 q 445 217 421 46 q 448 271 448 257 q 331 467 448 420 q 263 472 301 472 l 138 472 l 138 518 l 326 518 q 439 697 422 518 q 347 811 439 794 q 296 814 321 814 l 68 814 l 68 860 z "},"4":{"ha":583,"x_min":0,"x_max":556,"o":"m 480 865 l 480 431 l 556 431 l 556 385 l 480 385 l 480 0 l 434 0 l 434 385 l 0 385 l 480 865 m 109 431 l 434 431 l 434 757 l 109 431 z "},"5":{"ha":502,"x_min":0,"x_max":456,"o":"m 5 860 l 426 860 l 426 814 l 49 814 l 49 562 q 168 572 121 570 q 442 420 379 572 q 456 328 456 367 q 198 27 456 109 q 22 0 94 0 l 8 0 q 3 5 3 0 l 3 41 q 8 46 3 46 q 326 144 193 46 q 407 315 407 215 l 407 339 q 274 510 407 472 q 171 524 231 524 q 3 502 88 524 l 0 507 l 0 854 q 5 860 1 860 z "},"6":{"ha":494,"x_min":0,"x_max":459,"o":"m 352 833 l 140 442 l 143 442 q 236 459 186 459 q 439 324 364 459 q 459 236 459 277 l 459 214 q 363 41 459 119 q 239 0 304 0 l 214 0 q 19 135 96 0 q 0 225 0 183 l 0 231 q 71 418 0 303 l 313 857 l 352 833 m 47 228 q 190 50 47 102 q 231 47 217 47 q 407 184 357 47 q 412 231 412 212 q 272 407 412 357 l 231 412 q 55 280 107 412 q 47 228 50 261 z "},"7":{"ha":573,"x_min":0,"x_max":555,"o":"m 0 862 l 555 862 l 127 0 l 85 22 l 481 815 l 0 815 l 0 862 z "},"8":{"ha":509,"x_min":0,"x_max":480,"o":"m 241 857 q 442 713 374 857 q 453 646 453 663 q 342 461 453 528 l 342 458 q 458 345 419 425 q 480 263 480 299 l 480 217 q 366 33 480 116 q 252 0 306 0 l 231 0 q 14 157 88 0 q 0 236 0 201 l 0 244 q 138 458 0 382 l 141 458 l 141 461 q 30 646 30 524 q 184 849 30 789 q 241 857 212 854 m 79 659 l 79 635 q 201 486 79 533 l 241 480 q 399 600 351 480 q 404 637 404 620 l 404 651 q 285 803 404 758 q 247 808 264 808 l 236 808 q 81 681 123 808 q 79 659 79 671 m 46 239 q 182 54 46 115 q 247 46 216 46 q 423 174 363 46 q 434 236 434 201 l 434 244 q 304 423 434 368 q 241 434 275 434 q 65 320 124 434 q 46 239 51 296 z "},"9":{"ha":494,"x_min":0,"x_max":459,"o":"m 107 24 l 319 415 l 316 415 q 222 398 272 398 q 19 533 94 398 q 0 621 0 580 l 0 643 q 96 816 0 739 q 220 857 155 857 l 245 857 q 439 722 363 857 q 459 632 459 674 l 459 627 q 387 439 459 554 l 146 0 l 107 24 m 412 629 q 269 808 412 755 q 228 810 242 810 q 52 673 102 810 q 47 627 47 646 q 186 450 47 500 l 228 445 q 404 577 351 445 q 412 629 410 596 z "},"\u0000":{"ha":0,"x_min":0,"x_max":0,"o":""}," ":{"ha":345,"x_min":0,"x_max":0,"o":""},"!":{"ha":203,"x_min":68,"x_max":142,"o":"m 130 860 l 130 203 l 81 203 l 81 860 l 130 860 m 106 0 q 79 11 90 0 q 68 37 68 22 q 79 63 68 52 q 106 74 90 74 q 132 63 121 74 q 142 37 142 52 q 132 11 142 22 q 106 0 121 0 z "},"\"":{"ha":339,"x_min":81,"x_max":253,"o":"m 130 860 l 130 686 l 81 686 l 81 860 l 130 860 m 253 860 l 253 686 l 204 686 l 204 860 l 253 860 z "},"#":{"ha":566,"x_min":41,"x_max":543,"o":"m 218 498 l 373 498 l 387 678 l 436 678 l 422 498 l 543 498 l 543 449 l 418 449 l 406 294 l 543 294 l 543 245 l 402 245 l 389 67 l 340 67 l 353 245 l 199 245 l 185 67 l 136 67 l 150 245 l 41 245 l 41 294 l 154 294 l 166 449 l 41 449 l 41 498 l 170 498 l 184 678 l 233 678 l 218 498 m 370 449 l 215 449 l 203 294 l 357 294 l 370 449 z "},"$":{"ha":688,"x_min":0,"x_max":541,"o":"m 517 743 q 530 718 524 730 q 536 663 536 686 q 534 640 536 650 l 493 640 q 463 743 493 702 q 320 812 420 798 l 320 466 q 359 463 338 465 q 482 402 437 445 q 541 243 541 339 q 380 20 541 87 q 320 3 352 8 l 320 -71 l 271 -71 l 271 0 l 269 0 q 252 1 260 0 l 252 -68 l 203 -68 l 203 7 q 36 117 91 29 q 25 137 30 127 q 14 162 19 149 q 0 245 0 203 l 40 245 q 39 237 39 242 q 76 137 39 210 q 77 135 77 136 q 203 53 111 69 l 203 433 q 142 452 161 441 q 0 640 0 510 l 0 645 q 203 861 16 840 l 203 953 l 252 953 l 252 863 q 271 862 262 863 l 271 949 l 320 949 l 320 860 q 517 743 456 857 m 203 807 q 63 723 94 789 q 45 637 45 679 q 203 484 45 525 l 203 807 m 320 51 q 488 187 439 71 q 493 232 493 219 l 493 260 q 356 413 493 379 q 320 416 337 414 l 320 51 m 252 473 q 271 470 260 471 l 271 812 q 252 812 262 812 l 252 473 m 252 48 q 271 47 262 47 l 271 422 q 252 425 262 423 l 252 48 z "},"%":{"ha":1085,"x_min":34,"x_max":1046,"o":"m 236 0 l 805 858 l 858 858 l 290 0 l 236 0 m 245 437 q 96 499 158 437 q 34 649 34 562 q 96 799 34 736 q 245 861 158 861 q 395 799 333 861 q 457 649 457 736 q 395 499 457 562 q 245 437 333 437 m 245 474 q 369 525 318 474 q 420 649 420 576 q 369 773 420 722 q 245 824 318 824 q 122 773 173 824 q 71 649 71 722 q 122 525 71 576 q 245 474 173 474 m 835 0 q 685 62 747 0 q 623 212 623 124 q 685 361 623 299 q 835 423 747 423 q 984 361 922 423 q 1046 212 1046 299 q 984 62 1046 124 q 835 0 922 0 m 835 37 q 959 88 907 37 q 1010 212 1010 139 q 959 335 1010 284 q 835 387 907 387 q 711 335 762 387 q 660 212 660 284 q 711 88 660 139 q 835 37 762 37 z "},"&":{"ha":696,"x_min":0,"x_max":709,"o":"m 661 -14 q 515 118 526 109 q 258 -2 410 -2 l 256 -2 q 35 97 103 -2 q 0 214 0 148 q 97 421 0 328 q 181 476 149 465 l 181 477 q 88 720 88 622 q 178 848 88 814 q 266 860 213 860 q 286 861 276 861 q 441 791 397 861 q 460 725 460 758 q 361 536 460 625 q 235 461 298 483 q 368 304 266 412 q 512 170 404 269 q 570 271 543 213 q 612 401 594 328 q 625 469 623 452 l 661 469 q 633 342 659 443 q 582 216 612 276 q 538 145 561 178 l 538 144 q 709 -13 701 -5 l 708 -14 l 661 -14 m 129 723 q 218 505 129 640 q 313 553 268 523 q 414 692 389 608 q 419 724 419 709 l 419 731 q 348 821 419 793 q 297 829 326 829 q 264 826 281 829 q 129 723 129 826 m 41 214 q 104 83 41 134 q 255 39 161 39 l 258 39 q 481 145 391 39 q 449 174 479 145 l 351 265 q 210 429 245 376 q 202 439 209 429 q 146 409 180 431 q 94 359 134 401 q 41 214 41 287 z "},"'":{"ha":168,"x_min":68,"x_max":117,"o":"m 117 860 l 117 686 l 68 686 l 68 860 l 117 860 z "},"(":{"ha":271,"x_min":0,"x_max":238,"o":"m 219 862 q 238 821 238 832 q 47 432 47 688 q 230 47 47 177 q 238 44 235 44 l 238 41 q 216 0 224 0 q 0 427 0 141 l 0 438 q 216 862 0 715 l 219 862 z "},")":{"ha":271,"x_min":0,"x_max":238,"o":"m 22 862 q 238 438 238 715 l 238 427 q 22 0 238 141 q 0 41 14 0 l 0 44 q 8 47 3 44 q 191 432 191 177 q 0 821 191 688 q 19 862 0 832 l 22 862 z "},"*":{"ha":519,"x_min":24,"x_max":476,"o":"m 275 697 l 385 817 l 421 784 l 306 659 l 476 659 l 476 610 l 306 610 l 421 484 l 385 451 l 275 571 l 275 408 l 226 408 l 226 571 l 115 451 l 79 484 l 195 610 l 24 610 l 24 659 l 195 659 l 79 784 l 115 817 l 226 697 l 226 860 l 275 860 l 275 697 z "},"+":{"ha":570,"x_min":41,"x_max":543,"o":"m 315 649 l 315 405 l 543 405 l 543 359 l 315 359 l 315 115 l 269 115 l 269 359 l 41 359 l 41 405 l 269 405 l 269 649 l 315 649 z "},",":{"ha":136,"x_min":33,"x_max":109,"o":"m 72 0 q 45 11 56 0 q 35 37 35 22 q 45 63 35 52 q 72 74 56 74 q 98 63 87 74 q 109 37 109 52 q 107 15 109 29 q 100 -20 106 1 q 33 -79 86 -68 l 33 -68 q 72 0 68 -57 z "},"-":{"ha":578,"x_min":41,"x_max":543,"o":"m 41 407 l 543 407 l 543 361 l 41 361 l 41 407 z "},".":{"ha":136,"x_min":35,"x_max":109,"o":"m 72 0 q 45 11 56 0 q 35 37 35 22 q 45 63 35 52 q 72 74 56 74 q 98 63 87 74 q 109 37 109 52 q 98 11 109 22 q 72 0 87 0 z "},"/":{"ha":475,"x_min":0,"x_max":475,"o":"m 431 860 l 475 860 l 49 0 l 0 0 l 431 860 z "},":":{"ha":136,"x_min":35,"x_max":109,"o":"m 72 0 q 45 11 56 0 q 35 37 35 22 q 45 63 35 52 q 72 74 56 74 q 98 63 87 74 q 109 37 109 52 q 98 11 109 22 q 72 0 87 0 m 72 536 q 45 547 56 536 q 35 574 35 558 q 45 600 35 589 q 72 610 56 610 q 98 600 87 610 q 109 574 109 589 q 98 547 109 558 q 72 536 87 536 z "},";":{"ha":136,"x_min":33,"x_max":109,"o":"m 72 536 q 45 547 56 536 q 35 574 35 558 q 45 600 35 589 q 72 610 56 610 q 98 600 87 610 q 109 574 109 589 q 98 547 109 558 q 72 536 87 536 m 72 0 q 45 11 56 0 q 35 37 35 22 q 45 63 35 52 q 72 74 56 74 q 98 63 87 74 q 109 37 109 52 q 107 15 109 29 q 100 -20 106 1 q 33 -79 86 -68 l 33 -68 q 72 0 68 -57 z "},"<":{"ha":475,"x_min":0,"x_max":445,"o":"m 445 559 l 103 387 l 445 212 l 445 168 l 0 385 l 445 610 l 445 559 z "},"=":{"ha":573,"x_min":41,"x_max":543,"o":"m 41 498 l 543 498 l 543 449 l 41 449 l 41 498 m 41 294 l 543 294 l 543 245 l 41 245 l 41 294 z "},">":{"ha":475,"x_min":29,"x_max":474,"o":"m 29 610 l 474 385 l 29 168 l 29 212 l 371 387 l 29 559 l 29 610 z "},"?":{"ha":610,"x_min":26,"x_max":592,"o":"m 223 427 q 261 427 243 427 q 471 477 393 427 q 540 610 540 522 q 534 665 540 635 q 308 806 508 795 l 288 806 q 82 614 106 806 l 26 614 q 303 859 53 859 l 307 859 q 422 840 370 859 q 592 616 592 772 q 523 452 592 520 q 275 385 454 385 l 272 385 l 272 170 l 223 170 l 223 427 m 254 0 q 227 11 238 0 q 216 37 216 22 q 227 63 216 52 q 254 74 238 74 q 279 63 269 74 q 290 37 290 52 q 279 11 290 22 q 254 0 269 0 z "},"@":{"ha":882,"x_min":34,"x_max":850,"o":"m 665 66 q 456 0 566 0 l 429 0 q 134 144 268 0 q 106 183 129 153 q 34 412 34 300 l 34 441 q 140 720 34 589 q 443 859 269 859 q 779 674 644 859 q 850 429 850 557 l 850 409 q 744 242 850 281 q 715 239 726 239 l 701 239 q 578 326 624 239 l 578 330 q 432 237 516 237 l 413 237 q 273 323 334 237 q 245 425 245 374 l 245 427 q 361 610 245 553 q 413 621 393 621 l 432 621 q 568 545 507 621 l 568 610 l 602 610 l 602 410 q 644 299 602 328 q 710 276 672 276 q 807 345 772 276 q 816 414 816 378 q 625 770 816 645 q 440 821 538 821 q 205 732 314 821 q 68 425 68 606 q 205 126 68 252 q 444 37 311 37 q 665 115 559 37 l 665 66 m 279 429 q 363 288 279 339 q 425 273 389 276 q 545 345 495 273 q 568 431 568 382 q 485 568 568 517 q 425 584 460 581 q 294 498 345 584 q 279 429 279 454 z "},"A":{"ha":678,"x_min":-377,"x_max":852,"o":"m 333 860 l 333 831 q 294 789 333 808 l 294 792 q 333 860 294 800 m 341 831 l 343 831 l 343 812 l 328 792 q 338 789 332 789 l 338 787 q 309 763 326 787 q 299 779 309 779 l 296 779 l 296 781 q 341 831 341 804 m 349 810 l 351 810 l 354 797 l 341 797 q 349 810 349 806 m 351 781 l 362 781 q 364 774 362 779 q 328 763 357 774 q 325 774 328 769 q 351 781 342 781 m 286 776 l 291 776 q 281 736 281 755 q 288 700 283 709 q 275 687 275 700 q 265 679 275 684 l 265 695 q 267 705 265 701 q 265 716 265 710 l 275 708 q 281 713 281 708 l 281 716 q 267 726 275 726 q 286 776 286 770 m 296 771 l 302 771 l 302 742 l 304 736 q 296 721 296 734 l 296 718 q 304 713 296 713 q 296 700 301 700 q 288 739 288 723 q 296 771 288 747 m 367 766 l 370 760 q 333 747 362 760 l 333 755 q 367 766 357 766 m 317 760 l 320 760 l 320 755 l 317 755 l 317 760 m 362 750 l 364 750 q 349 718 357 718 l 343 718 l 343 721 l 357 736 q 343 742 357 742 l 343 745 l 362 750 m 372 747 l 375 747 q 385 721 375 721 l 385 718 q 357 679 361 679 l 357 682 q 375 732 375 711 q 370 736 370 732 q 372 747 372 741 m 404 734 l 417 734 l 417 732 l 404 732 l 404 734 m 307 732 l 309 732 l 309 726 l 307 726 l 307 732 m 388 732 l 393 732 l 393 729 l 388 729 l 388 732 m 404 721 q 448 705 425 721 l 451 705 l 451 708 q 448 716 448 713 q 456 708 452 716 l 456 703 l 451 703 l 451 695 l 458 700 q 467 692 458 692 q 475 695 472 695 q 496 663 475 693 q 493 661 493 663 q 503 659 497 659 q 500 656 503 656 q 511 640 506 640 l 511 642 q 522 635 522 639 l 522 632 q 516 624 516 632 q 500 640 515 624 l 498 635 q 500 632 500 635 l 493 632 l 493 629 l 496 616 q 493 614 493 616 q 477 632 487 614 q 479 635 479 632 q 464 648 475 635 l 458 645 l 458 648 q 469 663 466 663 q 475 659 470 659 l 479 659 l 479 661 q 469 674 479 663 l 472 687 l 467 690 q 461 669 461 676 q 464 666 464 669 q 458 661 458 665 q 461 659 461 661 q 448 642 451 659 l 451 637 q 448 627 448 633 q 451 624 448 624 l 448 619 l 448 614 l 454 616 q 485 587 477 587 q 477 580 485 584 q 475 582 477 582 q 464 574 475 578 q 461 577 464 577 q 443 564 461 573 q 548 283 548 290 q 509 262 526 283 q 456 404 458 391 l 191 404 q 157 365 191 374 q 136 326 136 345 l 136 323 q 150 292 136 302 q 144 273 144 281 l 147 273 q 157 275 151 275 q 173 268 160 268 q 197 275 182 268 q 249 257 242 267 q 241 234 245 249 q 244 223 244 229 l 239 205 q 215 216 227 215 q 212 213 215 213 l 210 218 q 223 229 218 218 l 223 247 q 208 262 218 257 l 197 262 q 173 236 176 262 q 157 241 165 241 l 150 241 q 134 220 134 233 l 134 210 l 123 210 l 126 216 l 126 226 l 123 226 l 121 213 q 97 223 106 223 l 90 223 q 45 178 45 216 l 45 174 l 47 160 q 39 153 43 160 l 39 147 q 53 153 48 153 q 87 132 66 132 l 87 129 q 60 113 87 126 q 45 79 45 98 l 45 68 q 55 45 45 59 q 50 29 50 37 l 45 29 q -3 -15 -3 22 l -3 -20 l -28 -20 q -92 -36 -63 -20 q -120 -20 -106 -35 l -136 -33 l -183 -33 l -199 -20 l -212 -31 l -272 -31 q -377 -47 -327 -31 q -170 -10 -355 -10 q -159 -20 -170 -14 l -146 -10 l -120 -10 l -94 -7 q -81 -20 -94 -11 q -16 19 -65 -1 q 29 105 3 19 q 42 137 33 105 l 37 140 l 18 119 q 26 98 26 106 q 14 108 25 98 l 11 108 q 3 98 11 98 l -3 100 l -21 79 q -18 71 -18 74 q -34 56 -20 71 q -44 58 -39 58 l -60 40 l -58 35 q -131 11 -94 11 q -183 50 -183 19 l -183 56 q -31 155 -183 118 q 11 210 -21 176 l 11 213 l 5 213 q -131 292 -43 213 q -162 307 -156 307 l -162 310 l -155 310 q -68 255 -125 296 q -16 239 -41 239 q 11 252 3 239 l 11 265 l 8 265 l -37 257 q -79 281 -62 257 l -79 294 q -52 307 -73 307 q 8 294 -31 307 q 53 304 26 302 q 102 289 79 300 l 215 593 q 247 582 244 582 q 267 632 267 606 q 254 661 267 640 q 270 671 262 661 l 273 671 l 278 640 q 210 448 220 484 l 320 448 l 307 465 q 336 493 336 471 q 375 472 354 472 q 364 448 364 453 l 438 448 q 382 556 408 556 l 382 553 l 359 559 l 359 556 q 343 564 343 559 q 362 603 362 598 q 357 624 362 614 l 359 624 q 354 650 354 636 l 354 653 l 357 653 l 357 648 l 367 648 l 367 650 l 364 656 q 367 659 367 656 l 362 659 l 364 663 l 362 669 q 404 718 378 702 l 404 721 m 458 713 l 467 713 l 467 708 l 464 708 q 458 713 458 708 m 349 711 l 354 711 l 354 708 l 349 708 l 349 711 m 469 711 l 475 711 l 475 708 l 469 708 l 469 711 m 467 708 l 469 708 l 469 703 l 467 703 l 467 708 m 477 708 l 482 708 l 482 705 l 477 705 l 477 708 m 488 705 l 493 705 l 493 703 l 488 703 l 488 705 m 496 705 q 503 703 500 703 l 500 697 q 493 700 496 700 l 496 705 m 532 703 l 537 703 l 537 695 q 532 700 532 695 l 532 703 m 351 700 l 357 700 l 357 695 l 351 695 l 351 700 m 503 700 l 511 700 q 514 697 514 700 l 519 700 q 537 687 532 687 l 537 679 l 532 679 q 522 687 532 685 q 503 697 522 695 l 503 700 m 627 697 l 629 697 l 629 692 l 627 692 l 627 697 m 254 695 l 257 695 l 257 684 q 252 679 257 679 l 252 682 l 254 695 m 454 690 l 454 687 q 458 682 454 682 l 461 687 l 461 690 l 454 690 m 621 692 l 627 692 l 627 690 l 621 690 l 621 692 m 283 690 q 291 674 291 687 q 283 690 286 674 m 551 690 l 558 690 l 558 687 l 551 687 l 551 690 m 564 687 l 569 687 l 569 684 l 564 684 l 564 687 m 597 687 q 600 684 597 684 q 603 687 600 687 l 606 682 l 593 682 q 597 687 593 687 m 766 679 q 768 677 766 677 q 770 679 768 679 l 770 671 q 755 663 767 671 q 752 666 755 666 q 734 656 752 663 q 731 659 734 659 q 726 653 731 653 l 726 656 q 703 648 718 651 l 703 650 q 669 645 700 648 l 661 645 l 661 648 q 749 671 707 648 q 752 669 749 669 q 766 679 752 672 m 338 677 l 346 677 l 346 674 l 338 674 l 338 677 m 239 653 q 244 648 244 652 l 244 645 l 239 645 l 239 653 m 299 653 q 304 648 304 652 l 299 648 l 299 653 m 613 650 l 618 650 l 618 648 l 613 648 l 613 650 m 524 648 l 530 648 l 530 645 l 524 645 l 524 648 m 642 648 l 658 648 l 658 645 l 642 645 l 642 648 m 530 645 l 535 645 q 548 635 536 635 l 548 629 l 545 629 q 530 642 530 639 l 530 645 m 249 642 l 254 621 q 233 637 233 634 q 249 642 243 637 m 553 642 l 558 642 l 558 640 l 553 640 l 553 642 m 458 640 l 464 640 l 464 635 q 458 640 458 635 m 558 640 l 561 640 q 569 637 566 637 l 569 635 l 561 635 l 558 640 m 593 640 l 597 640 l 597 637 l 593 637 l 593 640 m 603 637 l 608 637 l 608 635 l 603 635 l 603 637 m 611 637 q 618 635 616 635 l 618 632 l 608 632 l 611 637 m 624 635 l 629 635 l 634 632 l 634 635 l 650 629 l 650 632 q 658 629 655 629 q 652 624 658 624 l 652 627 l 648 624 l 642 624 l 637 627 l 637 624 l 627 629 l 627 627 q 618 629 621 629 q 624 635 619 635 m 320 632 q 333 621 333 625 q 328 611 328 621 q 312 624 312 614 q 320 632 320 624 m 572 632 l 576 632 l 576 629 l 572 629 l 572 632 m 530 629 l 532 629 q 535 621 532 627 q 527 619 530 619 q 569 548 527 610 l 569 545 l 564 545 q 548 574 564 549 l 543 574 q 540 569 543 569 q 530 577 530 573 l 530 580 l 535 587 l 535 593 q 516 624 516 616 l 519 624 l 524 621 q 530 629 524 629 m 576 629 l 582 629 l 582 627 l 576 627 l 576 629 m 582 627 l 587 627 l 587 624 l 582 624 l 582 627 m 587 624 l 593 624 l 593 621 l 587 621 l 587 624 m 233 619 l 236 619 l 249 616 q 252 619 249 619 l 252 614 q 247 601 247 605 l 241 601 q 233 619 233 616 m 472 619 l 477 619 l 477 614 q 472 619 472 614 m 226 611 l 228 611 q 236 595 228 608 l 231 595 q 220 601 224 601 q 226 611 226 607 m 304 574 q 317 569 311 569 q 312 553 312 560 l 302 559 q 299 556 302 556 q 296 559 299 559 l 299 564 l 296 569 l 304 574 m 490 556 l 496 556 l 496 553 l 490 553 l 490 556 m 569 545 q 597 504 597 515 q 569 545 589 504 m 336 532 l 336 527 l 330 527 q 336 532 331 532 m 364 524 l 372 524 q 370 517 370 519 l 367 517 q 364 524 367 519 m 479 522 q 488 514 484 522 q 479 511 485 514 q 477 514 479 514 q 479 522 479 519 m 519 465 q 527 456 523 465 l 527 451 l 519 451 q 516 456 519 456 q 519 465 519 462 m 631 438 l 640 438 q 629 422 634 422 l 629 425 l 631 438 m 715 417 q 721 412 721 416 l 721 404 q 718 407 718 404 l 713 404 l 710 404 q 713 407 710 407 l 710 412 q 715 417 711 417 m 551 412 l 553 412 l 553 407 l 551 407 l 551 412 m 422 383 l 425 383 q 440 368 429 383 l 438 368 q 422 375 428 375 l 422 383 m 645 378 l 650 378 l 650 375 l 645 375 l 645 378 m 417 372 q 443 354 443 357 l 440 354 q 417 365 423 365 l 417 372 m 414 362 q 443 347 414 357 l 443 344 l 438 344 q 404 357 423 351 l 404 359 q 414 362 405 359 m 448 362 l 454 362 l 454 359 l 448 359 l 448 362 m 758 359 q 773 349 758 354 l 770 344 l 770 331 q 749 326 758 331 q 739 347 749 340 q 758 359 747 347 m 176 357 q 157 307 157 317 q 150 326 151 307 q 176 357 157 357 m 718 357 l 721 351 l 715 349 l 713 349 l 713 351 q 718 357 713 357 m 399 354 q 427 341 424 341 l 427 338 l 422 338 l 388 349 q 385 347 388 347 l 385 351 l 399 354 m 393 341 l 396 341 q 427 331 406 335 l 427 328 l 420 328 q 393 341 400 328 m 427 338 l 435 338 l 435 336 l 427 336 l 427 338 m 438 336 l 443 336 l 443 333 l 438 333 l 438 336 m 427 328 l 433 328 l 433 326 l 427 326 l 427 328 m 323 323 q 338 313 323 313 l 333 302 q 336 292 336 297 l 328 292 l 315 289 q 304 304 315 304 q 320 323 319 314 l 323 323 m 404 323 l 406 323 q 433 317 413 323 l 433 315 l 430 315 l 404 317 l 404 323 m 435 315 l 440 315 l 440 313 l 435 313 l 435 315 m -170 313 l -162 313 l -162 310 l -170 310 l -170 313 m 404 313 q 425 310 406 310 l 425 307 q 420 304 420 307 q 404 307 416 307 l 404 313 m -71 294 l -71 286 q -55 278 -68 278 l -44 278 q -7 286 -10 286 l -7 294 l -47 304 q -71 294 -71 300 m 728 292 q 726 283 726 286 l 713 283 q 708 289 708 283 q 728 292 726 292 m 844 292 q 852 281 844 281 l 852 275 q 844 265 844 275 q 828 271 838 271 l 831 275 l 831 281 l 828 286 q 844 292 838 286 m 29 275 l 29 273 q 45 239 43 258 q 60 260 52 239 q 68 262 66 262 q 90 260 83 260 l 92 265 l 92 268 q 55 278 65 278 l 47 278 l 29 275 m 710 278 l 724 278 q 721 271 721 273 l 713 271 q 710 278 713 273 m 168 275 l 178 275 l 178 273 l 168 273 l 168 275 m 545 275 l 553 275 l 576 208 q 545 197 564 197 q 514 255 524 197 q 545 275 514 266 m 199 257 q 218 239 218 257 q 199 220 218 220 q 181 231 181 224 l 181 239 q 199 257 181 257 m 786 250 l 789 250 q 807 226 800 232 q 791 195 800 226 q 763 223 763 204 q 758 234 760 223 q 786 250 786 235 m 257 236 q 267 231 263 231 l 267 229 l 257 229 l 257 236 m 278 236 l 294 223 l 312 223 l 312 220 q 302 197 305 197 l 288 197 q 257 223 269 197 l 262 223 l 275 220 l 275 226 l 270 226 l 270 229 q 278 236 278 229 m 812 226 l 818 226 q 812 220 818 220 l 812 226 m 92 216 q 115 205 112 216 q 90 137 113 193 q 53 181 58 137 q 92 216 53 210 m 178 216 l 186 216 q 202 208 202 213 l 199 208 q 178 213 190 213 l 178 216 m 435 216 l 440 216 l 440 213 l 435 213 l 435 216 m 435 213 q 412 192 435 209 l 406 199 q 435 213 433 213 m 244 210 l 249 210 q 270 189 254 195 l 270 184 l 265 184 q 244 208 244 184 l 244 210 m 440 202 q 425 186 440 199 l 420 186 l 420 189 q 440 202 431 202 m 582 197 q 650 24 646 26 l 658 24 q 640 1 644 1 l 611 1 q 590 47 606 1 q 606 79 606 57 l 606 84 q 555 132 606 120 q 551 155 551 151 l 548 155 l 548 126 l 543 126 l 543 137 q 545 165 543 148 q 537 189 537 183 l 548 189 q 582 199 557 189 l 582 197 m 152 195 l 163 195 q 191 174 191 195 l 168 174 q 165 163 165 169 l 165 160 l 168 155 l 150 155 q 144 178 144 172 q 152 195 147 195 m 797 195 l 800 195 l 800 189 l 797 189 l 797 195 m 136 192 l 139 192 l 139 186 l 136 186 l 136 192 m 241 192 l 244 192 q 260 178 244 182 q 249 158 249 168 l 249 155 q 254 140 249 148 l 247 140 q 228 160 232 140 q 239 181 228 167 q 241 192 241 186 m 440 189 l 443 184 l 435 178 l 430 178 l 430 181 q 440 189 430 185 m 275 184 l 286 184 l 286 178 q 283 181 283 178 l 278 178 l 275 178 l 275 184 m -3 178 l -21 158 q -3 140 -21 154 l 0 140 q 18 158 4 140 q -3 178 18 161 m 275 176 l 278 176 l 283 174 q 257 144 273 153 l 254 158 q 275 176 254 174 m 516 174 l 519 174 l 519 165 l 516 165 l 516 174 m 537 174 l 540 174 l 540 160 l 537 160 l 537 174 m 215 168 l 223 168 l 223 165 l 215 165 l 215 168 m 136 163 l 139 163 l 142 153 q 132 132 135 153 l 132 126 l 134 121 l 132 121 q 115 134 115 130 q 136 163 136 155 m 111 153 l 121 153 q 115 147 121 147 q 111 153 111 147 m 170 153 l 189 153 l 189 137 l 184 137 q 170 153 180 137 m 155 150 l 163 150 q 173 140 167 150 l 168 140 q 155 150 155 146 m 142 147 l 144 147 q 173 132 161 132 l 173 123 q 163 113 173 119 q 136 126 142 113 l 136 129 l 142 147 m 372 147 l 375 147 q 388 142 381 142 l 388 137 l 370 132 l 367 137 q 372 147 372 137 m -41 140 q -104 119 -41 131 q -165 61 -165 91 q -138 43 -165 43 l -141 37 l -141 35 q -120 19 -136 35 q -99 40 -117 19 l -99 43 q -113 53 -107 43 l -113 56 q -92 71 -107 56 q -79 58 -92 68 l -60 79 l -73 95 q -60 116 -60 111 q -41 100 -43 100 l -39 100 q -21 119 -35 100 q -41 140 -21 122 m 181 129 l 194 129 l 194 126 q 173 113 187 113 q 181 129 181 123 m 802 123 q 831 98 802 104 l 831 95 q 823 87 831 91 l 807 102 l 800 102 q 773 90 780 90 l 770 95 l 770 98 q 802 123 791 111 m 564 121 l 566 121 q 597 87 597 110 l 597 77 q 587 56 597 62 q 564 121 564 113 m 545 119 l 548 119 l 551 100 q 540 56 540 68 l 543 56 l 561 58 l 564 58 l 564 56 q 545 45 558 56 q 537 47 540 47 l 537 111 q 545 119 537 115 m 84 111 q 66 68 66 83 q 79 58 77 58 q 87 68 87 58 l 92 66 l 108 66 l 115 71 l 121 71 q 92 40 104 40 q 58 79 63 40 q 84 111 66 111 m 92 108 l 108 108 q 118 90 118 104 q 100 71 118 71 l 92 71 l 92 74 l 97 74 l 97 79 q 81 98 97 81 q 92 108 81 102 m 514 98 l 514 74 q 532 37 524 37 q 519 26 531 32 l 516 32 l 519 32 q 503 92 509 66 q 514 98 507 92 m 522 98 l 524 98 l 524 68 l 522 68 l 522 98 m 749 92 l 755 92 l 755 87 l 749 87 l 749 92 m 791 87 l 791 84 q 776 61 784 61 l 776 63 q 791 87 776 87 m 818 82 l 818 58 q 794 66 805 66 l 794 68 q 800 74 795 74 l 802 74 l 810 68 q 818 82 813 82 m 380 68 q 404 58 389 58 q 396 50 404 54 l 378 56 l 380 68 m 367 50 l 372 50 q 399 43 388 43 l 399 35 l 385 37 q 380 32 385 32 l 375 32 q 367 50 375 44 m 535 43 l 537 43 l 537 37 l 535 37 l 535 43 m 63 40 q 94 26 63 29 q 84 16 94 22 q 76 19 79 19 q 74 16 76 16 q 50 26 71 25 q 63 40 50 31 m 479 24 l 485 24 l 485 14 l 482 14 l 479 24 m 42 22 l 68 14 l 68 11 q 24 -20 57 -7 q 5 -26 16 -20 l 5 -18 q 42 22 11 22 m 728 16 l 731 16 l 731 11 l 728 11 l 728 16 m 485 14 l 488 14 l 488 8 l 485 8 l 485 14 m 585 8 l 587 8 l 587 3 l 585 3 l 585 8 m 652 5 l 655 5 l 655 1 l 652 1 l 652 5 m -26 -28 l -13 -28 l -13 -31 l -65 -36 l -68 -36 l -68 -33 q -26 -28 -41 -28 z "},"B":{"ha":543,"x_min":-142,"x_max":699,"o":"m 388 966 q 422 884 394 966 l 506 884 l 465 851 q 457 854 460 854 l 457 856 q 486 874 459 856 l 486 879 l 422 879 q 393 943 416 879 l 388 943 q 363 879 367 879 l 296 879 l 296 874 q 314 861 300 874 l 345 861 l 342 867 l 378 867 l 388 900 q 404 867 394 900 l 442 867 q 414 838 414 844 q 427 802 414 834 l 424 802 l 434 782 q 424 774 424 781 l 424 766 q 445 756 424 762 l 457 710 q 424 700 424 707 l 424 692 q 432 684 424 690 l 445 687 l 460 687 l 460 684 q 463 646 460 678 q 442 625 463 642 l 442 618 q 460 612 442 612 q 404 479 452 550 q 368 448 372 448 l 368 444 q 486 341 414 444 q 509 264 509 282 l 468 226 q 439 328 468 285 l 437 328 l 439 333 q 434 338 434 333 l 429 338 l 429 333 l 427 333 q 422 341 427 341 l 424 346 l 411 346 l 411 349 l 424 349 q 319 413 393 393 l 311 413 q 237 408 237 411 l 222 410 l 189 410 q 186 408 186 410 l 180 410 q 170 408 175 410 q 160 410 166 410 l 157 410 l 157 405 l 155 405 l 155 408 l 168 454 l 201 454 l 201 456 l 193 456 l 193 459 l 201 459 q 219 454 212 454 q 399 556 355 454 q 416 656 416 618 q 380 789 416 721 l 378 789 l 314 749 l 314 751 l 334 818 l 91 818 q 78 795 91 800 l 68 795 q 55 818 55 800 l 50 818 l 50 582 l 52 569 q 3 608 15 606 l 3 730 l -9 726 q -17 728 -14 728 q -14 762 -17 730 l -12 762 q 3 756 -5 762 l 3 810 q -9 825 -9 810 q -1 841 -7 841 l 3 841 q 12 828 5 828 q 14 836 14 833 q 3 861 3 854 l 22 861 q 35 844 28 844 l 37 848 l 29 861 l 52 861 l 58 859 q 71 871 58 862 l 83 871 q 91 861 91 871 l 301 861 l 301 864 l 273 882 l 273 884 l 360 884 l 388 966 m -20 949 l -14 949 q 1 926 -14 945 q -4 920 1 920 l -7 920 q -20 949 -7 923 m -32 938 l -30 938 q -17 915 -30 935 l -20 915 q -32 936 -32 920 l -32 938 m 78 926 l 83 926 q 96 915 95 920 l 96 905 q 78 926 94 905 m 65 920 l 68 920 q 91 897 71 920 q 85 892 91 892 l 73 892 q 62 905 69 892 l 62 907 l 65 920 m 9 900 l 14 900 q 24 890 18 900 l 24 877 l 19 877 l 9 900 m -76 895 l -73 895 q -66 861 -66 871 l -73 861 l -81 892 l -76 895 m -4 895 q 14 869 1 895 q 6 867 12 869 q -9 892 -7 867 l -4 895 m -91 874 l -89 874 l -89 869 l -91 869 l -91 874 m -104 851 q -76 833 -90 851 q -79 821 -79 829 l -60 812 l -60 802 q -76 787 -60 787 l -83 787 q -94 798 -87 787 l -94 808 l -89 815 l -89 818 q -109 828 -106 818 l -109 831 l -102 831 l -102 841 q -109 846 -109 841 q -104 851 -104 846 m -47 851 l -40 851 q -30 841 -36 851 l -30 828 q -37 821 -30 824 l -47 851 m -60 846 l -55 846 q -50 825 -50 829 q -63 838 -63 831 q -60 846 -60 843 m 442 841 l 445 841 l 437 831 q 452 782 452 789 l 447 782 q 434 836 434 827 l 442 841 m 342 815 q 329 766 334 793 l 332 766 q 376 798 376 795 l 363 808 q 357 802 363 802 l 357 805 l 360 810 q 342 815 350 815 m -32 808 l -27 808 q -14 789 -14 804 l -14 787 q -32 808 -16 787 m -40 805 q -22 777 -22 787 l -22 774 l -32 772 q -47 785 -43 775 l -47 789 q -40 805 -46 805 m -135 785 q -109 774 -109 780 l -109 764 q -125 751 -114 755 q -142 772 -142 751 l -135 785 m 71 779 l 83 779 q 94 769 87 779 l 94 756 q 83 746 94 752 l 71 746 q 60 756 66 746 l 60 769 q 71 779 60 773 m 432 774 q 447 766 447 772 l 445 766 l 432 769 l 432 774 m 452 774 q 460 764 456 774 l 450 764 q 452 774 452 768 m -89 769 l -83 769 q -94 743 -91 760 l -96 743 l -96 753 q -89 769 -95 769 m -71 769 l -63 759 l -63 753 q -83 736 -63 736 l -86 736 q -71 769 -81 769 m 452 756 l 457 756 q 463 751 463 755 l 463 749 q 452 756 452 752 m -24 753 l -22 753 l -22 746 q -24 739 -24 741 l -27 739 l -27 746 q -24 753 -24 751 m -58 736 l -43 736 q -35 728 -39 736 l -35 718 q -50 703 -35 703 l -55 703 q -68 718 -64 707 q -58 736 -64 736 m 457 703 q 460 694 457 700 q 432 692 441 694 l 432 697 q 457 703 454 703 m 460 628 l 460 625 q 455 621 460 621 l 450 621 l 450 625 q 460 628 451 625 m 101 623 l 104 623 l 106 597 l 106 585 l 101 585 q 96 528 98 538 l 94 528 l 94 543 l 96 543 q 101 623 96 551 m 65 618 l 68 618 q 75 579 75 592 q 73 574 73 579 l 71 574 q 65 615 71 583 l 65 618 m 140 618 l 142 618 l 142 615 q 134 566 134 576 l 132 566 l 132 579 l 127 576 l 127 579 l 140 618 m 176 602 l 176 600 q 163 569 163 573 l 153 569 q 176 602 170 601 m 3 600 q 52 556 34 583 q 47 551 52 551 l 3 589 l 3 600 m 106 582 l 109 582 l 109 551 l 106 551 l 106 582 m 206 582 l 206 579 q 180 549 184 549 q 176 553 180 553 q 206 582 176 556 m 78 579 l 81 579 l 81 574 l 78 574 l 78 579 m 3 576 q 52 536 28 564 l 50 530 l 50 520 l 58 510 l 58 507 l 52 510 l 50 510 l 50 456 q 14 464 41 464 l 12 464 l 6 461 q -4 471 6 471 l -4 474 l 3 474 l 3 479 l -9 479 l -9 477 l -4 477 l -4 474 l -9 474 q -47 479 -15 474 l -47 482 l 3 482 l 3 507 l -4 507 l -4 503 l -40 515 l -40 518 l -37 518 q 3 510 -5 510 l 3 528 q -24 549 -18 549 l -24 551 l -20 551 l 3 538 l 3 576 m 124 576 l 127 576 l 127 569 l 124 569 l 124 576 m 73 574 l 75 574 l 75 559 l 73 559 l 73 574 m 81 574 l 83 574 l 83 566 l 81 566 l 81 574 m 121 569 l 124 569 l 124 562 l 121 562 l 121 569 m 150 569 l 153 569 l 153 564 l 150 564 l 150 569 m 83 566 l 85 566 l 85 559 l 83 559 l 83 566 m 130 566 l 132 566 l 132 551 l 130 551 l 130 566 m 150 564 l 150 562 q 144 556 150 556 l 144 559 q 150 564 146 564 m 119 562 l 121 562 l 121 553 l 119 553 l 119 562 m 75 559 l 78 559 l 78 543 l 75 543 l 75 559 m 85 559 l 88 559 l 88 551 l 85 551 l 85 559 m 144 556 l 144 553 q 140 549 144 549 l 140 551 q 144 556 140 556 m 52 553 l 55 553 l 55 549 l 52 549 l 52 553 m 117 553 l 119 553 l 119 546 l 117 546 l 117 553 m 88 551 l 91 551 l 91 543 l 88 543 l 88 551 m 109 551 l 111 551 l 111 543 l 117 546 l 117 543 q 109 528 114 528 l 109 551 m 127 551 l 130 551 l 130 538 l 134 541 l 134 538 q 124 526 127 526 l 124 528 q 127 551 127 542 m 229 551 q 201 528 229 548 l 199 528 q 193 533 199 533 l 193 536 q 229 551 227 551 m 55 549 l 58 549 l 58 543 l 55 543 l 55 549 m 140 549 l 140 546 q 134 541 140 541 l 134 543 q 140 549 135 549 m 178 546 l 178 543 q 173 538 178 538 l 173 541 q 178 546 174 546 m 78 543 l 81 543 l 81 536 l 78 536 l 78 543 m 142 533 q 150 530 147 530 q 137 518 150 527 l 137 520 q 142 533 142 529 m 168 533 l 168 530 q 163 526 168 526 l 163 528 q 168 533 163 533 m 191 533 l 193 533 q 189 528 193 528 l 186 528 q 191 533 186 533 m 55 530 l 60 530 q 68 523 64 530 l 68 520 l 65 520 q 55 530 61 520 m 180 528 l 186 528 l 186 526 l 180 526 l 180 528 m 176 526 l 180 526 l 180 523 l 176 523 l 176 526 m 193 526 l 196 526 q 191 520 196 520 l 189 520 q 193 526 189 526 m 160 523 q 165 518 160 518 l 165 515 q 150 507 159 515 l 147 507 q 160 523 156 523 m 170 523 l 176 523 l 176 520 l 170 520 l 170 523 m 165 520 l 170 520 l 170 518 l 165 518 l 165 520 m 183 518 l 186 518 q 180 513 186 513 l 178 513 q 183 518 179 518 m 245 518 l 248 518 l 248 515 q 209 503 245 515 l 212 507 l 203 507 l 203 510 q 245 518 210 510 m 170 510 l 176 510 l 176 507 l 170 507 l 170 510 m 170 507 q 180 503 170 503 l 180 500 q 155 495 174 500 q 170 507 155 498 m 199 507 l 203 507 l 203 505 l 186 503 l 180 503 l 180 505 l 199 507 m -4 503 l 1 503 l 1 500 l -4 500 l -4 503 m 203 503 l 209 503 l 209 500 l 203 500 l 203 503 m 201 500 l 203 500 l 203 497 q 193 495 195 495 l 191 495 l 191 497 q 201 500 192 497 m 186 495 l 191 495 l 191 492 l 186 492 l 186 495 m 178 492 l 186 492 l 186 490 l 178 490 l 178 492 m 176 490 l 178 490 l 176 484 q 178 482 178 484 l 176 482 q 170 487 170 482 l 176 490 m 160 484 l 165 484 l 165 482 l 160 482 l 160 484 m 180 484 l 183 484 q 255 482 202 482 l 255 479 q 214 474 218 474 l 212 474 l 212 477 l 216 477 l 216 479 q 180 482 193 479 l 180 484 m 191 474 l 209 474 l 209 471 l 191 471 l 191 474 m 178 471 l 191 471 l 191 469 l 178 469 l 178 464 q 193 461 180 464 l 193 459 l 186 459 q 170 464 175 464 l 170 467 q 178 471 170 471 m 19 456 l 22 456 l 22 454 l 3 448 l 3 454 q 19 456 5 454 m -7 454 l -9 448 l 3 448 l 3 446 q -27 444 -14 446 l -27 448 l -7 454 m 71 454 l 101 454 q 37 405 101 415 l 3 405 l 3 420 q -9 418 0 418 q 3 431 -9 422 q 71 454 3 454 m 109 454 l 160 454 q 142 410 151 410 l 144 405 l 142 405 l 137 408 l 137 402 l 134 402 l 134 410 l 121 410 l 121 400 l 119 400 l 121 387 l 117 387 l 117 410 l 104 410 l 106 405 l 106 397 q 101 390 101 397 l 98 390 l 98 397 l 101 410 l 88 410 l 88 372 l 85 372 q 83 400 85 400 l 81 400 l 85 410 q 83 413 83 410 q 109 454 109 426 m -45 446 l -37 446 l -37 444 q -45 441 -40 444 l -45 446 m -17 418 l -17 415 q -32 408 -20 408 q -17 418 -32 412 m 173 408 l 176 408 q 180 402 180 407 l 178 402 q 173 408 173 402 m 68 405 l 71 405 l 71 397 l 68 397 l 68 405 m 160 402 l 163 402 l 163 397 l 160 397 l 160 402 m 191 402 q 216 379 193 402 l 216 377 q 189 395 215 377 q 191 402 191 399 m 50 400 l 50 395 l 55 397 l 55 395 l 50 387 l 50 359 q 3 343 22 354 l 3 385 l 1 385 l -7 379 l -9 379 q 3 397 3 393 l 37 397 l 50 400 m 124 400 l 127 400 l 127 395 l 124 395 l 124 400 m 147 400 l 153 400 l 153 395 q 147 400 147 395 m 183 400 l 189 400 l 189 397 l 183 397 l 183 400 m 65 397 l 68 397 l 68 390 l 65 390 l 65 397 m 78 397 l 81 397 l 81 392 l 78 392 l 78 397 m 163 397 l 165 397 l 165 392 l 163 392 l 163 397 m 106 395 l 109 395 l 109 385 l 106 385 l 106 395 m 127 395 l 130 395 l 130 390 l 127 390 l 127 395 m 75 392 l 78 392 l 78 387 l 75 387 l 75 392 m 140 392 l 142 392 l 142 385 l 140 385 l 140 392 m 62 390 l 65 390 l 65 382 l 62 382 l 62 390 m 96 390 l 98 390 l 98 379 l 96 379 l 96 390 m 157 390 q 170 379 169 379 l 170 385 q 176 377 176 385 l 180 379 l 191 379 l 196 377 q 199 379 196 379 q 214 369 199 371 q 199 354 212 359 q 186 346 199 346 q 168 377 169 346 q 157 387 163 377 l 157 390 m 168 390 l 170 390 l 170 385 l 168 385 l 168 390 m 73 387 l 75 387 l 75 382 l 73 382 l 73 387 m 132 385 l 134 385 l 134 379 l 132 379 l 132 385 m 142 385 l 144 385 l 144 377 l 142 377 l 142 385 m 345 385 l 350 385 l 350 382 q 345 377 350 377 q 340 382 340 377 l 345 385 m 60 382 l 62 382 l 62 374 l 60 374 l 60 382 m 71 382 l 73 382 l 73 377 l 71 377 l 71 382 m 134 379 l 137 379 l 137 374 l 134 374 l 134 379 m 68 377 l 71 377 l 71 372 l 68 372 l 68 377 m 119 377 l 121 377 q 124 320 121 337 q 111 367 119 320 l 111 372 l 114 372 q 119 359 114 359 l 119 377 m 144 377 l 147 377 l 147 372 l 144 372 l 144 377 m 137 374 l 140 374 l 140 369 l 137 369 l 137 374 m 248 374 l 260 374 q 271 364 264 374 l 271 359 q 250 341 271 341 q 237 359 237 345 l 237 364 q 248 374 237 368 m 58 372 l 60 372 q 65 367 60 367 l 65 364 l 58 364 l 58 372 m 65 372 l 68 372 l 68 367 l 65 367 l 65 372 m 140 369 l 144 367 l 150 369 q 160 331 150 362 q 140 369 155 331 m 85 364 l 88 364 l 88 359 l 91 359 l 91 364 l 94 364 l 94 359 q 85 320 85 329 l 83 320 l 83 351 l 85 364 m 699 364 l 699 361 q 660 310 699 349 l 657 310 l 693 361 l 699 364 m 52 354 l 60 354 q 50 328 50 336 l 50 249 l 58 249 l 58 254 l 52 254 l 52 256 l 58 256 q 85 246 68 250 l 85 243 l 78 243 l 78 239 q 109 203 83 239 l 111 203 l 111 208 q 106 239 111 220 q 117 218 112 239 l 121 218 l 121 223 l 119 236 q 127 239 122 236 q 130 236 130 239 l 142 239 l 147 239 q 160 220 160 231 l 155 210 l 160 210 l 180 220 l 183 216 l 183 213 q 157 203 159 203 l 157 197 q 165 184 165 197 q 155 169 165 174 l 142 169 q 130 187 134 171 q 119 180 119 183 q 130 154 130 161 l 142 157 q 160 138 160 157 q 140 123 160 123 l 140 121 l 137 90 l 134 90 l 134 118 l 132 118 q 88 75 97 96 l 81 75 l 83 87 q 75 85 78 85 q 85 49 85 54 l 332 49 l 347 36 l 350 36 q 396 62 369 56 l 399 66 l 399 77 q 386 102 399 96 q 365 125 382 102 l 370 128 q 373 125 370 125 q 376 134 376 131 l 378 134 q 380 131 380 134 q 388 144 388 131 l 424 111 l 427 111 q 468 154 429 111 q 460 172 463 154 l 465 172 l 465 180 q 452 187 452 180 l 452 190 q 457 195 453 195 q 460 192 457 192 l 463 197 l 463 200 l 460 205 l 455 203 q 442 218 452 203 l 439 218 l 437 213 l 437 210 q 447 197 442 197 q 445 195 447 195 l 447 190 l 445 177 q 427 192 444 177 l 424 192 l 380 151 q 376 157 380 157 q 368 154 370 154 l 368 159 q 363 187 368 162 q 388 220 363 205 l 388 218 q 399 223 399 220 l 414 218 l 416 223 l 416 226 l 411 226 l 411 231 q 422 220 420 228 q 419 218 419 220 l 424 216 l 424 220 l 429 218 l 434 218 l 439 220 l 437 226 l 437 228 l 460 216 q 463 218 460 218 l 463 213 l 468 213 l 468 218 l 509 180 q 511 182 509 182 l 511 177 q 460 79 511 115 l 460 75 l 473 59 q 470 56 470 59 l 465 59 l 460 59 q 434 33 460 53 q 427 41 434 37 l 424 41 q 355 3 391 3 l 317 3 q 273 41 294 24 l 232 3 l 117 3 q 104 0 108 3 l 88 3 l 3 3 l 3 52 l -1 59 l -20 56 l -30 56 l -30 46 q -55 62 -42 62 l -53 56 l -60 52 l -63 52 l -63 56 q -58 62 -62 62 l -60 72 q -32 118 -49 118 q 1 184 -10 142 q 3 187 3 184 l 3 190 q -1 195 3 195 q 14 267 3 231 l 9 269 l 3 267 l 3 333 q 50 351 3 340 l 50 346 l 52 346 l 52 354 m 227 320 l 227 315 l 222 315 q 227 320 222 320 m 291 318 l 291 313 l 286 313 q 291 318 286 318 m 568 315 l 570 315 l 570 310 l 568 310 l 568 315 m 191 310 q 206 300 201 310 l 206 287 q 196 277 206 283 l 183 277 q 173 295 173 281 q 191 310 173 310 m 652 310 l 657 310 l 657 305 l 652 305 l 652 310 m 568 305 l 570 305 l 570 300 l 568 300 l 568 305 m 644 302 l 650 302 l 650 300 l 644 300 l 644 302 m -37 300 q -12 251 -18 260 l -14 239 l -20 239 q -43 297 -20 248 l -37 300 m 342 300 l 345 300 l 345 292 l 342 292 l 342 300 m 568 300 l 568 297 q 562 292 568 292 l 562 295 q 568 300 564 300 m 642 300 l 644 300 l 644 295 l 642 295 l 642 300 m 637 295 l 642 295 l 642 292 l 637 292 l 637 295 m 363 292 l 365 292 l 365 287 l 363 287 l 363 292 m 634 292 l 637 292 q 632 287 637 287 l 629 287 q 634 292 630 292 m 345 290 l 347 290 q 350 274 350 276 l 353 274 q 360 287 358 274 l 363 287 l 363 279 q 360 272 360 275 l 378 277 q 365 264 365 267 l 365 262 l 368 262 q 393 259 390 259 l 393 256 l 365 256 l 365 254 l 376 241 l 373 241 q 357 249 363 249 l 357 246 q 360 231 360 233 l 360 226 l 357 226 q 353 246 357 230 l 350 246 q 342 233 344 246 l 340 233 l 340 236 l 342 251 l 340 251 q 327 246 331 246 q 337 254 327 252 l 337 259 q 319 262 327 262 l 319 264 q 340 267 326 264 l 327 282 l 329 282 l 345 272 l 347 272 l 345 285 l 345 290 m 132 287 l 137 287 q 155 269 155 287 l 155 267 q 142 254 155 263 l 140 254 q 121 264 125 254 l 121 277 q 132 287 121 281 m 621 285 l 627 285 l 627 282 l 621 282 l 621 285 m 547 282 l 552 282 l 552 279 q 514 256 537 265 l 511 262 q 547 282 546 273 m 378 279 l 383 279 l 383 277 l 378 277 l 378 279 m 209 277 l 222 277 q 235 254 235 270 l 222 246 l 222 243 q 235 239 222 239 l 235 236 q 224 226 224 236 l 219 228 l 219 220 l 216 220 q 212 228 216 228 q 214 231 212 231 l 212 236 l 212 243 q 199 262 199 247 l 199 267 q 209 277 199 271 m 608 277 l 614 277 l 614 274 l 608 274 l 608 277 m 434 269 l 437 269 l 437 264 l 434 264 l 434 269 m 627 267 q 632 262 632 266 l 627 262 l 627 267 m 624 264 l 627 259 l 608 249 l 608 251 l 598 246 l 596 251 q 624 264 602 251 m 3 259 l 3 256 q -14 159 -5 223 q -76 105 -45 105 q -45 125 -73 111 l -45 134 l -50 134 q -55 125 -50 125 q -60 134 -60 125 q -55 154 -55 150 q -63 184 -63 172 l -47 172 l -47 174 l -43 172 l -35 172 q -43 151 -43 157 q -37 138 -37 143 l -32 138 q 1 259 -22 205 l 3 259 m 509 254 q 514 226 514 243 l 514 213 l 522 213 l 522 210 l 514 210 l 514 197 q 506 190 514 194 l 475 223 l 509 254 m 596 249 q 591 243 596 243 l 583 243 l 583 246 l 596 249 m 50 241 l 50 236 q 60 231 60 236 l 62 231 q 65 233 65 231 q 78 190 78 233 l 78 182 l 81 182 q 101 197 98 188 q 65 243 85 225 l 62 243 l 50 241 m 321 246 l 327 246 l 327 243 l 321 243 l 321 246 m 465 246 q 457 241 465 241 l 452 241 l 452 243 l 465 246 m 376 241 l 380 241 l 380 236 q 376 241 376 236 m 442 241 l 447 241 l 447 239 l 442 239 l 442 241 m 565 241 l 570 241 l 570 239 l 565 239 l 565 241 m 434 239 l 439 239 l 439 236 l 434 236 l 434 239 m 427 236 q 429 233 427 233 q 432 236 429 236 l 432 228 q 422 231 427 231 q 427 236 422 236 m 201 233 l 206 233 l 206 231 l 201 231 l 201 233 m 337 233 l 340 233 l 340 228 l 337 228 l 337 233 m 50 218 l 50 169 q 62 174 58 174 l 62 228 l 60 228 q 50 218 56 228 m -20 228 l -20 226 q -40 182 -32 186 l -43 182 l -27 213 l -32 213 q -58 195 -58 199 q -55 187 -55 190 q -66 203 -60 187 q -63 210 -63 208 l -55 205 q -20 228 -53 212 m 365 226 l 370 226 l 370 223 l 365 223 l 365 226 m 547 226 l 552 226 l 552 223 l 547 223 l 547 226 m 555 226 l 578 226 l 578 223 q 557 220 560 223 l 555 226 m 529 223 l 539 223 l 539 220 l 529 220 l 529 223 m 229 218 q 245 197 245 212 q 227 184 241 184 q 212 200 212 184 l 212 208 q 229 218 216 218 m 127 213 l 124 208 l 124 200 l 137 203 q 140 200 137 200 l 140 203 q 127 213 140 206 m 427 210 l 427 208 l 432 205 l 434 205 l 434 210 l 429 208 q 427 210 429 210 m 527 197 l 527 195 l 522 182 q 514 184 517 184 q 527 197 514 187 m -71 192 l -68 192 l -68 187 q -79 182 -72 187 l -79 184 q -71 192 -79 189 m 342 187 l 345 187 l 345 182 l 342 182 l 342 187 m 427 184 q 457 154 453 154 q 424 118 448 138 l 393 151 q 427 184 393 155 m 524 184 q 537 177 537 181 l 534 177 q 524 180 530 180 l 524 184 m -81 182 l -79 182 l -79 177 l -81 177 l -81 182 m 342 180 l 350 174 q 353 177 350 177 l 353 172 q 347 164 347 172 l 345 164 q 342 172 345 167 l 345 172 l 342 177 l 342 180 m 542 180 l 542 174 l 537 174 q 542 180 538 180 m 222 177 l 227 177 q 245 159 245 177 q 227 144 245 144 q 212 154 216 144 l 212 167 q 222 177 212 171 m 545 177 q 562 169 557 169 q 550 157 562 165 l 545 164 l 550 164 l 550 167 q 542 172 550 172 l 545 177 m 75 144 l 81 144 q 88 164 81 150 l 83 164 q 75 144 77 164 m 573 164 q 598 149 598 153 l 596 149 l 570 159 l 573 164 m 1 159 q -4 149 1 155 l -4 146 l -1 146 q 3 151 3 146 l 3 159 l 1 159 m 117 159 q 106 115 117 151 l 111 115 q 130 125 124 125 l 121 159 l 117 159 m 347 161 q 353 157 353 161 l 347 157 l 347 161 m 50 146 l 50 141 q 58 125 52 125 l 60 125 l 60 154 q 50 146 50 150 m 98 149 q 75 98 83 118 q 104 149 96 98 l 98 149 m 604 151 l 604 146 l 598 146 q 604 151 600 151 m 355 149 l 360 149 l 360 146 l 355 146 l 355 149 m 386 149 l 388 144 l 383 141 q 378 146 378 141 q 386 149 380 146 m 606 149 q 614 146 611 146 l 614 141 l 611 141 q 604 144 606 144 l 606 149 m 345 146 l 350 138 q 340 134 346 138 l 340 141 q 345 146 340 146 m 627 141 q 640 131 638 136 l 634 131 q 619 136 626 136 q 627 141 619 141 m -86 134 l -79 134 q -73 128 -73 132 l -73 125 q -79 121 -73 121 l -81 121 q -86 125 -86 121 l -86 134 m -14 118 l -14 105 q 3 75 -14 93 l 3 111 q 1 108 1 111 q -7 111 -4 111 l -7 115 q -1 121 -5 121 l 3 118 l 3 128 q -14 118 -14 122 m 527 121 q 532 115 532 119 l 527 115 l 527 121 m -81 105 l -76 105 l -76 102 l -81 102 l -81 105 m 117 95 l 124 95 l 124 90 q 119 85 124 85 l 117 85 q 111 90 111 85 q 117 95 112 95 m 347 92 l 350 92 l 355 90 q 357 92 355 92 l 360 87 q 357 85 357 87 q 363 79 363 84 q 350 75 356 79 q 342 85 350 78 q 347 92 347 85 m 486 92 l 486 90 l 483 85 q 486 82 486 85 l 483 82 q 488 56 486 77 q 468 77 485 56 q 486 92 484 92 m -106 87 l -99 87 l -99 85 l -106 85 l -106 87 m -53 64 l -45 64 q -40 69 -40 64 l -40 85 l -43 85 q -53 64 -49 85 m -30 85 q -32 66 -30 77 l -22 66 l -24 72 l -24 85 l -30 85 m 542 87 l 545 82 q 539 77 545 77 l 537 82 q 542 87 538 87 m -114 85 l -106 85 l -106 82 l -119 79 q -114 85 -119 85 m 62 62 l 60 49 l 73 49 q 68 62 68 57 l 62 62 m 345 49 l 353 49 q 347 43 353 43 l 345 49 m 273 33 q 304 3 277 33 l 242 3 q 273 33 242 6 m 427 33 l 429 28 q 419 23 425 28 l 416 23 q 427 33 416 27 m 442 28 l 447 28 l 447 23 q 442 28 442 23 z "},"C":{"ha":575,"x_min":-105,"x_max":529,"o":"m 529 860 l 529 829 l 524 832 l 516 821 l 522 819 q 529 827 522 823 l 529 817 q 296 770 419 817 l 296 773 q 283 781 296 777 q 263 768 269 774 l 258 770 q 253 765 253 770 l 256 760 q 230 740 239 740 l 273 804 q 271 806 271 804 q 380 840 326 829 l 353 809 l 358 806 q 419 850 392 850 l 473 857 l 473 854 q 481 857 478 857 q 529 860 488 857 m 450 834 l 445 837 l 435 832 q 432 834 435 834 l 425 824 l 427 819 q 470 840 447 819 q 465 844 465 840 q 450 834 450 840 m 414 827 l 412 821 l 419 817 l 422 821 l 414 827 m 266 804 q 240 778 266 800 q 230 788 236 778 l 230 791 l 266 804 m 506 801 l 509 801 l 509 796 l 506 796 l 506 801 m 171 796 q 176 791 176 795 l 171 788 q 166 793 166 788 l 171 796 m 222 786 q 240 768 222 782 q 143 655 208 720 q 113 676 143 669 l 94 696 q 115 714 94 699 q 107 720 107 714 q 135 722 135 720 q 166 691 135 718 l 207 734 q 179 763 203 734 l 222 786 m 156 783 q 161 778 161 783 l 161 776 l 156 776 q 151 781 151 776 l 156 783 m 186 783 l 189 778 q 184 773 189 773 l 181 778 q 186 783 182 783 m 281 773 q 291 770 286 770 q 271 760 291 765 l 271 758 l 286 745 l 283 745 l 279 747 l 279 743 l 276 743 q 258 753 264 753 q 281 773 258 758 m 140 768 q 146 763 146 767 l 140 760 q 135 765 135 760 l 140 768 m 174 758 l 197 732 l 163 701 l 146 722 l 153 727 l 151 732 l 153 737 q 148 743 148 737 q 153 747 153 743 q 151 750 151 747 l 156 753 q 163 750 161 750 q 174 758 163 754 m 127 755 l 130 750 q 125 745 130 745 l 123 750 q 127 755 123 755 m 463 753 l 465 753 q 460 747 465 747 l 458 747 q 463 753 458 753 m 458 747 q 437 734 446 734 q 458 747 437 741 m 256 745 q 281 724 281 728 l 279 724 q 271 727 273 727 l 271 724 l 279 714 l 276 714 q 256 745 256 732 m 294 745 q 325 734 315 734 l 325 732 l 317 732 q 291 740 299 740 l 294 745 m 138 740 q 148 732 148 736 l 143 724 q 133 727 138 727 l 138 734 q 135 737 135 734 q 138 740 138 737 m 227 740 l 230 740 q 233 732 230 737 l 224 727 l 224 732 q 227 740 227 737 m 104 737 l 115 737 q 110 727 113 727 l 100 727 l 100 730 l 110 730 l 110 734 l 104 734 l 104 737 m 429 734 l 432 734 l 427 727 l 412 730 l 412 732 l 429 734 m 240 732 l 250 732 l 250 730 l 240 730 l 240 732 m 296 732 l 302 732 l 302 730 l 296 730 l 296 732 m 325 732 l 335 732 l 335 730 l 325 730 l 325 732 m 302 730 l 309 730 l 309 727 l 302 727 l 302 730 m 335 730 l 347 730 l 347 727 l 335 727 l 335 730 m 309 727 l 317 727 l 317 724 l 309 724 l 309 727 m 360 727 l 366 727 l 366 724 l 360 724 l 360 727 m 391 727 l 393 727 q 389 722 393 722 l 386 722 q 391 727 387 727 m 217 724 l 222 724 q 199 701 222 721 l 199 704 q 217 724 214 724 m 319 724 l 327 724 l 327 722 l 319 722 l 319 724 m 412 724 l 416 724 l 416 722 l 412 722 l 412 724 m 230 722 l 237 722 q 258 720 256 720 l 258 717 l 245 717 l 245 711 q 250 707 246 707 l 263 707 l 263 714 l 258 714 q 260 722 260 719 l 263 722 q 269 707 265 707 l 263 696 q 266 694 266 696 q 253 686 261 694 q 245 694 253 694 l 245 696 l 260 696 q 263 704 260 699 l 250 704 q 245 696 245 704 l 243 696 l 243 704 l 235 704 q 230 699 230 703 l 230 696 l 235 696 q 224 684 224 685 l 214 688 q 212 671 212 686 l 210 671 q 202 681 210 681 l 197 681 l 197 676 l 202 676 q 197 671 202 671 l 191 673 l 194 678 l 191 684 l 199 688 q 207 686 204 686 l 207 691 l 199 691 l 199 694 q 222 711 204 694 l 222 707 l 227 707 l 227 711 l 230 711 l 230 707 l 240 707 l 240 711 l 230 711 l 230 714 l 235 714 l 235 720 l 230 720 l 230 722 m 335 722 l 345 722 l 345 720 l 335 720 l 335 722 m 299 720 l 332 711 l 332 709 l 327 709 q 299 720 299 713 m 74 717 l 97 717 l 97 714 q 84 709 92 714 q 74 714 84 714 l 74 717 m 279 714 l 281 714 q 286 709 286 713 l 283 709 q 279 714 279 709 m 378 714 l 383 714 l 383 711 l 378 711 l 378 714 m 41 711 l 43 711 l 43 699 l 41 699 l 41 711 m 345 711 l 358 711 l 358 709 l 345 709 l 345 711 m 360 711 l 368 711 l 368 709 l 360 709 l 360 711 m 286 709 l 289 709 q 307 701 298 701 l 307 699 l 304 699 q 276 701 290 701 l 276 704 q 286 709 286 704 m 33 696 l 35 691 l 28 691 q 33 696 28 696 m 325 696 l 342 696 l 342 694 l 325 694 l 325 696 m 266 694 l 279 694 l 279 691 l 266 691 l 266 694 m 281 691 l 289 691 l 289 688 l 281 688 l 281 691 m 54 688 l 54 684 l 48 684 q 54 688 49 688 m 92 688 q 127 663 111 663 q 87 625 94 625 q 61 650 87 628 l 77 673 q 74 681 74 678 l 81 681 l 87 678 l 90 684 q 87 686 87 684 l 92 688 m 186 688 l 186 686 q 181 681 186 681 l 179 681 q 186 688 179 684 m 240 688 q 245 684 245 688 q 240 678 240 683 l 240 665 l 263 668 l 263 658 l 256 658 l 248 663 l 237 663 l 237 653 q 256 640 254 648 q 248 632 256 636 q 217 650 217 645 q 233 661 230 650 l 217 661 l 217 663 l 233 663 l 233 665 l 227 678 l 240 688 m 291 688 l 296 688 l 296 686 l 291 686 l 291 688 m 296 686 l 304 686 l 304 684 q 296 681 301 684 l 296 686 m 10 681 l 15 681 l 15 678 l 10 678 l 10 681 m 289 681 l 294 681 l 294 678 l 289 678 l 289 681 m 283 678 l 289 678 l 289 676 l 283 676 l 283 678 m 186 676 q 191 663 186 663 q 199 658 199 663 l 191 658 l 186 661 q 181 655 186 655 l 176 658 q 184 665 176 665 l 184 668 l 181 673 l 186 676 m 276 676 l 283 676 l 283 673 l 276 673 l 276 676 m 271 673 l 276 673 l 276 671 l 271 671 l 271 673 m 74 658 l 79 655 q 84 661 84 655 l 79 663 q 74 658 74 662 m 90 655 l 94 653 q 100 658 100 653 l 94 661 q 90 655 90 660 m 174 663 q 199 635 177 635 l 204 635 q 210 642 210 635 l 212 642 q 217 637 217 642 q 210 612 210 630 l 207 612 l 204 625 l 181 622 q 161 627 162 627 l 161 620 q 140 635 150 635 q 174 663 140 637 m 110 658 l 107 653 l 113 650 l 115 655 l 110 658 m 133 661 l 135 661 l 135 655 l 133 655 l 133 661 m 58 645 l 90 617 l 97 622 l 97 620 q 92 609 92 613 l 51 635 q 58 645 55 645 m 258 632 l 260 632 l 260 627 q 233 597 259 597 l 224 597 l 224 599 q 253 630 250 599 l 258 632 m 45 630 q 87 604 83 604 q 84 597 84 600 q 41 617 43 610 q 45 630 45 625 m 125 630 l 127 630 l 127 625 l 125 625 l 125 630 m 138 622 l 146 622 l 146 614 q 140 609 146 609 q 133 617 137 609 q 138 622 134 622 m 194 614 l 197 614 l 197 609 l 189 609 q 194 614 190 614 m 210 612 l 212 612 l 212 607 l 210 607 l 210 612 m 35 607 l 38 607 q 79 589 76 589 q 74 568 74 581 l 38 568 q 25 584 25 576 q 38 599 28 594 l 35 604 l 35 607 m 214 604 l 220 604 l 220 602 l 214 602 l 214 604 m 220 602 l 224 602 l 224 599 l 220 599 l 220 602 m 133 584 l 140 584 l 143 574 l 143 571 l 140 571 q 133 584 140 575 m 125 581 l 127 576 l 127 568 l 120 568 l 120 576 q 125 581 121 581 m 20 571 l 23 571 q 35 561 34 561 l 74 561 l 61 545 l 61 543 q 102 525 85 543 l 102 522 l 100 522 q 74 532 81 532 l 66 532 q 61 541 66 541 l 58 535 q 61 532 58 532 l 58 528 q 61 519 61 522 l 58 519 l 61 515 l 61 509 q 56 505 61 505 q 38 522 56 508 l 41 528 q 35 532 41 532 l 15 532 q -13 548 -5 532 l -13 555 q -3 566 -13 559 q 2 561 -2 561 q 5 568 5 566 l 7 568 l 20 566 l 20 571 m 158 564 l 163 555 l 163 548 q 156 541 163 546 q 138 543 146 543 q 148 551 138 547 l 158 545 l 158 551 l 148 561 l 158 564 m 127 561 l 127 555 q 110 545 110 555 l 107 545 l 107 555 q 127 561 123 561 m 220 558 q 258 532 243 558 l 250 528 q 217 551 240 551 q 179 532 203 551 l 168 532 q 220 558 168 543 m -5 553 l -5 548 l 12 545 l 15 545 l 15 553 l -5 553 m 110 545 l 117 545 q 135 535 131 545 l 135 532 q 110 541 125 541 l 110 545 m 48 530 l 45 525 l 54 519 l 56 525 l 48 530 m 7 525 l 31 525 q 51 502 31 517 q 45 443 45 474 l 45 433 q 48 431 45 431 l 45 425 l 45 415 q 61 418 59 418 l 68 418 l 68 415 l 58 415 l 64 408 l 58 405 l 58 410 l 48 410 l 48 405 q 56 399 56 405 q 31 374 53 399 l 31 372 q 64 333 57 345 l 68 330 q 110 343 110 336 l 110 346 l 113 346 l 113 320 q 120 315 113 315 l 107 300 l 102 302 l 100 302 l 100 292 l 102 292 l 107 295 l 110 290 l 110 264 l 117 254 q 110 226 110 249 l 102 231 l 104 236 l 104 241 q 97 249 104 245 l 97 243 q 100 236 100 239 l 68 264 q 45 241 68 261 q 25 287 35 252 q 38 300 28 287 q 5 333 35 300 q 10 338 10 333 l 10 343 q -13 333 -13 339 q -33 313 -13 330 l -46 313 l -46 315 l -41 315 l -41 320 l -52 320 l -72 305 l -72 310 q -54 326 -66 326 l -54 333 q -62 346 -60 333 l -64 346 q -41 369 -64 349 q -26 338 -41 354 q -8 343 -16 343 l -8 356 q -18 372 -18 356 q 0 389 -18 382 l 0 385 l 2 385 l 2 392 l 0 392 l 2 397 l 0 410 q 38 451 3 410 q 5 499 12 469 l 7 525 m 163 525 l 168 525 l 168 522 q 153 486 153 505 q 146 492 146 489 q 163 525 153 521 m 113 522 q 130 489 130 500 q 135 512 135 489 l 138 512 q 140 484 138 498 l 130 476 q 107 517 130 491 q 113 522 108 522 m 230 519 l 233 519 q 220 494 220 506 q 207 507 216 494 q 230 519 220 519 m 258 519 q 266 505 266 517 q 256 489 266 494 l 250 489 q 258 519 258 497 m 202 502 q 227 476 205 502 l 210 476 q 199 494 199 481 q 202 502 202 499 m 233 494 q 237 479 233 490 l 235 479 q 222 492 231 479 q 233 494 228 492 m 104 492 q 127 476 115 492 l 130 476 q 123 469 130 473 q 110 484 123 477 l 104 484 l 104 481 q 115 464 115 470 q 87 479 98 479 q 104 492 90 492 m 286 486 l 296 486 l 299 474 l 299 471 q 281 446 299 455 l 263 446 q 253 464 253 450 l 253 474 l 256 474 q 260 466 256 466 l 263 466 q 286 484 286 474 l 286 486 m 2 481 l 5 481 q 28 451 5 467 q -3 418 28 444 q -16 443 -16 437 l -10 446 q -5 435 -10 435 l 0 435 l 0 438 q 2 481 0 446 m 148 481 l 153 474 l 153 466 l 151 448 l 153 448 q 171 456 163 456 q 179 448 175 456 l 163 441 q 161 446 163 446 q 133 431 152 446 l 133 433 q 146 481 138 444 l 148 481 m 237 479 l 245 479 q 240 474 245 474 l 237 479 m 135 469 q 130 446 130 450 l 127 446 q 125 461 127 457 l 135 469 m 235 469 q 243 466 240 466 q 214 433 239 433 q 233 446 214 441 l 235 451 l 235 453 q 230 458 235 458 q 210 438 210 448 l 207 438 l 207 448 q 235 469 226 469 m 90 456 q 117 433 102 456 l 115 420 l 113 420 q 79 448 113 441 q 68 446 75 446 q 90 456 68 452 m 117 453 l 120 453 l 120 443 l 117 443 l 117 453 m -69 451 l -64 451 l -64 446 q -69 451 -69 446 m 66 446 l 68 446 l 68 441 l 66 441 l 66 446 m 56 441 q 58 433 56 438 l 54 431 l 51 435 q 56 441 52 441 m 77 441 l 84 441 q 104 415 104 431 l 97 389 q 90 397 93 389 q 100 415 100 397 q 77 438 94 438 l 77 441 m 161 441 l 163 441 q 146 415 153 418 l 138 425 l 161 441 m -21 438 l -18 438 l -18 431 l -21 431 l -21 438 m -31 431 q -8 408 -28 431 q -41 376 -31 408 l -43 376 l -66 402 q -62 408 -62 402 l -56 405 q -43 428 -43 418 l -39 425 l -31 425 l -31 431 m 133 418 q 143 408 137 418 q 125 397 125 402 l 125 395 q 143 392 133 395 l 143 387 l 127 387 q 104 379 123 387 l 104 385 l 117 389 l 117 395 l 115 399 q 133 418 117 399 m 68 402 q 74 397 68 397 l 74 395 q 61 374 68 395 q 54 369 58 369 l 54 363 q 66 359 64 359 l 66 346 q 38 374 63 346 q 56 389 55 389 q 58 387 56 387 q 68 402 64 402 m 81 397 q 90 389 81 389 l 90 382 q 74 374 83 382 l 71 374 q 77 389 77 382 l 74 395 q 81 397 77 395 m -79 392 l -75 392 l -75 389 l -79 389 l -79 392 m -69 389 l -62 389 l -49 374 q -66 356 -49 370 l -69 356 l -66 369 q -87 376 -79 376 l -87 379 l -79 379 l -66 376 l -64 382 l -64 387 l -69 387 l -69 389 m -105 382 l -90 382 l -90 379 l -105 379 l -105 382 m 100 379 l 100 376 q 97 369 97 372 q 90 372 92 372 q 100 379 90 375 m 81 369 l 87 369 l 87 366 l 81 366 l 81 369 m 66 366 q 77 363 71 363 l 77 361 q 66 359 68 359 l 66 366 m 77 366 l 81 366 l 81 363 l 77 363 l 77 366 m -100 363 l -75 363 l -75 359 q -100 361 -75 361 l -100 363 m -5 353 l -5 349 l 2 349 q 7 353 7 349 l 7 356 l -5 353 m 100 356 l 102 356 l 102 341 l 100 341 l 100 356 m 207 356 l 214 356 l 233 353 l 233 351 q 222 341 233 347 q 207 356 218 341 m 199 353 q 222 330 199 350 q 235 343 222 334 l 235 341 q 233 338 235 338 l 235 326 l 235 320 q 214 310 235 315 l 184 315 l 181 315 l 181 313 q 191 302 187 313 l 189 290 l 227 290 q 260 323 260 298 q 243 336 257 336 l 243 338 l 253 338 q 266 328 264 333 l 266 323 q 217 285 266 285 q 194 287 203 287 l 189 287 l 176 285 l 189 300 q 168 320 186 300 q 174 326 170 326 l 204 326 q 210 330 210 326 l 210 333 q 204 338 210 338 l 176 338 q 168 346 172 338 l 168 349 q 199 353 182 349 m -18 351 l -16 351 l -16 346 l -18 346 l -18 351 m 161 338 q 168 336 165 336 l 168 333 q 161 330 165 333 l 158 336 q 161 338 161 336 m 97 323 l 94 323 l 94 328 l 90 328 l 90 320 l 100 318 l 107 328 l 107 330 l 102 330 q 97 323 97 330 m -3 330 l 28 297 q 23 292 28 292 q 7 305 20 305 l 7 300 l 10 295 q -3 285 7 295 l -5 285 q -13 305 -10 285 l -23 308 l -23 310 q -3 330 -23 313 m 58 326 q 81 300 58 316 l 71 300 l 71 305 l 66 305 l 66 300 l 71 300 l 68 295 q 71 292 71 295 l 77 295 l 81 292 l 81 300 l 92 292 l 94 292 l 94 295 l 87 308 l 97 308 l 97 310 q 92 315 97 315 l 87 313 q 74 320 87 319 l 74 323 l 79 323 l 79 328 q 58 326 65 326 m 143 328 q 153 315 150 327 q 138 297 148 297 l 138 295 q 156 285 138 292 l 158 274 l 146 264 l 127 285 l 135 295 l 127 295 q 140 326 138 304 q 143 328 143 326 m 294 315 q 330 295 313 315 l 325 292 q 296 310 325 300 q 273 305 292 310 q 294 315 273 313 m 130 313 l 130 310 q 125 305 130 305 l 125 308 q 130 313 126 313 m 81 310 l 87 310 l 87 308 l 81 308 l 81 310 m 163 310 l 166 310 q 179 297 170 310 q 168 287 179 294 q 158 292 168 292 l 158 295 l 163 295 l 161 300 q 163 310 163 304 m 120 305 l 125 305 l 125 302 l 120 302 l 120 305 m 10 295 l 15 295 l 15 292 l 10 292 l 10 295 m 15 292 l 20 292 l 20 290 l 15 290 l 15 292 m 335 290 l 340 267 l 340 249 l 337 249 q 330 287 337 278 l 335 290 m 97 279 l 97 259 l 102 259 l 104 272 l 104 285 l 102 285 q 97 279 97 283 m 87 282 l 87 269 q 94 249 87 250 l 94 269 l 92 282 l 87 282 m 230 272 l 240 272 q 250 256 250 267 q 243 246 246 246 q 222 267 239 246 l 230 272 m 166 264 q 179 252 170 264 q 166 241 175 252 l 156 254 q 166 264 156 258 m 71 254 q 104 220 75 254 l 77 195 q 51 231 73 195 l 51 233 q 71 254 51 237 m 220 254 l 222 254 q 233 243 227 254 l 230 243 q 220 254 226 243 m 335 249 l 337 249 l 337 241 l 335 241 l 335 249 m 214 246 q 224 233 218 246 q 199 216 224 219 q 197 213 199 213 l 189 223 l 214 246 m 283 241 q 299 233 299 239 l 299 231 q 291 213 291 222 q 309 200 291 211 l 307 185 q 299 187 304 185 l 286 185 l 286 190 l 289 203 l 283 205 q 276 193 276 197 l 271 193 l 253 197 q 266 218 259 212 q 283 213 276 213 l 283 220 q 273 231 273 220 q 283 241 276 241 m 335 241 l 335 239 q 330 233 335 233 l 330 236 q 335 241 330 241 m 18 236 q 28 223 28 224 l 15 213 q 5 223 11 213 q 18 236 5 227 m 138 236 q 148 223 148 224 q 138 213 148 219 l 135 213 q 125 223 132 213 q 138 236 125 227 m 330 233 l 330 231 q 325 226 330 226 l 322 226 q 330 233 322 229 m 314 223 l 319 223 l 319 220 l 314 220 l 314 223 m 113 220 l 143 185 l 120 164 q 87 182 87 179 q 79 190 83 182 l 113 220 m 307 220 l 314 220 l 314 218 l 307 218 l 307 220 m 302 218 l 307 218 l 307 216 l 302 216 l 302 218 m -13 205 q -3 193 -3 194 l -16 182 q -28 195 -16 184 q -13 205 -23 195 m 45 205 l 56 193 q 45 182 56 189 q 33 195 42 182 q 45 205 44 205 m 168 205 q 179 193 179 194 l 166 182 q 156 193 162 182 q 168 205 156 196 m 227 205 q 233 200 233 204 q 222 190 233 196 q 217 195 217 190 q 227 205 217 199 m 148 180 l 179 146 q 151 118 179 143 q 117 149 117 145 q 148 180 117 153 m -43 174 q -33 164 -40 174 q -46 151 -33 161 l -56 164 l -43 174 m 12 174 l 15 174 q 28 162 18 174 l 23 159 q 12 174 23 164 m 197 174 q 210 162 200 174 l 197 151 q 184 164 193 151 l 197 174 m 258 174 q 271 162 262 174 q 258 151 267 162 q 245 164 254 151 l 258 174 m 7 167 q 20 154 11 167 l 15 151 q 2 164 12 151 l 7 167 m 94 162 l 97 162 l 97 151 l 94 151 l 94 162 m 102 159 q 110 157 107 157 l 110 154 l 104 146 l 110 139 l 110 116 l 113 98 l 102 96 l 102 159 m -13 146 l -3 134 q -13 123 -3 130 q -26 136 -16 123 l -13 146 m 191 146 q 217 134 208 134 q 227 144 217 138 q 240 131 231 144 q 233 123 237 131 l 233 121 q 378 70 344 70 l 378 67 q 366 50 368 50 q 327 70 366 61 q 283 50 312 70 q 256 64 256 60 q 263 73 259 64 l 220 113 l 199 90 q 158 113 164 112 q 191 146 158 117 m 41 139 l 41 129 q 33 131 36 131 q 41 139 33 135 m 54 134 l 58 134 q 54 129 58 129 l 54 134 m 18 116 q 28 103 28 104 q 15 90 28 100 l 5 103 q 18 116 5 106 m 77 116 q 87 103 87 104 l 87 100 l 84 100 q 71 113 81 100 l 77 116 m 135 113 q 148 106 144 106 l 148 103 q 135 90 148 100 q 130 100 130 96 q 135 113 135 109 m 68 103 l 71 103 q 79 96 75 103 q 74 90 79 90 q 68 100 74 94 l 68 103 m 222 103 q 256 70 226 103 l 248 64 q 207 87 207 83 q 222 103 207 92 m 163 85 l 166 85 q 171 80 171 84 q 156 70 166 80 l 153 75 q 163 85 163 79 m 51 83 l 58 73 l 45 62 l 38 73 l 51 83 m 110 83 q 120 75 110 75 q 113 67 120 71 q 104 80 113 72 l 110 83 m 100 77 l 104 70 l 100 67 l 94 75 l 100 77 m 389 67 q 522 50 462 50 l 529 50 l 529 44 q 511 14 511 22 l 509 14 l 509 28 l 511 34 q 506 39 506 34 q 483 16 483 36 l 483 14 l 475 18 q 460 8 465 8 q 406 14 450 8 l 406 21 q 404 44 406 31 q 406 57 406 48 l 401 60 q 380 34 380 50 l 380 31 l 383 18 q 368 34 368 20 l 389 67 m 77 54 q 81 50 81 54 q 71 39 81 45 q 66 44 66 39 q 77 54 66 48 m 135 54 q 146 44 139 54 q 135 31 140 33 q 125 44 135 33 q 135 54 125 48 m 322 54 l 332 54 q 363 24 363 48 q 302 41 305 41 l 302 47 q 322 54 317 54 m 396 47 q 399 18 399 24 l 396 18 q 389 34 389 21 q 396 47 390 47 m 526 31 l 529 31 l 529 3 l 516 3 q 526 31 516 7 m 501 28 l 501 24 l 498 6 l 493 6 l 493 26 q 501 28 496 26 m 100 18 q 115 8 115 13 l 104 1 l 94 14 q 100 18 95 18 m 483 14 l 486 14 l 486 6 l 483 6 l 483 14 m 506 14 l 509 14 l 509 6 l 506 6 l 506 14 z "},"D":{"ha":575,"x_min":-157,"x_max":773,"o":"m 109 895 l 112 895 q 125 882 112 882 l 125 879 q 115 864 115 879 q 106 871 113 864 l 99 871 q 102 879 102 876 q 96 884 96 879 q 109 895 109 884 m 12 877 l 24 877 l 24 874 l 7 864 l 4 869 q 12 877 4 873 m 9 861 l 58 861 l 58 859 q 47 838 58 849 l 47 833 q 66 820 54 820 l 66 818 l 47 818 l 47 787 q 53 782 49 782 q 58 795 58 782 l 60 795 l 63 784 l 68 784 l 73 787 l 73 782 l 68 782 l 68 779 l 71 766 l 63 772 l 58 772 l 58 764 l 56 764 q 50 769 50 764 q 56 772 56 769 q 53 779 53 777 l 47 779 l 47 749 q 30 772 35 754 q 37 792 30 774 q 35 795 35 792 q 24 789 24 793 l 20 792 q 4 784 4 789 l 7 779 l 4 779 l -12 782 q -16 777 -16 781 l -12 769 q -14 759 -14 764 q 1 753 -8 753 l -3 746 l -3 743 l 1 736 l -3 728 q 33 707 -3 715 l 33 705 q 12 694 12 705 l 7 697 l 4 697 l -16 679 l -19 690 q -22 687 -22 690 l -26 690 l -37 684 q -50 694 -37 688 l -47 700 q -50 710 -50 704 q -47 713 -47 710 l -70 730 q -62 751 -70 738 q -70 761 -70 751 l -65 761 l -60 759 q -58 766 -60 762 q -60 769 -60 766 q -52 779 -52 769 l -47 777 l -47 779 q -50 782 -50 779 q -42 787 -42 782 l -47 795 q -55 789 -55 792 q -62 792 -60 792 l -60 797 l -60 800 l -62 805 q -52 815 -58 805 q -55 818 -55 815 l -50 820 q -42 810 -46 810 q -39 812 -39 810 q -24 807 -31 807 l -24 805 l -35 805 q -37 807 -37 805 q -45 805 -42 805 l -45 797 l -39 797 l -42 792 l -35 787 l -32 792 q -37 797 -37 792 q -19 795 -26 795 l -22 789 l -14 784 l -12 784 l -6 787 q -3 784 -6 784 l -1 789 l -3 795 q 9 802 9 796 q 1 807 9 807 l 1 810 q 14 815 14 810 q 1 823 14 821 l 1 825 q 4 828 1 828 l 1 833 l 1 838 q 17 841 13 838 q 22 830 17 830 l 24 830 q 30 836 30 830 q 20 843 30 840 q 17 841 20 841 l 9 861 m 66 861 l 73 861 l 73 859 q 68 854 73 854 l 66 854 l 66 861 m 81 861 l 86 859 l 104 859 l 122 856 l 122 854 q 115 848 115 854 q 119 843 115 843 q 132 856 123 843 q 158 854 141 854 l 151 843 q 153 841 153 843 q 151 838 151 841 l 165 823 q 168 825 165 825 q 155 843 168 828 l 165 851 q 201 846 200 846 l 199 841 q 222 818 222 833 l 222 810 q 212 795 222 795 q 174 815 178 795 q 168 820 174 820 q 163 815 168 815 q 142 838 157 827 q 140 836 142 836 q 145 820 142 820 q 142 810 142 816 l 130 812 l 119 812 l 122 807 l 119 807 q 112 810 115 810 l 104 810 q 81 828 104 813 q 71 836 81 834 l 79 848 q 76 851 76 848 q 81 861 81 851 m 130 848 l 127 843 l 138 838 l 140 843 l 130 848 m 56 838 l 60 838 l 60 833 l 56 833 l 56 838 m 222 838 l 224 838 q 256 820 256 831 q 296 782 256 804 l 304 766 q 296 764 299 764 q 222 789 262 777 q 230 807 230 799 l 230 818 q 222 838 230 825 m 263 825 l 338 795 l 338 792 q 307 777 328 792 q 266 810 303 790 q 263 825 266 812 m -16 823 l -9 823 l -9 820 l -16 820 l -16 823 m 151 815 l 153 815 q 158 810 158 814 l 158 807 l 151 807 l 151 815 m -85 797 l -81 797 l -81 795 l -85 795 l -85 797 m -14 797 l -3 797 l -3 795 l -14 795 l -14 797 m -70 795 q -62 792 -65 792 l -62 789 l -73 787 l -75 787 l -75 789 q -70 795 -70 789 m -93 789 l -93 784 l -98 784 q -93 789 -98 789 m -78 787 l -75 787 q -83 779 -75 783 l -85 779 q -78 787 -85 783 m -42 779 q -32 777 -37 777 l -32 774 q -45 769 -45 774 q -29 764 -36 764 l -29 761 q -42 756 -42 761 q -32 751 -36 751 l -32 749 q -39 743 -39 749 q -32 738 -39 738 l -32 736 q -39 730 -39 736 q -24 720 -39 726 l -22 725 l -24 730 q -16 736 -16 730 l -16 738 l -22 746 q -19 753 -19 751 q -29 759 -25 759 l -29 761 q -22 766 -22 761 q -29 774 -22 768 q -26 782 -26 779 l -32 784 l -37 784 q -42 779 -42 783 m 102 787 l 109 787 q 125 779 125 785 q 106 772 113 779 q 102 784 106 784 l 102 787 m 348 787 q 496 659 431 747 q 507 656 503 659 l 512 659 q 576 620 545 659 q 589 587 584 605 l 586 587 l 589 582 l 589 569 l 581 569 l 581 572 q 530 641 581 620 q 507 646 513 646 l 504 646 q 543 551 541 580 q 502 528 530 549 q 476 602 502 549 q 491 628 491 611 q 445 669 491 658 l 430 684 q 425 677 425 684 l 422 677 q 376 720 376 716 l 374 730 q 378 749 374 735 q 322 769 366 749 l 312 769 q 348 787 312 777 m -98 784 l -98 782 q -104 777 -98 777 l -104 779 q -98 784 -102 784 m -85 779 l -85 774 l -91 774 q -85 779 -90 779 m -109 774 l -106 774 l -106 769 l -109 769 l -109 774 m -91 774 l -91 769 l -96 769 q -91 774 -95 774 m -111 769 l -109 769 l -109 764 l -111 764 l -111 769 m -114 764 l -111 764 l -111 759 l -114 759 l -114 764 m -101 764 l -98 764 l -98 759 q -101 751 -101 753 l -104 751 l -104 756 q -101 764 -101 761 m 307 761 l 319 761 q 361 743 323 761 l 368 743 q 366 725 366 733 l 307 761 m 58 759 q 63 751 63 759 l 71 751 l 68 756 l 76 756 l 76 753 l 71 746 l 76 736 l 73 736 q 66 738 68 738 q 63 736 66 736 q 50 749 63 737 q 58 756 58 749 l 58 759 m -117 756 l -114 756 l -114 751 l -117 751 l -117 756 m 22 753 l 30 753 l 30 751 l 22 751 l 22 753 m 92 753 l 99 753 l 99 743 l 92 743 l 92 753 m -106 751 l -104 751 l -104 718 l -106 718 l -106 751 m -55 743 l -58 738 l -52 736 l -50 741 l -55 743 m 115 746 q 119 741 119 745 l 115 741 l 115 746 m -119 743 l -117 743 q -98 684 -117 705 l -98 682 l -109 690 q -111 682 -111 684 q -119 684 -116 684 l -119 743 m 17 738 l 22 738 l 22 736 l 17 736 l 17 738 m -32 736 l -26 736 l -26 733 l -32 733 l -32 736 m 22 736 l 24 736 q 47 730 44 730 l 47 723 q 22 733 36 729 l 22 736 m 117 733 l 125 733 q 122 730 125 730 l 125 725 l 125 720 l 117 725 l 109 720 l 109 725 q 117 733 109 729 m -81 728 l -75 728 l -75 725 l -81 725 l -81 728 m 12 723 l 17 723 l 17 720 l 12 720 l 12 723 m 17 720 l 22 720 l 22 718 l 17 718 l 17 720 m 178 720 q 189 713 189 716 l 189 705 q 181 697 189 701 l 176 697 l 174 710 l 174 715 q 178 720 174 720 m 24 718 l 30 718 l 30 715 l 24 715 l 24 718 m -104 715 l -101 715 l -101 710 l -104 710 l -104 715 m -101 710 q -91 692 -97 710 l -96 692 l -101 710 m 45 710 q 83 692 83 699 l 83 690 q 81 692 81 690 l 76 690 l 68 690 l 66 700 l 53 697 q 45 702 53 702 l 45 710 m 766 710 l 773 710 q 771 702 771 705 q 766 707 766 702 l 766 710 m 758 705 q 763 690 763 700 q 732 671 739 671 q 755 705 737 694 l 758 705 m 22 697 l 24 697 q 66 679 31 697 q 73 674 73 679 q 71 664 71 669 q 50 682 67 664 l 50 677 q 22 697 22 695 m -47 690 l -45 684 q -50 679 -50 684 l -50 677 l -45 677 l -45 674 l -52 664 l -52 661 l -47 661 l -47 659 l -52 659 q -60 661 -57 661 q -58 664 -60 664 l -60 669 l -60 671 l -52 682 q -55 684 -55 682 l -47 690 m 4 690 l 4 687 l 9 690 q 12 687 12 690 l 17 690 q 35 682 26 682 q 33 679 35 679 l 35 674 l 35 656 q 20 641 35 652 l 20 644 q 7 635 7 640 q 24 612 24 627 q 1 587 24 587 q -6 589 -3 589 l 1 600 l 1 610 l -3 618 l 1 618 l 1 633 q -22 610 -15 612 l -24 610 q -29 628 -24 622 q -24 633 -24 628 l -24 638 q -35 648 -30 638 q -29 654 -29 648 l -24 651 l -16 656 q -9 648 -16 652 l -6 648 q 1 659 -6 652 l -1 671 l -9 667 l -12 667 l -12 671 q 1 679 1 673 q -1 687 -1 684 l 4 690 m 99 690 l 104 690 q 117 674 104 684 l 112 671 l 109 671 l 96 674 q 99 690 99 678 m -111 682 l -109 682 l -109 677 l -111 677 l -111 682 m -22 679 l -16 679 q -22 674 -16 674 l -22 679 m -119 671 l -117 671 l -117 667 l -119 667 l -119 671 m 427 671 l 430 671 q 479 646 436 665 q 484 628 479 641 q 473 610 479 610 l 471 610 q 456 633 471 617 l 437 620 q 433 628 437 628 q 420 608 429 628 l 407 605 q 448 646 407 611 l 427 671 m 43 669 q 47 664 47 668 l 47 654 q 43 659 43 654 l 43 669 m -16 667 l -12 667 l -12 664 l -16 664 l -16 667 m 122 667 q 125 664 122 664 l 122 659 q 125 651 125 654 q 104 638 104 641 l 104 631 l 109 631 l 109 628 l 104 628 l 106 615 q 94 608 97 608 l 94 602 q 102 597 102 602 q 89 587 100 592 q 73 592 73 589 q 79 608 79 600 l 79 610 q 66 631 67 623 l 68 631 q 81 620 79 620 q 96 635 85 620 l 96 638 q 79 651 90 638 l 79 656 q 122 667 79 661 m -117 664 l -114 664 l -114 659 l -117 659 l -117 664 m -26 664 l -22 664 l -22 661 l -26 661 l -26 664 m -14 661 l -12 661 l -12 656 l -14 656 l -14 661 m -114 659 l -111 659 l -111 654 l -114 654 l -114 659 m 63 659 q 71 654 63 654 l 66 641 q 53 651 54 646 l 63 659 m -68 648 l -65 648 l -65 628 l -68 628 l -68 648 m 37 646 l 40 646 q 60 631 60 634 q 53 620 54 631 q 30 641 30 639 l 37 646 m -83 628 l -78 628 l -78 615 q -83 610 -78 610 l -85 610 q -91 615 -91 610 q -83 628 -85 615 m 30 625 q 47 610 41 621 l 47 592 q 30 625 30 605 m -68 618 l -65 618 l -65 610 l -68 610 l -68 618 m -47 618 l -39 618 q -45 612 -39 612 l -47 618 m 707 618 l 707 615 q 701 610 707 610 l 701 612 q 707 618 703 618 m 701 610 l 701 605 q 678 576 701 602 l 671 576 l 701 610 m -119 608 l -117 608 l -117 600 l -119 600 l -119 608 m -37 608 l -35 608 q 12 549 -22 584 l 14 553 q -1 576 14 556 l -1 579 q 14 582 11 579 q 33 564 14 578 l 35 569 l 22 585 q 33 597 29 597 q 47 582 33 593 q 53 587 53 582 q 50 589 50 587 l 58 595 l 66 585 q 58 579 58 585 l 58 576 l 60 576 l 66 579 q 81 559 66 568 l 83 559 q 96 572 85 572 l 96 574 l 92 582 q 104 587 98 582 q 109 572 104 580 l 99 572 l 99 559 l 96 559 l 96 556 q 99 553 96 553 q 96 551 99 551 l 99 538 q 71 497 81 497 l 71 500 q 60 492 60 496 l 50 497 l 47 492 l 47 446 l 53 446 l 47 438 l 47 431 l 94 431 l 94 428 q 89 418 89 428 l 66 418 l 47 412 l 47 392 q 56 395 53 395 l 56 397 l 50 405 q 83 410 76 410 l 99 408 q 138 415 138 411 q 151 410 146 410 q 135 389 151 407 l 135 387 q 138 385 138 387 l 127 385 l 130 389 l 130 397 q 119 408 130 401 l 115 408 q 104 397 111 408 l 106 385 q 99 387 102 387 l 102 392 l 102 397 q 83 408 98 408 q 76 399 83 406 l 79 395 q 76 387 76 389 q 89 382 82 382 l 79 363 l 58 363 l 56 351 l 56 343 l 66 340 l 66 338 l 63 338 q 47 343 59 338 l 47 317 q 50 315 47 315 l 47 310 l 47 274 q 1 258 41 274 q -9 302 1 290 q -6 310 -6 307 l -3 310 l -1 292 l 1 292 l 1 323 q -1 326 1 326 l 1 330 l 1 336 q -1 338 1 338 l 1 343 l 1 346 l -3 343 q -6 351 -3 346 l -3 351 l 1 349 l 1 359 q -3 363 1 363 l -6 363 q -47 346 -11 363 l -62 346 q -68 336 -62 336 l -70 336 l -65 343 l -65 346 q -73 349 -68 346 q -78 343 -73 343 q -91 351 -78 351 l -88 356 l -93 356 l -93 359 l -81 361 l -83 356 l -83 353 l -81 353 q -68 363 -68 360 l -68 366 q -73 372 -68 372 l -78 372 q -98 363 -85 372 l -98 369 q -114 366 -100 369 l -127 372 q -129 363 -127 369 q -127 361 -127 363 l -132 361 l -140 366 q -155 363 -141 366 l -157 363 l -157 366 q -137 382 -145 366 l -132 385 l -127 376 q -129 374 -129 376 l -124 374 q -119 387 -119 374 l -121 387 l -121 389 l -109 389 l -109 395 l -127 395 l -127 397 l -101 397 q -88 405 -101 404 l -88 408 l -91 412 l -88 412 l -81 408 q -42 412 -62 412 q -16 408 -26 408 l 1 412 l 1 418 l -6 418 l -6 420 q 1 425 1 420 l 1 433 q -1 435 1 435 l 1 441 l 1 448 q -1 451 1 451 l 1 456 l 1 461 q -1 464 1 464 l 1 469 l 1 549 q -12 562 1 552 q -16 556 -12 556 q -39 597 -26 583 q -37 608 -37 602 m -98 605 l -98 597 q -104 592 -98 592 l -104 600 q -98 605 -102 605 m -55 605 l -52 605 l -52 600 l -55 600 l -55 605 m -109 597 l -109 587 q -117 585 -111 587 l -117 595 q -109 597 -113 595 m -68 597 l -65 597 l -65 585 l -68 585 l -68 597 m 404 597 l 414 597 l 407 576 l 409 576 l 404 564 l 407 564 l 404 559 l 404 546 l 407 541 l 404 541 q 389 553 393 553 l 394 572 l 391 572 l 399 587 l 397 587 q 404 597 400 597 m 658 595 l 661 595 l 655 585 q 658 582 658 585 q 637 576 645 576 q 658 595 637 581 m 66 585 l 71 585 l 71 579 l 66 579 l 66 585 m -111 579 l -109 579 l -109 569 l -111 569 l -111 579 m 668 572 l 668 566 q 643 541 643 552 l 619 541 l 619 543 q 632 569 619 569 q 668 572 654 572 m -98 566 l -98 559 l -104 559 l -104 562 q -98 566 -102 566 m 50 562 l 47 556 l 47 517 q 56 513 47 513 q 79 530 71 513 l 81 530 l 81 546 l 76 546 l 76 533 l 73 533 q 50 562 73 543 m -109 562 l -109 556 q -114 551 -109 551 l -117 551 l -117 559 q -109 562 -113 559 m 584 562 l 589 562 q 584 556 589 556 l 584 562 m 109 553 l 112 553 l 112 549 l 109 549 l 109 553 m -98 551 l -98 520 l -101 520 l -104 546 q -98 551 -102 551 m -26 551 l -26 546 l -32 546 q -26 551 -31 551 m 112 546 l 117 546 l 117 541 q 112 546 112 541 m 545 546 q 548 517 548 538 q 509 492 536 513 q 504 520 507 497 q 545 546 520 533 m 391 543 l 394 543 q 399 526 399 527 q 374 505 393 505 l 371 505 l 363 510 l 363 507 q 348 520 353 511 q 363 526 358 526 q 381 520 368 526 q 384 523 381 523 q 389 517 385 517 l 394 517 l 391 523 l 394 523 l 391 528 l 391 543 m -119 541 l -114 541 q -106 513 -113 526 l -109 500 l -109 461 q -83 441 -101 461 l -85 441 l -96 448 l -101 446 q -109 454 -101 450 l -109 451 q -106 448 -109 448 l -109 444 l -109 438 l -106 433 l -117 431 q -132 446 -117 432 l -129 446 l -119 441 l -119 469 q -121 471 -119 471 q -117 517 -117 484 l -117 536 l -119 541 m 66 541 l 66 538 q 58 530 66 534 l 56 530 q 66 541 56 534 m 617 533 l 640 533 l 640 513 q 658 479 640 492 q 676 500 666 480 l 673 505 l 673 515 l 676 515 q 681 487 676 511 q 678 484 678 487 l 681 484 q 617 410 668 461 l 617 415 l 619 428 l 617 428 q 553 379 600 421 l 550 353 q 566 340 555 340 q 591 372 591 357 l 594 372 l 594 366 q 561 328 585 342 q 540 317 540 322 l 535 304 q 545 302 541 304 q 594 340 570 302 l 594 336 q 530 274 582 307 q 473 189 522 267 q 417 138 427 138 q 433 130 420 130 q 440 133 437 133 q 378 105 431 117 q 289 61 369 105 q 109 13 151 13 l 109 0 q 125 5 116 0 l 125 2 l 115 -8 l 122 -18 l 117 -21 l 115 -21 q 109 -13 115 -13 l 104 -13 q 99 -21 104 -21 l 96 -21 l 96 -18 l 102 -11 l 102 -5 q 89 0 89 -5 l 89 2 l 102 0 l 104 0 l 104 13 q 43 5 102 10 l 43 0 l 35 5 q 1 2 33 5 l 1 43 l -3 41 l -3 46 l 1 46 l 1 94 l 4 94 q 47 100 30 94 l 47 51 q 56 54 56 51 l 66 51 l 102 56 l 102 64 l 96 64 q 102 69 97 69 l 106 69 l 104 56 q 138 66 132 62 q 140 64 140 66 q 328 130 262 97 l 328 133 l 319 149 q 322 151 322 149 q 319 153 319 151 l 322 153 l 319 159 q 325 174 321 174 q 319 189 322 189 l 328 228 q 325 231 325 228 q 340 264 329 231 q 363 313 350 275 l 361 317 l 361 330 l 363 336 q 361 338 361 336 q 366 343 366 338 l 363 343 l 366 349 q 342 395 366 369 l 342 397 q 348 410 348 404 q 374 379 362 400 q 371 376 371 379 l 378 372 q 404 408 378 376 q 407 415 404 410 l 404 415 q 409 446 409 427 q 389 494 409 472 l 386 494 l 386 497 q 404 523 404 511 l 407 523 q 420 471 407 517 l 417 471 l 420 467 q 417 464 420 464 l 420 451 l 420 448 l 417 435 l 422 435 l 414 425 l 414 418 l 420 410 q 404 382 414 410 l 407 382 l 391 343 q 394 340 394 343 q 374 300 390 340 q 378 287 378 292 l 391 290 l 394 290 q 430 258 420 290 l 430 254 l 427 254 l 430 248 q 427 241 427 243 l 420 241 q 391 274 415 274 q 342 238 370 274 q 330 189 331 220 l 330 153 q 332 151 330 151 l 330 146 l 330 141 l 332 136 q 453 238 399 168 l 450 243 q 486 302 465 243 q 499 349 499 321 l 499 351 l 496 356 q 499 359 499 356 q 496 361 496 359 q 499 363 499 361 l 496 363 q 507 405 500 395 q 484 420 484 410 l 479 420 l 479 410 l 476 410 q 468 428 476 418 l 471 433 l 496 418 l 496 420 l 509 415 l 509 438 l 504 435 l 499 438 l 499 428 q 507 422 507 428 l 502 422 q 473 441 473 436 l 479 444 l 491 441 l 489 446 q 496 448 494 448 l 509 441 l 509 481 q 553 510 532 504 l 553 507 q 561 446 557 446 q 555 397 555 427 l 563 397 q 614 469 614 429 q 617 471 617 469 l 614 471 l 617 477 l 617 533 m 340 515 q 351 505 344 515 q 328 481 342 505 q 319 479 322 479 l 328 497 l 325 497 q 340 515 326 503 m -42 507 l -37 507 l -37 505 q -39 503 -37 503 l -37 497 l -37 477 l -42 477 l -42 507 m -70 503 l -68 503 q -60 477 -60 482 q -62 469 -62 471 l -65 469 q -70 500 -65 479 l -70 503 m -12 503 l -9 503 l -9 500 q -14 467 -14 479 l -16 467 q -19 481 -16 468 q -12 503 -12 496 m -96 490 l -93 490 l -93 484 l -96 484 l -96 490 m -93 484 q -81 469 -90 484 q -83 461 -83 464 l -85 461 q -93 484 -85 466 m 102 471 l 104 471 l 104 467 l 102 467 l 102 471 m 460 471 l 463 471 l 458 458 q 466 456 460 458 q 484 467 466 461 q 468 448 484 464 q 448 451 466 451 q 460 471 456 471 m -58 469 l -55 469 l -55 464 l -58 464 l -58 469 m -42 469 l -37 469 l -37 467 l -42 467 l -42 469 m -45 467 l -42 467 l -42 446 l -45 446 l -45 467 m -37 467 l -35 467 l -35 444 l -37 444 l -37 467 m 489 464 l 496 464 l 496 461 q 486 451 496 457 l 484 456 q 489 464 489 456 m -62 461 l -60 461 l -60 451 l -62 451 l -62 461 m -55 461 l -52 461 l -52 456 l -55 456 l -55 461 m -19 461 l -16 461 l -16 451 l -19 451 l -19 461 m 245 458 l 253 458 l 253 456 l 245 456 l 245 458 m -52 456 l -50 456 l -50 448 l -52 448 l -52 456 m 184 456 l 199 456 l 199 454 q 176 451 186 454 q 184 456 176 456 m -81 454 l -78 454 l -78 448 l -81 448 l -81 454 m -29 454 l -26 454 l -26 448 l -29 448 l -29 454 m 148 451 l 153 451 q 148 446 153 446 l 148 451 m 210 451 l 214 451 l 214 448 l 210 448 l 210 451 m 563 451 l 568 451 l 568 448 l 563 448 l 563 451 m -137 448 l -132 448 l -132 446 l -137 446 l -137 448 m -3 448 l -1 448 l -1 444 l -3 444 l -3 448 m 53 448 l 58 448 l 58 446 l 53 446 l 53 448 m 435 448 l 437 448 q 435 441 435 444 l 427 441 q 435 448 427 444 m -60 446 l -58 446 l -58 433 q -62 438 -62 433 q -60 446 -60 443 m -50 446 l -45 446 l -45 433 l -47 433 l -50 446 m -29 446 l -29 444 q -32 433 -32 439 l -35 433 l -35 444 l -29 446 m -22 446 l -19 446 l -16 435 l -22 433 l -22 446 m 145 444 l 151 441 q 165 444 164 444 l 168 444 l 168 441 q 151 435 161 441 l 151 438 q 112 418 125 418 q 106 428 112 428 q 145 444 119 439 m 445 444 l 450 444 l 450 441 l 445 441 l 445 444 m -96 441 l -91 441 l -91 435 q -96 441 -96 435 m -73 438 l -70 438 l -68 425 l -75 431 q -73 438 -73 435 m 456 438 q 463 435 460 435 l 463 433 l 445 433 l 445 435 q 456 438 451 435 m -9 435 q -3 431 -3 435 l -12 425 l -12 428 q -9 435 -9 433 m -106 433 l -101 433 l -101 431 l -106 431 l -106 433 m 176 433 l 181 433 l 181 431 l 176 431 l 176 433 m 281 433 q 315 425 315 433 q 304 418 304 424 q 283 422 283 419 q 212 389 245 422 q 189 346 200 378 l 184 343 q 224 412 192 387 q 281 433 254 433 m -101 431 l -96 431 l -96 428 l -101 428 l -101 431 m 201 431 q 212 428 206 428 l 212 425 l 199 425 l 201 431 m -96 428 l -91 428 l -91 425 l -96 425 l -96 428 m 456 428 l 458 428 l 458 420 l 453 422 l 435 420 q 456 428 437 428 m -81 425 l -75 418 l -78 418 q -85 420 -83 420 q -81 425 -85 425 m 325 425 l 325 422 q 317 415 325 419 l 312 415 q 325 425 312 418 m -150 422 l -144 422 q -114 418 -124 418 l -114 415 q -119 410 -119 415 l -150 420 l -150 422 m -104 422 l -98 422 l -98 420 l -104 420 l -104 422 m 178 420 l 176 415 q 178 405 178 410 q 171 402 176 405 l 161 415 l 178 420 m 335 420 q 340 415 340 419 l 340 412 q 330 405 330 411 q 322 408 325 408 q 335 420 322 411 m 463 420 l 466 420 q 476 408 469 420 l 476 399 l 466 397 l 468 402 l 468 410 l 463 418 l 463 420 m 425 418 l 425 412 l 420 412 q 425 418 420 418 m -114 415 l -106 415 l -106 412 l -114 412 l -114 415 m -104 412 l -96 412 l -96 410 l -104 410 l -104 412 m -119 410 l -114 410 l -114 408 l -119 408 l -119 410 m -106 405 l -101 405 l -101 402 l -106 402 l -106 405 m -157 397 q -127 389 -127 395 l -129 389 q -157 392 -152 392 l -157 397 m 47 389 l 47 382 l 58 382 q 73 389 71 382 l 73 392 l 47 389 m 391 387 q 378 366 391 383 l 378 356 l 381 351 q 378 349 378 351 l 384 346 l 386 346 q 389 353 386 349 l 386 353 l 394 372 l 391 372 q 397 387 397 380 l 391 387 m 106 385 l 112 385 l 112 382 l 106 382 l 106 385 m 117 382 l 125 382 l 125 379 l 117 379 l 117 382 m 132 379 l 142 379 l 142 376 l 132 376 l 132 379 m 594 376 l 596 376 l 596 372 l 594 372 l 594 376 m 109 372 q 115 366 115 371 l 109 363 l 106 363 q 109 372 109 369 m 79 363 l 94 363 l 94 359 l 81 356 q 79 363 81 359 m 145 363 l 145 359 l 138 359 l 138 361 q 145 363 140 361 m -109 361 l -104 361 l -104 359 l -109 359 l -109 361 m -98 356 l -93 356 q -98 351 -93 351 l -98 356 m -106 353 l -101 353 l -101 351 l -106 351 l -106 353 m -124 351 q -117 349 -119 349 l -117 346 l -142 338 l -144 338 l -144 340 q -124 351 -138 340 m -114 351 l -109 351 l -109 349 l -114 349 l -114 351 m -16 346 l -14 346 q -9 338 -14 338 q -12 330 -12 333 l -14 330 l -16 343 l -16 346 m 594 346 l 596 346 l 596 340 l 594 340 l 594 346 m -93 340 l -88 340 l -88 338 l -93 338 l -93 340 m -50 340 l -50 320 l -52 320 q -58 330 -52 330 q -50 340 -54 340 m -29 340 q -22 330 -25 340 l -26 330 l -29 340 m -42 336 l -37 336 l -37 328 l -42 328 l -42 336 m -111 333 q -104 330 -106 330 l -104 328 q -121 317 -109 328 l -124 317 l -111 333 m -68 333 l -65 333 l -65 328 l -68 328 l -68 333 m -88 330 l -85 330 l -85 326 l -88 326 l -88 330 m -70 326 l -68 326 l -68 320 l -70 320 l -70 326 m -37 326 l -35 326 l -35 317 l -37 317 l -37 326 m -12 326 l -9 326 l -9 320 l -12 320 l -12 326 m -45 323 l -42 323 l -42 317 l -45 317 l -45 323 m -96 317 l -93 317 q -91 310 -93 315 q -106 294 -92 310 l -106 297 q -96 317 -96 313 m -73 317 l -70 317 l -70 313 l -73 313 l -73 317 m -65 317 l -62 317 l -62 313 l -65 313 l -65 317 m -9 317 l -6 317 l -6 313 l -9 313 l -9 317 m -68 313 l -65 313 l -65 307 l -68 307 l -68 313 m -47 313 l -45 313 l -45 304 l -47 304 l -47 313 m -35 313 l -32 313 l -32 304 l -35 304 l -35 313 m -26 310 l -24 310 l -24 269 l -26 269 q -32 300 -26 282 l -26 297 l -26 310 m -75 307 l -70 304 q -68 307 -70 307 l -68 304 q -78 281 -78 286 l -81 281 l -81 287 q -75 307 -75 303 m -55 302 l -52 302 l -52 297 l -47 300 q -52 269 -52 279 l -55 269 l -55 302 m -83 281 l -81 281 l -81 277 l -83 277 l -83 281 m 47 267 l 47 264 q 1 243 47 258 l 1 251 q 47 267 3 251 m 47 251 l 47 243 l 1 228 l 1 235 l 47 251 m 47 235 l 47 231 q -6 210 16 210 q 47 235 -6 220 m -12 231 q -1 228 -7 228 l -1 225 l -14 225 l -12 231 m 76 223 q 81 218 76 218 l 81 215 q 56 205 58 205 l 53 210 q 76 223 58 210 m 40 218 l 45 218 l 45 215 l 40 215 l 40 218 m -47 215 l -47 210 l -52 210 q -47 215 -52 215 m -70 212 l -65 212 q -60 208 -60 212 l -65 205 l -70 212 m 27 212 l 33 212 l 33 210 l 27 210 l 27 212 m 22 210 l 27 210 l 27 208 l 22 208 l 22 210 m 47 210 l 47 199 l 40 189 q 47 187 45 187 l 47 179 q 1 172 20 172 q -1 179 1 179 q 40 205 -1 193 q 47 210 40 208 m 14 208 l 22 208 l 22 205 l 14 205 l 14 208 m 9 205 l 14 205 l 14 202 l 9 202 l 9 205 m -50 202 q -39 197 -50 197 q -45 192 -39 192 q -55 195 -49 195 q -60 187 -55 187 q -62 195 -60 195 l -73 189 l -73 192 q -50 202 -73 197 m 1 202 l 9 202 l 9 199 l 1 199 l 1 202 m 504 202 l 504 197 q 473 161 488 166 l 473 164 q 504 202 492 202 m 122 195 q 127 184 122 184 q 140 189 136 189 l 140 187 l 132 176 q 140 172 132 172 l 140 166 l 138 166 q 125 169 134 169 q 119 159 125 159 l 117 159 l 119 172 l 119 174 l 106 174 l 106 179 l 119 179 l 117 192 l 122 195 m 56 184 l 60 184 l 60 182 l 56 182 l 56 184 m 58 174 l 66 174 l 66 172 l 58 172 l 58 174 m -37 172 l -32 172 l -32 169 l -37 169 l -37 172 m 50 172 l 47 166 l 47 125 l 1 125 l 1 164 l 4 164 q 50 172 21 164 m 56 169 l 58 169 l 58 164 l 56 164 l 56 169 m -98 164 l -93 164 l -93 151 l -83 151 l -83 146 l -91 146 q -85 130 -91 139 l -93 130 l -96 141 l -98 141 q -104 133 -104 141 l -111 133 l -104 143 l -117 153 l -111 156 q -98 153 -108 153 l -98 164 m -39 161 l -32 161 l -32 159 l -39 159 l -39 161 m -24 161 l -16 161 l -16 159 l -24 159 l -24 161 m -29 159 l -26 159 l -26 151 l -29 151 l -29 159 m 86 156 l 89 156 l 89 151 l 96 156 l 99 156 q 89 138 89 144 l 86 138 q 79 146 86 146 l 79 149 q 86 156 86 149 m -14 141 l -9 141 l -9 138 l -14 138 l -14 141 m -65 133 l -60 133 l -60 130 l -65 130 l -65 133 m -58 133 q -47 130 -53 130 l -47 128 l -60 128 l -58 133 m 155 133 l 158 133 l 155 128 l 155 120 l 165 120 l 171 123 l 171 115 l 158 115 q 163 100 158 108 l 161 100 l 151 110 l 148 110 q 142 100 148 109 q 138 105 138 100 q 145 110 138 110 l 145 118 l 135 120 l 135 125 q 151 120 142 125 q 155 133 151 133 m -32 118 l -26 118 l -26 115 l -32 115 l -32 118 m 1 118 l 47 118 l 47 110 q 1 102 47 102 l 1 105 q 4 107 1 107 l 1 113 l 1 118 m 99 113 l 102 113 l 115 110 q 117 113 115 113 l 117 107 q 99 100 109 107 l 99 102 l 104 110 l 99 110 l 99 113 m -96 94 l -93 94 l -93 92 q -117 77 -102 77 l -121 77 l -121 79 q -96 94 -115 79 m -35 92 l -29 92 l -29 87 l -35 87 l -35 92 m -58 87 l -55 82 l -58 82 l -73 84 l -73 87 l -58 87 m -65 82 l -62 82 l -62 74 l -65 74 l -65 82 m 73 79 l 76 79 l 76 74 l 73 74 l 73 79 m -101 77 l -96 77 q -91 71 -91 76 l -91 69 l -93 69 q -101 77 -97 69 m 332 71 q 342 54 342 71 q 335 51 338 51 l 335 54 l 338 59 q 332 64 332 59 l 332 71 m -114 66 l -109 66 l -109 64 l -114 64 l -114 66 m 92 64 l 96 64 l 96 61 l 92 61 l 92 64 m 106 64 l 115 64 l 115 61 l 106 61 l 106 64 m -45 56 l -42 56 l -42 51 l -45 51 l -45 56 m -45 51 q -35 46 -45 46 l -35 43 l -52 41 q -45 51 -48 51 m -58 41 l -52 41 l -52 38 l -58 38 l -58 41 m -78 36 l -75 36 l -78 23 l -78 20 l -65 20 l -65 15 l -78 15 l -78 7 l -75 2 l -81 0 l -83 13 l -85 13 l -98 5 l -101 10 q -91 15 -95 15 l -91 18 l -98 28 l -98 31 l -96 31 l -88 25 l -83 25 q -78 36 -83 36 m -9 23 l -3 23 l -3 20 l -9 20 l -9 23 m -24 20 l -16 20 l -16 18 l -24 18 l -24 20 m -12 20 l -9 20 l -9 13 l -14 15 l -14 10 l -16 10 l -16 18 l -12 20 m -9 13 l -3 13 l -3 10 l -9 10 l -9 13 m -39 -5 l -32 -5 l -32 -11 l -35 -11 q -39 -5 -39 -11 m -19 -13 q -14 -18 -14 -14 q -24 -23 -18 -18 l -26 -18 l -19 -13 m 56 -16 q 58 -18 56 -18 q 53 -34 53 -26 l 66 -34 l 66 -39 l 63 -39 l 50 -36 l 53 -49 l 53 -52 l 47 -52 l 45 -39 l 43 -39 l 35 -44 q 30 -39 30 -44 l 40 -36 l 40 -31 q 33 -26 40 -26 l 33 -23 q 37 -18 33 -18 q 45 -26 37 -22 l 56 -16 m -50 -18 q -37 -26 -37 -22 l -42 -26 q -50 -23 -47 -23 l -50 -18 m -37 -26 l -35 -26 q -32 -31 -35 -31 q -39 -41 -35 -41 l -42 -41 l -42 -39 q -37 -26 -37 -31 z "},"E":{"ha":449,"x_min":-258,"x_max":477,"o":"m -96 977 q -24 923 -29 923 l 48 964 l 50 964 q 14 882 17 894 l 20 880 l 20 885 l 22 885 q 43 862 22 876 l 43 859 q 48 862 48 859 l 66 859 l 145 859 l 145 857 l 109 798 l 107 798 l 99 803 q 92 785 93 803 l 86 787 l 81 787 l 81 782 l 86 782 l 86 779 l 81 779 l 81 777 l 84 772 l 68 764 l 56 764 l 56 767 l 68 782 l 68 790 q 60 805 68 803 q 14 792 60 795 q 20 810 20 803 q 9 826 14 826 q -50 787 -49 800 q -55 782 -50 782 l -58 782 q -75 833 -68 804 q -88 836 -84 833 l -88 831 l -75 831 l -75 828 q -85 815 -85 828 l -94 821 l -96 821 l -96 815 l -101 815 l -98 828 q -104 833 -104 828 l -94 833 l -94 836 q -134 841 -130 841 q -124 836 -134 836 l -124 833 q -134 821 -134 833 q -150 828 -141 828 l -147 833 l -142 831 l -137 831 l -137 841 l -147 841 q -160 844 -147 844 l -160 846 q -83 887 -155 846 l -96 977 m -85 959 l -85 957 q -73 887 -78 900 q -134 849 -127 859 q -91 841 -95 844 l -91 844 q -62 831 -70 840 l -60 831 q -52 833 -55 833 l -55 839 l -50 839 l -50 841 l -52 846 q -50 849 -50 846 q -55 854 -55 849 q -52 857 -52 854 l -58 854 l -65 859 l -68 859 l -68 854 l -73 854 q -85 864 -73 864 l -85 867 q -65 882 -65 873 l -60 880 l -58 885 l -62 918 l -60 918 q -52 911 -56 918 l -47 913 q -37 911 -43 911 l -37 905 l -39 905 l -45 908 l -45 905 q -32 898 -36 898 q -1 913 -4 913 l -1 911 q -12 880 -12 883 q 14 869 -1 869 l 14 875 l 9 882 q 35 949 9 886 l 33 949 q -29 916 -23 916 q -83 959 -30 919 l -85 959 m -39 918 l -35 918 l -35 916 l -39 916 l -39 918 m 79 890 q 86 887 83 887 l 86 880 l 76 880 l 73 885 q 79 890 79 885 m 235 885 l 238 885 q 220 859 220 862 l 241 859 l 241 854 q 225 815 241 815 q 153 805 211 815 l 153 808 q 171 859 171 858 l 212 859 l 235 885 m 43 880 l 45 880 l 45 875 l 43 875 l 43 880 m 58 880 l 60 880 l 60 875 l 58 875 l 58 880 m -24 857 l -24 854 l -16 849 l -16 854 q -24 857 -19 854 m 153 859 l 163 859 q 122 777 139 786 l 122 774 l 120 774 l 120 782 q 107 762 115 782 q 104 759 104 762 q 122 731 104 731 l 122 733 q 133 751 133 743 q 125 764 127 751 l 130 767 q 138 751 130 763 q 107 705 138 726 l 107 703 l 102 705 l 99 705 l 94 703 q 86 720 94 719 q 71 715 78 715 l 58 715 q 53 720 53 715 l 66 718 l 71 718 l 71 720 q 66 728 68 728 q 68 736 68 733 l 79 736 l 79 728 l 81 728 q 97 759 89 728 q 94 762 94 759 q 107 772 100 762 l 107 774 l 102 774 l 104 779 q 99 785 99 779 l 99 790 l 109 782 l 112 782 q 153 854 112 788 l 153 859 m 248 859 l 277 859 q 256 815 256 820 l 243 815 q 248 857 248 845 l 248 859 m 284 859 l 289 859 q 307 821 292 859 l 310 821 q 323 859 314 821 l 405 859 q 392 833 392 838 l 397 831 q 422 859 397 833 l 428 859 l 428 815 l 264 815 q 284 859 284 854 m 302 859 l 313 859 l 310 836 l 307 836 l 302 859 m 81 815 l 79 805 l 92 805 q 99 813 92 813 l 102 813 l 102 815 l 81 815 m 104 810 l 104 808 l 112 808 q 115 815 112 810 l 109 815 q 104 810 104 814 m 9 815 q 12 808 9 812 q -16 772 12 797 q -52 756 -16 766 l -52 754 q -62 764 -60 755 q -26 803 -60 764 q 9 815 -14 803 m -104 803 q -94 787 -94 798 l -106 787 l -101 795 q -104 803 -104 800 m -144 798 l -142 798 q -132 787 -142 787 l -137 779 l -137 777 l -134 772 l -137 772 q -142 777 -142 772 l -147 774 l -150 774 q -155 787 -150 781 q -144 798 -144 787 m -88 798 l -75 795 l -75 792 l -88 792 l -88 798 m -55 795 l -55 790 l -52 790 l -52 795 l -55 795 m 84 795 l 84 790 l 89 790 l 89 795 l 84 795 m 60 792 l 60 790 q 45 769 60 779 l 45 767 q 73 754 45 758 l 73 751 l 56 749 l 27 749 q -42 741 -24 749 l -42 746 q 24 767 -10 759 l 24 769 q 4 772 22 772 q 58 790 4 787 q 60 792 58 792 m -78 782 l -68 782 q -62 777 -62 781 l -62 772 q -68 767 -62 767 l -71 767 q -73 774 -71 770 q -71 777 -71 774 q -78 779 -75 779 l -78 782 m 151 782 l 156 782 l 156 772 q 145 764 145 772 q 140 769 140 764 l 140 772 l 153 774 l 153 777 l 151 782 m 92 772 q 99 769 96 769 l 99 767 q 94 762 94 767 q 89 767 89 762 l 92 772 m 115 772 l 120 772 l 120 767 q 115 772 115 767 m -88 769 q -78 764 -82 764 q -71 767 -73 767 l -71 762 q -75 759 -75 762 q -68 751 -75 751 q -73 746 -68 746 q -78 751 -73 751 q -85 743 -78 747 q -91 754 -85 754 q -88 769 -88 758 m 171 762 l 181 762 l 181 759 q 163 754 170 759 l 163 756 q 171 762 163 762 m -65 756 l -60 756 l -60 754 l -65 754 l -65 756 m 186 751 q 194 728 191 751 q 174 720 181 720 q 186 751 186 731 m 153 736 l 161 731 q 158 723 158 726 l 153 723 q 148 728 148 723 l 148 731 q 153 736 149 736 m -14 733 l 56 733 l 56 728 l 50 728 l 50 726 l 53 720 l 48 718 l 22 720 l 20 715 q 37 682 37 700 q 22 664 37 671 q 1 695 22 685 l 1 705 l 4 705 l 24 695 l 27 700 q -19 728 9 718 l -22 728 l -29 723 q -32 731 -29 726 l -14 733 m -101 723 l -91 723 q -96 710 -96 717 l -104 710 l -101 723 m -117 720 l -109 720 l -109 718 l -117 718 l -117 720 m 166 720 l 174 720 l 174 718 l 166 718 l 166 720 m 35 713 q 63 707 45 707 l 73 707 l 86 710 l 86 703 q 79 695 79 703 l 79 692 l 68 692 q 63 700 68 700 l 48 700 l 48 667 l 60 669 l 60 674 l 56 682 l 60 682 q 66 674 66 682 q 48 664 64 664 l 48 605 q 50 602 48 602 l 48 597 l 48 589 q 50 587 48 587 l 48 582 l 48 564 q 50 562 48 562 l 48 556 l 48 549 q 58 530 58 538 l 66 530 l 66 528 q 60 520 60 528 l 58 520 q 53 530 58 530 q 48 526 48 530 l 48 517 q 50 507 48 512 q 48 497 48 503 l 48 487 l 50 481 q 48 479 48 481 l 56 479 l 56 484 l 53 490 l 58 490 l 58 497 l 56 510 q 68 523 68 510 l 71 523 l 71 513 q 63 507 71 507 l 63 503 q 68 500 68 503 q 81 520 81 500 l 84 520 q 86 513 84 513 q 63 494 86 499 l 63 490 q 66 481 66 484 q 48 454 64 481 l 48 451 l 81 451 q 102 492 81 473 l 102 494 l 97 494 l 97 497 l 102 497 l 102 507 l 99 526 q 109 520 106 520 q 104 505 104 512 l 104 494 l 107 494 q 117 500 113 500 l 115 510 l 115 517 l 117 517 q 125 500 117 501 l 135 507 q 140 494 135 494 l 138 481 l 151 481 l 151 479 q 140 467 140 479 l 145 467 l 145 464 l 138 464 l 138 456 l 143 456 l 140 451 l 145 451 l 145 456 l 148 456 l 148 451 l 153 451 q 156 454 156 451 l 161 451 l 199 451 q 181 407 188 407 l 81 407 q 43 415 56 415 q -16 395 16 415 q -19 389 -19 395 l -29 389 l -26 395 l -29 399 q -16 410 -21 399 q 1 412 -6 412 l 1 433 l -12 431 l -22 431 q -42 448 -36 431 q -50 464 -47 448 l -50 467 l -47 467 q -16 443 -47 450 l 1 443 l 1 458 q -14 454 -7 454 q -35 464 -28 454 l -35 467 l -26 461 q 1 469 1 461 l 1 517 l -9 517 l -9 520 l 1 520 l 1 530 l -1 530 q -42 494 -31 530 l -45 494 l -45 507 l -22 538 l -3 538 l 1 536 l 1 687 q 20 656 7 687 l 24 656 q 45 684 45 667 q 35 710 45 696 l 35 713 m -29 707 l -26 707 l -26 703 l -29 703 l -29 707 m 169 707 l 176 707 l 194 697 q 181 667 189 667 l 179 667 l 186 677 l 186 682 q 169 705 182 705 l 169 707 m 148 703 l 156 703 l 161 700 q 158 692 158 695 l 148 692 l 148 703 m -6 682 l -6 680 q -55 572 -37 600 l -68 569 l -71 569 q -81 605 -75 593 l -73 635 l -71 635 q -58 612 -71 612 q -22 664 -45 612 l -6 682 m 107 682 l 109 682 l 109 674 l 107 674 l 107 682 m 166 682 l 171 682 q 166 669 166 675 q 161 674 161 669 l 161 677 q 166 682 161 682 m 94 674 l 97 674 q 99 659 99 661 q 73 648 73 653 l 73 646 l 79 646 l 79 644 l 71 644 l 71 651 q 92 661 71 656 l 92 667 l 89 671 l 94 674 m 133 674 q 138 669 138 673 q 135 661 135 664 q 156 651 156 656 l 156 644 l 148 644 l 148 646 l 153 646 l 153 648 q 127 659 153 653 l 122 667 q 133 674 126 667 m 166 669 l 169 669 q 179 667 173 667 l 179 664 l 169 664 l 166 669 m -58 654 l -55 654 l -55 648 l -58 648 l -58 654 m 107 651 l 107 644 l 104 631 l 107 631 l 104 625 l 104 623 q 115 618 104 618 l 115 615 l 107 615 l 107 608 l 112 608 l 112 605 l 99 605 l 102 610 q 92 615 102 615 l 92 623 l 97 623 l 97 628 l 92 628 l 86 625 l 86 628 q 107 651 86 634 m 120 651 q 140 625 140 635 q 120 644 130 625 l 120 651 m 153 631 l 156 631 l 156 625 l 153 625 l 153 631 m 76 625 l 79 625 l 79 621 l 76 621 l 76 625 m 120 623 l 122 623 q 130 615 126 623 q 125 605 125 615 l 120 605 l 122 618 l 120 623 m 176 615 q 184 608 180 615 l 181 608 q 176 612 176 608 l 176 615 m 161 610 l 174 610 l 174 608 q 163 602 163 608 l 161 602 l 161 610 m 130 608 l 130 602 l 125 602 q 130 608 125 608 m 94 600 q 109 595 102 595 l 109 592 q 94 587 105 592 l 94 600 m 163 600 l 166 600 l 166 595 l 163 595 l 163 600 m 181 600 l 184 600 l 184 587 l 179 589 q 181 600 181 594 m 117 597 l 122 597 l 122 595 l 117 595 l 117 597 m 135 597 l 143 597 l 143 595 l 135 595 l 135 597 m 166 595 l 169 595 l 169 589 l 166 589 l 166 595 m 194 589 q 205 587 199 587 l 205 585 l 194 582 l 194 589 m 58 587 l 60 587 l 60 579 l 58 579 l 58 587 m 92 585 l 94 585 l 94 576 q 89 556 89 558 l 99 549 q 97 533 97 545 l 92 536 l 92 528 l 89 528 q 68 543 89 543 l 68 549 q 86 572 86 549 q 92 585 92 572 m 205 585 q 210 579 210 584 l 205 579 l 205 585 m 135 582 l 140 582 q 135 576 140 576 l 135 582 m 117 579 l 122 579 l 122 576 l 117 576 l 117 579 m 158 574 l 163 574 q 169 564 163 570 l 158 562 l 158 553 l 163 553 q 148 543 158 543 l 145 543 l 145 546 q 158 574 157 546 m 179 574 l 186 574 q 192 569 186 569 l 192 566 l 181 566 l 184 572 l 179 572 l 179 574 m 102 572 l 104 572 q 109 566 109 571 q 102 564 106 566 l 102 572 m 53 569 l 58 569 l 58 566 l 53 566 l 53 569 m 66 569 l 71 569 l 71 566 l 66 566 l 66 569 m 130 566 l 130 564 q 117 556 130 558 q 130 566 117 559 m 140 566 l 143 566 q 145 556 143 561 l 140 553 l 138 553 q 140 566 140 558 m 53 556 l 58 556 l 58 553 l 53 553 l 53 556 m 58 553 l 63 553 l 63 551 l 58 551 l 58 553 m 133 553 l 138 553 l 138 551 l 133 551 l 133 553 m 166 553 l 174 553 l 174 551 l 166 551 l 166 553 m 122 551 l 130 551 l 130 549 l 122 549 l 122 551 m 217 549 l 217 543 l 212 543 q 217 549 213 549 m 199 546 l 210 546 l 210 543 l 199 543 l 199 546 m 104 543 l 109 543 l 109 538 q 104 543 104 538 m 143 543 l 145 543 q 130 528 144 528 l 130 533 q 143 543 136 533 m 166 543 l 169 543 l 169 538 l 166 538 l 166 543 m 115 541 q 120 536 120 540 l 115 536 l 115 541 m 120 536 l 122 536 l 122 530 l 120 530 l 120 536 m 153 536 l 156 536 l 156 530 l 153 530 l 153 536 m 179 536 l 181 536 l 181 523 l 179 523 l 179 536 m 197 536 l 199 536 l 199 530 l 197 530 l 197 536 m 166 533 l 171 533 l 171 530 l 166 530 l 166 533 m 199 530 l 202 530 l 202 523 l 199 523 l 199 530 m 66 528 l 68 528 l 68 523 l 66 523 l 66 528 m 189 526 l 192 526 l 192 520 l 189 520 l 189 526 m 202 523 l 205 523 l 205 515 l 202 515 l 202 523 m 163 520 l 174 520 l 174 517 q 169 513 169 517 l 166 513 q 163 520 166 515 m 133 517 l 133 510 q 127 515 127 510 l 133 517 m 169 510 l 171 510 l 171 503 l 169 503 l 169 510 m 143 507 l 145 507 l 145 503 l 143 503 l 143 507 m -6 505 l -3 505 q -1 497 -3 502 q -3 484 -3 493 l -6 484 l -6 505 m 171 500 l 181 500 l 181 497 l 171 497 l 171 500 m -32 497 l -29 497 q -24 474 -29 481 l -26 474 q -37 484 -31 474 l -37 487 q -32 497 -32 493 m 120 494 l 120 490 l 115 492 l 112 492 l 112 487 l 125 484 q 127 487 125 487 l 127 481 q 133 487 133 481 q 122 494 129 487 l 120 494 m 161 497 l 161 492 q 153 490 158 492 l 153 494 q 161 497 156 494 m 84 494 l 97 494 q 89 487 97 491 q 84 492 89 492 l 84 494 m 169 490 q 184 487 170 490 l 194 490 l 197 490 l 197 487 q 186 481 186 486 l 181 484 l 169 481 l 169 490 m -52 481 l -50 481 l -50 474 l -52 474 l -52 481 m -14 481 l -9 481 l -9 479 l -14 479 l -14 481 m 79 481 l 81 481 l 81 477 l 79 477 l 79 481 m 99 458 q 94 467 99 467 l 94 451 l 97 451 l 117 467 l 117 464 q 125 467 122 467 l 125 474 l 120 471 l 120 479 q 102 458 102 479 l 99 458 m 48 474 l 48 469 q 53 474 53 469 l 48 474 m 158 474 l 161 474 l 161 469 l 158 469 l 158 474 m 181 474 l 186 474 l 186 471 l 181 471 l 181 474 m 76 471 l 79 471 q 73 467 79 467 l 71 467 q 76 471 72 471 m 68 469 l 68 464 l 60 464 l 60 467 q 68 469 64 467 m 189 469 l 194 469 l 194 464 q 189 469 189 464 m 104 454 l 104 451 l 120 451 l 120 454 l 104 454 m 207 451 l 233 451 q 210 407 217 407 l 194 407 q 207 451 207 446 m 241 451 l 266 451 l 266 448 q 251 407 260 414 l 222 407 q 241 451 241 440 m 279 451 l 281 451 l 271 407 l 264 407 l 264 410 q 279 451 275 451 m 289 451 l 328 451 l 328 407 l 279 407 l 279 410 q 289 451 289 446 m 45 407 l 53 407 q 58 402 58 406 q 48 397 58 397 l 48 382 l 58 389 l 60 389 q 14 363 60 374 q 1 353 14 360 q -9 366 1 364 q -26 374 -9 370 q -14 382 -26 380 l -16 376 l -16 374 l -14 374 q 1 382 -5 382 l 1 397 q 45 407 27 407 m 71 402 l 73 402 l 73 395 l 71 395 l 71 402 m 117 395 l 125 395 l 135 392 l 135 389 l 127 389 l 117 392 l 117 395 m -6 392 l -1 392 l -1 389 l -6 389 l -6 392 m -1 379 l -1 374 l 1 374 l 1 379 l -1 379 m -258 374 l -255 374 q -248 340 -255 368 l -248 338 l -250 338 q -258 369 -258 363 l -258 374 m 45 363 l 48 363 l 48 335 q 56 343 52 335 l 56 356 q 63 363 63 356 q 68 359 68 363 l 48 325 l 48 189 q 117 199 109 199 q 48 174 85 174 l 48 161 l 50 161 q 107 174 65 161 l 109 174 q 45 132 103 154 q -6 158 45 148 l -6 161 l -3 161 l 1 158 l 1 171 l -12 171 l -12 174 l 1 174 l 1 178 q -3 184 1 184 l -19 184 l -19 189 l -1 186 l 1 186 l 1 340 q 45 363 22 363 m -248 338 l -245 338 l -245 330 l -248 330 l -248 338 m -245 330 l -242 330 l -242 325 l -245 325 l -245 330 m -242 325 l -239 325 l -239 320 l -242 320 l -242 325 m -239 320 l -237 320 l -237 315 l -239 315 l -239 320 m -237 315 q -229 302 -231 315 q -237 315 -235 302 m -229 302 q -73 197 -174 227 q -62 191 -62 197 q -71 186 -66 191 q -150 222 -81 186 l -150 217 q -229 299 -199 252 l -229 302 m -147 214 l -144 214 q -140 210 -140 214 l -142 210 q -147 214 -147 210 m -140 210 l -134 210 l -134 207 l -140 207 l -140 210 m 256 210 l 258 204 l 258 199 l 248 199 l 243 207 l 256 210 m -130 202 l -124 202 l -124 199 l -130 199 l -130 202 m 228 197 q 233 186 228 193 l 222 181 l 217 189 q 228 197 217 193 m -117 194 l -111 194 l -111 191 l -117 191 l -117 194 m -111 191 l -106 191 l -106 189 l -111 189 l -111 191 m -52 191 l -42 191 l -29 189 l -29 186 l -37 186 l -52 189 l -52 191 m -106 189 l -101 189 l -101 186 l -106 186 l -106 189 m 56 184 l 48 184 l 48 176 q 73 184 73 178 l 73 186 l 56 184 m -101 186 l -96 186 l -96 184 l -101 184 l -101 186 m -68 186 l -62 186 l -62 184 l -68 184 l -68 186 m 271 186 l 277 178 l 277 176 l 264 176 l 261 181 q 271 186 265 181 m -96 184 l -91 184 q -50 166 -50 169 l -50 163 l -96 181 l -96 184 m -62 184 l -58 184 l -58 181 l -62 181 l -62 184 m -45 178 l -32 178 l -32 176 l -45 176 l -45 178 m 194 178 l 197 178 l 197 166 l 194 166 q 189 176 194 170 l 194 178 m -29 176 l -24 176 l -24 174 l -29 174 l -29 176 m 245 171 q 251 161 245 167 l 241 155 l 235 163 q 245 171 235 167 m 174 168 q 179 158 174 164 l 171 153 q 163 161 168 153 l 163 163 q 174 168 168 163 m -39 166 q -14 161 -37 166 l -14 155 l -16 155 q -39 161 -20 155 l -39 166 m 289 161 l 294 151 l 284 145 q 281 148 284 148 q 289 161 285 161 m 56 153 l 48 153 l 48 140 l 50 140 q 73 153 73 149 l 73 155 l 56 153 m 217 155 l 220 151 l 212 151 q 217 155 213 155 m 112 153 l 122 153 l 120 148 l 115 151 q 92 145 109 151 l 92 138 q 94 140 94 138 q 117 138 96 138 q 115 127 115 133 q 84 135 104 135 l 81 130 l 81 127 q 104 119 81 121 q 109 125 105 125 l 112 125 q 107 99 107 106 l 102 102 l 97 102 l 97 96 q 104 92 104 96 l 104 83 l 102 83 q 73 106 92 85 q 53 109 71 106 l 53 112 l 60 112 l 76 109 l 76 122 l 71 122 l 71 125 q 89 148 75 125 q 112 153 106 153 m 148 153 q 153 142 148 149 l 148 142 l 148 135 l 151 130 q 192 140 156 132 q 228 127 192 136 q 235 130 233 130 q 256 122 235 122 q 235 102 256 119 q 184 47 235 80 q 176 60 182 60 l 174 60 l 174 56 l 176 50 l 171 47 l 169 47 q 161 56 165 47 l 161 58 l 169 58 l 169 60 l 166 66 q 148 53 150 60 l 148 45 l 176 45 l 176 43 q 161 9 161 43 q 130 -9 150 -9 l 130 -1 l 115 -1 l 102 9 l 99 4 q 104 -1 104 3 l 102 -1 q 99 1 99 -1 l 94 -1 l 84 -1 q 79 4 79 -1 l 73 1 q 45 24 52 24 q 35 33 41 24 q 20 -1 22 33 l 9 -1 q 14 24 9 9 q 9 30 9 24 q 33 47 33 44 l 1 92 l 1 130 l 48 66 l 48 47 l 45 47 l 40 50 l 37 45 q 53 33 41 45 q 56 35 53 35 l 50 45 l 63 45 q 94 14 91 14 l 97 20 q 86 30 93 20 q 102 47 86 44 q 107 60 102 60 q 112 45 112 52 q 125 47 121 45 l 140 45 l 143 45 l 143 60 l 151 71 q 145 81 145 77 q 115 60 132 81 l 112 60 l 112 76 l 115 102 l 127 99 l 130 99 l 130 102 l 125 109 l 125 112 l 133 112 l 133 117 l 120 119 l 122 135 l 133 135 l 138 132 l 138 135 l 127 148 q 130 151 130 148 q 138 148 135 148 l 148 153 m -58 145 l -50 145 l -50 142 l -58 142 l -58 145 m 264 142 q 266 135 266 138 l 258 130 l 251 140 q 264 142 254 142 m -47 142 l -37 142 l -37 140 l -47 140 l -47 142 m 7 140 l 9 140 q 40 106 35 140 l 37 94 l 35 94 q 7 140 33 100 m -26 138 l -6 138 l -6 135 l -26 135 l -26 138 m -6 135 l 1 135 l 1 132 l -6 132 l -6 135 m 307 135 l 313 125 l 302 119 l 294 130 q 307 135 299 130 m 127 130 l 127 127 q 138 109 138 116 l 143 109 l 143 127 q 127 130 141 127 m 53 127 l 71 127 l 71 125 l 53 125 l 53 127 m 81 119 l 81 117 q 104 104 81 106 q 84 119 104 119 l 81 119 m 281 117 l 287 109 l 281 106 q 279 109 281 109 l 279 106 l 284 89 l 287 89 q 292 96 292 89 q 302 92 298 92 l 307 94 q 315 92 312 92 l 317 96 l 313 104 q 323 109 316 104 l 325 109 q 330 99 325 105 q 323 94 323 99 l 323 92 q 336 81 336 92 l 338 81 l 343 83 q 376 66 343 66 q 379 68 379 66 q 392 63 387 63 q 389 56 389 58 q 369 63 371 63 l 369 58 l 356 60 l 351 60 l 351 56 l 346 56 q 328 71 346 66 l 330 76 l 330 79 l 323 79 l 323 73 l 315 73 q 289 50 294 73 q 300 45 289 45 l 300 43 q 279 27 293 43 q 235 63 279 54 q 212 58 229 63 q 241 83 233 83 q 256 79 249 79 q 274 96 274 79 q 258 112 268 112 q 264 117 259 117 l 266 117 q 269 115 269 117 q 281 117 272 117 m 117 115 l 125 115 l 125 112 l 117 112 l 117 115 m 284 106 l 287 106 l 287 102 l 284 102 l 284 106 m 251 104 q 258 96 254 104 l 258 94 l 245 92 l 245 94 q 251 104 251 100 m 48 86 l 50 86 l 92 63 l 94 63 l 94 60 q 79 56 85 60 l 71 56 q 63 63 67 56 q 66 73 66 68 q 48 86 48 80 m 161 81 l 161 73 l 163 73 q 169 79 169 73 l 169 81 l 161 81 m 102 76 l 104 76 l 104 68 l 102 68 l 102 76 m 1 73 l 7 73 l 7 71 l 1 71 l 1 73 m 315 68 q 330 47 315 65 l 307 47 l 310 53 l 310 56 l 304 63 l 304 66 l 315 68 m 1 58 l 14 58 q 22 50 18 58 l 22 45 q 1 30 17 45 l 1 58 m 397 58 l 402 58 l 402 56 l 397 56 l 397 58 m 238 56 q 274 12 268 56 l 271 -1 l 256 -1 q 241 -14 241 -11 l 241 -16 l 245 -16 q 241 -22 245 -22 l 238 -22 q 197 22 197 -22 q 238 56 197 50 m 115 53 q 122 50 119 50 l 122 47 l 115 47 l 115 53 m 405 50 l 408 50 l 415 45 l 428 45 l 428 30 q 431 27 428 27 l 428 22 l 428 14 q 448 -1 437 -1 l 448 -3 l 438 -3 q 431 1 431 -1 q 415 -1 427 -1 l 415 -3 q 446 -12 438 -12 l 446 -14 l 441 -14 q 385 4 385 -1 l 385 20 q 408 45 387 45 l 405 50 m 125 45 l 122 40 l 138 33 l 140 37 l 125 45 m 73 45 l 81 45 l 81 37 q 73 45 77 37 m 194 45 l 197 45 l 197 43 q 189 17 189 29 q 217 -24 189 -13 l 217 -26 q 207 -45 207 -28 l 210 -55 l 207 -55 q 199 -39 199 -52 q 202 -24 199 -38 l 194 -24 q 148 -12 148 -20 q 171 27 164 -12 l 171 35 q 194 45 180 35 m 338 45 l 387 45 q 376 22 376 31 l 376 4 q 366 -1 372 4 l 363 -1 l 363 4 q 338 45 363 26 m 315 40 l 317 40 q 356 1 356 37 l 356 -1 q 351 -3 351 -1 q 343 -1 346 -1 q 328 -6 338 -1 q 317 -3 323 -3 l 307 -6 l 307 -1 l 304 -1 q 302 -3 302 -1 l 279 1 q 315 40 287 40 m 35 22 q 53 14 35 18 q 66 -3 53 9 q 56 -9 62 -3 l 53 -9 l 53 -1 l 27 -1 q 35 22 30 22 m 451 7 l 454 7 l 454 1 l 451 1 l 451 7 m 68 -9 q 99 -35 68 -26 q 125 -24 114 -35 l 127 -29 q 94 -39 111 -39 q 58 -16 76 -39 l 68 -9 m 458 -16 l 469 -16 l 469 -19 l 458 -19 l 458 -16 m 471 -19 l 477 -19 l 477 -22 l 471 -22 l 471 -19 m 248 -26 l 256 -26 l 258 -39 l 258 -47 l 256 -47 q 248 -32 256 -32 l 248 -26 m 145 -29 l 156 -29 l 156 -35 q 151 -39 156 -39 l 145 -32 l 145 -29 m 230 -37 q 243 -45 243 -40 q 222 -47 233 -45 l 222 -45 q 230 -37 222 -41 m 245 -60 l 251 -60 l 251 -62 l 245 -62 l 245 -60 m 222 -65 l 241 -65 l 241 -68 l 222 -68 l 222 -65 z "},"F":{"ha":452,"x_min":-151,"x_max":437,"o":"m -110 1041 q -102 1038 -105 1038 q -90 974 -102 1014 q -110 1034 -102 974 l -110 1041 m -87 972 q -69 936 -87 964 l -69 933 q -92 969 -75 933 l -87 972 m -20 946 l -18 946 q 28 871 -18 900 l 37 871 q 41 861 37 861 l 116 861 l 121 817 q 109 814 113 817 l 93 817 l 83 817 l 83 812 l 93 812 l 93 810 l 87 810 l 87 807 q 116 779 115 787 q 113 777 116 777 l 116 771 l 116 764 q 98 730 116 754 l 93 732 l 87 732 q 83 728 83 732 l 90 728 l 90 725 q 80 722 85 725 l 73 722 q 85 715 73 715 l 85 712 l 80 712 l 80 707 q 87 702 87 707 l 87 699 q 47 681 47 687 l 47 632 l 50 627 l 54 630 l 57 630 l 54 617 q 57 614 57 617 q 47 609 47 614 l 47 468 q 60 452 60 458 l 64 452 l 67 465 l 70 465 q 75 442 75 446 l 90 442 q 96 447 96 442 q 77 455 77 447 l 77 468 q 90 475 77 472 q 103 465 102 471 l 103 463 q 98 442 98 444 l 106 442 l 106 437 q 103 435 106 435 q 121 396 103 416 q 111 391 117 396 q 100 393 106 393 l 100 396 l 111 396 l 111 398 l 96 398 q 109 391 96 391 l 109 388 l 103 388 l 103 373 l 90 370 l 85 370 l 80 373 q 77 370 80 370 q 73 383 77 383 q 85 398 73 387 l 73 398 l 85 414 l 60 442 l 67 442 q 64 450 64 447 q 60 442 60 450 l 44 455 l 41 455 q 1 414 38 455 q 52 370 41 370 q 70 355 57 370 q 75 365 75 361 l 80 362 q 87 365 85 365 q 77 360 87 360 l 77 357 l 85 347 q 77 339 81 347 l 80 334 q 50 298 77 322 q 44 303 50 303 l 41 303 l 1 264 l 1 293 q -2 296 1 296 l 1 300 l 1 313 q -2 316 1 316 q 8 337 1 328 l 8 339 l 1 349 l 1 388 q -15 401 1 391 q 1 419 -15 419 l 1 435 l -15 427 q -18 429 -15 429 q -20 427 -18 427 l -31 445 l -31 447 l -25 445 q -15 458 -20 456 l -2 458 l -2 452 l 1 452 l 1 671 q -51 686 1 683 l -51 689 l -25 728 q -31 771 -31 757 l -28 771 q 1 764 -24 771 l 1 774 q -5 779 1 779 l -41 779 l -41 781 l 1 781 l 1 789 q -12 794 -12 789 q 1 800 -12 800 l 1 802 q -2 804 1 804 l 1 810 l 1 814 l -5 812 l -41 812 l -54 814 l -56 810 l -48 810 l -48 807 q -61 797 -61 807 l -64 797 q -77 804 -64 804 l -77 807 l -72 807 l -72 812 l -84 812 q -87 814 -87 812 l -92 812 l -146 812 q -151 817 -151 812 l -151 820 l -28 820 l -28 830 l -20 830 l -20 820 l -12 820 q 1 825 -12 825 l 1 830 q -2 833 1 833 l 1 838 l 1 861 l 14 861 q 18 866 18 861 q -20 930 -20 903 l -20 946 m -92 933 l -90 933 l -90 928 l -92 928 l -92 933 m -64 925 q -59 920 -59 924 l -64 920 l -64 925 m -48 887 l -46 887 q -41 882 -41 886 l -43 882 q -48 887 -48 882 m 28 884 l 31 884 l 31 876 l 28 876 l 28 884 m -61 876 l -59 876 l -18 856 l -18 853 l -22 853 q -61 876 -60 869 m 124 861 l 132 861 l 132 859 q 139 817 132 845 l 134 817 q 124 861 127 817 m 139 861 l 173 861 l 173 853 q 162 817 170 817 l 147 817 q 139 861 139 846 m 180 861 l 211 861 q 219 820 219 861 l 214 817 l 175 817 q 180 851 180 840 l 180 861 m 224 861 l 232 861 q 247 817 239 861 l 224 817 l 227 823 q 224 861 227 836 m 245 861 l 271 861 q 294 817 278 861 l 255 817 q 245 861 255 823 m 283 861 l 417 861 q 381 817 410 817 l 301 817 q 283 859 293 845 l 283 861 m 425 861 l 437 861 l 437 817 l 404 817 l 404 820 q 425 861 419 820 m -18 853 l -12 853 l -12 851 l -18 851 l -18 853 m -12 851 l -7 851 l -7 848 l -12 848 l -12 851 m -31 846 l -28 846 q -2 838 -3 838 l -2 836 l -10 836 q -31 840 -14 836 l -31 846 m 64 817 l 64 814 q 73 804 73 808 l 77 804 l 80 817 l 64 817 m 47 802 l 47 800 l 52 800 q 60 810 52 803 l 60 812 l 57 812 q 47 802 53 812 m 113 812 l 119 812 l 119 810 l 113 810 l 113 812 m 96 810 l 103 810 l 103 807 l 96 807 l 96 810 m -92 807 l -87 807 l -87 804 l -92 804 l -92 807 m 62 804 l 62 800 l 64 800 l 64 804 l 62 804 m 124 791 l 126 791 l 126 787 l 124 787 l 124 791 m 132 777 l 134 777 l 134 751 l 132 751 l 132 777 m -61 764 l -56 764 l -56 758 l -61 758 l -61 764 m 111 745 l 116 745 q 113 738 113 741 l 111 738 l 111 745 m 119 743 l 124 741 l 129 743 l 129 741 q 121 730 125 730 q 116 735 121 735 q 119 743 119 740 m -87 741 l -82 738 q -79 741 -82 741 l -79 732 q -84 728 -79 728 q -90 732 -84 732 q -87 741 -87 738 m 116 728 l 119 728 l 119 722 l 111 722 q 116 728 112 728 m 106 722 l 106 717 l 100 717 q 106 722 102 722 m 93 717 l 100 717 l 100 715 l 93 715 l 93 717 m 116 717 l 121 717 l 121 715 l 116 715 l 116 717 m 116 715 q 119 702 116 706 q 113 699 113 702 q 106 702 109 702 q 116 715 109 713 m -66 702 l -64 696 l -69 694 l -72 694 l -72 696 q -66 702 -71 702 m 77 673 q 93 668 83 668 q 77 650 91 655 q 70 661 77 661 l 70 663 q 77 673 77 663 m 119 666 l 119 663 q 113 658 119 658 l 113 661 q 119 666 115 666 m -20 650 q -15 645 -15 650 q -18 643 -18 645 q -25 645 -22 645 q -20 650 -24 650 m 173 594 l 175 594 q 186 581 175 581 l 186 578 q 173 573 179 578 l 165 573 q 162 583 165 579 q 173 594 173 583 m 268 560 l 271 560 l 271 555 l 268 555 l 268 560 m 214 532 l 216 532 l 216 527 l 214 527 l 214 532 m 136 527 l 136 517 q 132 522 132 517 q 136 527 132 527 m 229 527 l 229 522 l 227 517 l 235 509 l 247 509 l 247 507 l 232 507 l 232 504 l 235 498 l 227 498 q 229 491 229 494 l 229 488 l 227 488 q 222 496 227 496 q 219 488 219 491 l 216 488 q 211 498 216 498 l 214 504 q 209 509 209 504 l 214 509 l 209 517 l 211 517 q 219 514 216 514 q 216 522 216 519 l 216 524 l 219 524 q 224 517 219 517 q 229 527 224 527 m 96 519 q 106 511 106 515 l 106 498 q 90 491 103 491 l 87 491 q 80 498 84 491 l 80 504 q 96 519 80 519 m 237 519 l 239 519 q 235 514 239 514 l 232 514 q 237 519 233 519 m 235 498 l 237 498 q 242 494 242 498 l 239 494 q 235 498 235 494 m -41 491 l -28 491 q -20 473 -22 491 l -31 465 l -41 465 q -48 473 -44 465 l -48 484 q -41 491 -48 487 m 132 460 l 136 460 q 139 442 139 450 l 178 442 l 178 409 q 149 398 178 400 q 119 429 119 406 l 119 437 q 132 460 124 460 m -48 458 q -38 450 -38 454 l -38 445 l -41 432 q -20 409 -22 432 q -25 404 -25 409 q -28 406 -28 404 l -33 404 l -35 404 q -51 419 -51 404 q -48 427 -48 424 q -64 437 -64 433 l -64 439 l -59 439 l -59 450 l -64 450 q -48 458 -61 458 m 44 447 l 75 414 q 41 380 75 410 q 11 416 11 414 l 44 447 m 186 442 l 188 442 q 191 439 191 442 l 196 442 l 321 442 l 301 424 l 309 398 l 304 398 l 281 427 q 283 429 283 427 l 273 435 q 268 429 273 429 q 265 432 268 432 l 262 427 l 258 429 l 255 429 l 250 427 q 245 432 250 432 q 239 427 245 427 l 239 429 q 229 422 229 425 q 235 416 235 420 q 250 427 237 416 q 255 422 250 422 l 258 422 l 265 427 q 281 414 265 422 q 283 416 281 416 l 288 409 l 286 409 l 291 398 l 232 398 q 229 396 229 398 q 216 398 225 398 l 216 401 q 224 406 224 401 l 216 411 l 211 401 q 214 398 214 401 l 186 398 l 188 404 q 186 406 186 404 l 188 406 l 186 411 l 186 414 l 193 409 q 198 416 196 416 q 191 427 195 427 l 188 422 q 191 419 191 422 l 186 416 l 186 442 m 196 439 l 193 435 l 193 432 q 198 427 194 427 l 201 432 l 201 435 q 196 439 201 439 m 334 442 l 334 398 l 317 398 q 311 422 311 415 q 334 442 311 423 m 294 429 l 291 424 l 296 422 l 298 427 l 294 429 m -18 427 l -15 427 l -15 422 l -18 422 l -18 427 m 227 419 l 224 414 l 229 411 l 232 416 l 227 419 m -64 406 l -56 406 q -35 398 -45 398 l -35 396 l -48 393 q -64 404 -48 398 l -64 406 m -87 401 l -74 398 l -66 398 l -64 380 l -56 380 l -41 393 q -25 386 -28 386 l -28 380 q -22 375 -22 380 l -25 375 l -33 380 q -48 365 -33 377 q -61 375 -55 375 l -66 378 l -82 375 q -92 391 -92 378 l -87 401 m -35 396 l -31 396 l -31 393 l -35 393 l -35 396 m -15 393 q -7 386 -12 393 l -10 386 q -15 391 -15 386 l -15 393 m -22 391 l -18 391 l -18 388 l -22 388 l -22 391 m 57 383 l 60 383 l 60 373 l 57 373 l 57 383 m -20 380 q -15 375 -15 380 l -15 373 l -20 373 l -20 380 m 124 378 l 136 378 l 136 375 q 126 373 131 375 l 124 378 m -33 370 l -31 370 l -31 368 q -38 360 -31 364 l -41 365 l -33 370 m -33 362 l -28 362 l -28 360 l -33 360 l -33 362 m -25 362 q -2 339 -22 362 q -22 332 -8 335 q -31 345 -22 339 q -25 362 -25 355 m -10 360 l -5 360 l -5 355 q -10 360 -10 355 m 87 360 l 96 360 l 96 357 l 87 357 l 87 360 m -77 357 l -56 357 q -61 352 -56 352 l -64 352 q -66 355 -66 352 l -72 352 q -77 357 -77 352 m 103 357 l 109 357 l 109 355 l 103 355 l 103 357 m 111 357 l 116 357 l 116 355 l 111 355 l 111 357 m -48 355 l -41 355 l -41 352 l -48 352 l -48 355 m -38 355 l -33 355 l -33 352 l -38 352 l -38 355 m 121 355 l 139 352 l 139 349 l 113 349 q 121 355 113 355 m 57 345 q 64 337 57 340 l 64 339 q 62 349 62 344 q 57 345 57 349 m 103 352 l 109 352 l 109 349 l 103 349 l 103 352 m -43 342 l -38 342 l -38 339 l -43 339 l -43 342 m -51 337 l -48 332 l -59 332 l -59 334 q -51 337 -56 334 m -38 337 l -33 337 l -33 334 l -38 334 l -38 337 m 106 337 l 111 337 l 111 334 l 106 334 l 106 337 m 93 334 l 98 334 l 98 332 l 93 332 l 93 334 m 116 334 l 136 321 l 134 321 q 103 329 119 329 l 103 332 l 116 334 m -74 329 l -69 329 l -69 326 l -74 326 l -74 329 m -15 329 l -10 329 l -10 326 l -15 326 l -15 329 m -25 324 l -20 324 l -20 321 l -25 321 l -25 324 m 75 319 l 77 319 l 77 313 l 75 313 l 75 319 m -41 316 l -35 316 l -35 313 l -41 313 l -41 316 m 90 316 l 96 316 l 96 313 l 90 313 l 90 316 m 96 313 l 103 313 l 106 309 l 103 309 q 96 311 98 311 l 96 313 m -54 311 l -48 311 l -48 309 l -54 309 l -54 311 m -15 311 l -10 311 l -10 309 l -15 309 l -15 311 m 87 300 l 90 300 q 98 288 90 296 l 98 286 q 85 293 90 293 q 87 300 87 298 m -33 298 l -25 298 q -31 293 -25 293 l -33 293 l -33 298 m 44 296 q 50 277 50 283 l 52 277 l 52 283 l 54 283 q 57 257 54 266 l 57 254 l 54 254 q 50 275 50 274 l 47 275 l 47 234 q 41 229 47 229 l 11 262 q 44 296 11 266 m -12 290 l -10 290 q -7 283 -10 288 q -20 270 -18 270 l -20 273 q -12 290 -12 288 m 64 290 l 67 290 l 67 286 l 64 286 l 64 290 m 67 286 l 70 286 q 77 273 76 286 q 67 286 73 273 m 100 283 q 106 277 106 282 l 106 275 q 100 280 100 275 l 100 283 m 1 262 q 41 221 39 221 l 57 224 l 57 221 q 67 234 67 224 q 64 237 64 234 l 70 239 q 75 221 75 222 q 73 214 73 216 l 75 214 q 47 178 68 197 l 47 152 q 1 113 38 152 l 1 175 l 8 185 l 8 188 q -2 218 1 195 l 1 224 l 1 262 m 62 257 l 64 257 l 64 252 l 62 252 l 62 257 m -5 214 l -2 214 l -2 203 l -5 203 l -5 214 m 44 144 l 47 139 l 47 82 q 41 77 47 77 l 11 111 q 44 144 11 114 m -12 113 q -10 105 -12 105 q -12 87 -12 102 q -18 92 -18 87 l -18 103 l -15 108 q -18 111 -18 108 l -12 113 m 1 111 q 47 69 37 69 l 47 0 l 1 0 l 1 23 l 8 33 l 8 36 l 1 46 l 1 111 z "},"G":{"ha":653,"x_min":-130,"x_max":713,"o":"m 379 880 l 392 880 q 394 874 392 874 l 392 869 l 394 854 l 415 864 q 418 861 415 861 l 418 867 l 422 867 q 428 854 422 860 q 407 841 407 845 q 605 857 499 857 l 615 857 l 615 810 q 392 789 499 810 q 376 805 392 793 q 317 772 365 782 q 258 751 292 764 l 266 762 l 266 764 l 237 795 q 286 812 241 795 q 302 798 286 809 q 366 833 334 833 l 376 836 q 371 841 376 841 q 369 838 371 838 q 366 841 369 841 l 366 838 q 351 844 357 844 l 353 857 l 356 857 q 358 854 358 857 l 363 857 l 366 857 l 374 851 l 374 854 l 379 851 l 382 851 l 382 867 l 379 871 l 382 871 l 379 877 l 379 880 m 310 828 q 315 821 310 821 q 299 805 315 817 l 292 815 q 310 828 299 815 m 376 795 q 382 789 382 794 l 382 787 l 366 785 q 376 795 366 789 m 233 789 l 258 762 q 220 733 230 733 l 194 762 l 194 764 q 233 789 214 789 m 184 766 l 186 766 l 184 762 q 214 730 187 762 q 174 705 181 705 q 151 728 174 708 q 109 687 147 728 l 130 664 l 99 628 q 73 654 99 631 q 56 635 73 650 l 56 638 q 184 766 96 712 m 269 726 l 271 726 l 271 713 q 281 710 275 710 l 281 707 l 271 707 q 269 710 271 710 q 263 694 269 694 q 258 707 263 707 l 258 718 l 263 715 l 266 715 l 269 726 m 220 723 l 225 723 l 225 720 l 220 720 l 220 723 m 330 723 q 338 720 335 720 q 330 705 330 710 l 335 702 l 348 702 l 348 700 q 343 694 348 694 l 338 694 q 322 710 334 694 q 330 723 328 723 m 425 723 q 433 718 425 718 q 422 707 422 711 l 418 707 q 425 723 420 723 m 151 720 l 168 700 q 138 671 168 697 l 135 671 q 117 690 131 671 l 151 720 m 227 720 l 230 715 l 222 715 q 227 720 223 720 m 392 718 q 407 702 405 702 q 399 690 399 692 l 397 690 l 397 697 l 392 694 q 382 710 392 700 l 382 713 q 392 718 385 713 m 256 710 l 258 705 l 250 705 q 256 710 252 710 m 312 707 q 330 682 330 695 l 325 679 l 322 679 l 320 697 l 302 687 l 299 692 l 299 694 q 312 707 312 694 m 428 692 l 443 687 q 446 690 443 690 q 448 687 446 687 q 451 690 448 690 l 451 671 l 446 674 l 446 671 l 435 677 q 433 674 435 674 q 430 677 433 677 q 428 674 430 674 l 428 677 q 420 674 422 674 q 425 651 420 670 q 415 648 419 651 q 407 666 409 666 q 428 692 410 677 m 210 687 l 214 687 l 214 684 l 210 684 l 210 687 m 387 682 q 389 679 387 679 l 387 664 l 382 666 q 379 664 382 664 q 374 677 379 670 q 387 682 378 677 m 235 674 l 240 674 q 245 664 240 664 l 248 664 l 248 656 q 240 648 240 656 l 235 648 l 237 654 l 237 659 q 235 661 237 661 l 237 666 q 235 674 235 671 m 184 669 l 184 666 q 178 661 184 661 l 178 664 q 184 669 180 669 m 248 656 l 250 656 l 250 651 l 248 651 l 248 656 m -81 654 q -73 651 -76 651 l -75 646 l -75 643 l -63 628 l -63 625 q -83 610 -64 619 q -104 633 -100 610 q -81 654 -104 649 m 276 646 l 286 646 l 289 630 l 292 630 l 304 638 l 307 633 q 297 625 297 629 l 297 618 q 310 612 308 612 q 302 605 310 609 q 286 612 302 612 q 284 602 284 608 l 273 602 q 281 610 273 610 q 279 612 281 612 l 281 618 l 281 620 q 271 623 275 620 q 269 620 271 620 q 266 623 269 623 q 263 620 266 620 l 263 628 l 276 628 q 281 633 281 628 q 276 646 276 642 m 73 643 q 96 620 77 643 q 76 582 81 604 l 73 582 q 43 612 70 582 q 73 643 43 616 m 201 643 l 201 638 q 194 623 199 623 l 191 628 q 201 643 197 643 m 186 638 l 189 633 l 184 630 l 181 635 l 186 638 m 132 635 l 135 635 l 135 630 l 132 630 l 132 635 m 151 630 l 151 625 q 142 607 142 625 l 138 607 q 135 618 138 618 q 151 630 139 630 m 127 620 l 132 620 l 132 618 l 127 618 l 127 620 m 199 620 q 204 615 204 619 l 199 612 l 199 620 m 151 618 l 155 618 l 155 612 q 151 618 151 612 m 35 607 q 71 569 71 576 l 68 564 l 68 561 l 71 561 q 89 574 71 574 q 109 561 102 574 q 106 558 106 561 l 109 558 l 125 569 q 119 582 119 577 l 125 584 q 132 569 132 574 l 135 569 l 142 582 l 148 582 q 153 576 153 581 q 115 543 149 576 l 115 548 l 119 558 l 115 558 q 102 541 110 558 q 92 533 92 535 q 68 558 68 533 l 66 558 q 56 509 66 552 q 63 489 63 509 l 56 484 l 56 494 l 53 494 q 33 461 53 473 l 33 458 q 73 417 33 455 q 112 430 85 430 l 112 437 l 106 435 l 106 448 l 117 461 q 102 476 113 461 q 106 484 106 476 q 102 499 102 492 l 99 499 l 99 494 l 96 494 l 96 502 q 109 509 96 507 q 119 486 119 490 l 140 502 l 148 492 q 135 473 135 482 q 155 463 149 463 q 148 453 152 453 l 151 440 l 148 430 q 184 417 184 422 q 153 422 166 422 l 153 420 q 181 368 170 368 q 189 358 186 358 q 184 351 186 351 l 174 355 l 174 345 l 178 345 l 184 348 l 184 345 q 199 351 199 348 l 204 348 q 207 351 207 348 q 214 348 212 348 q 222 351 217 348 l 233 348 q 276 355 263 355 l 279 355 l 279 353 q 243 340 279 349 q 240 342 243 342 q 237 340 240 340 l 237 342 q 197 330 213 330 q 233 294 229 307 q 240 289 240 294 l 240 283 l 235 283 l 225 292 q 217 271 217 275 l 220 271 q 217 263 217 266 l 212 263 l 212 269 l 204 269 q 178 253 204 262 l 178 248 q 174 217 178 235 l 184 217 q 165 207 184 211 q 161 194 165 200 q 171 181 171 191 l 168 181 l 158 184 l 161 189 l 155 191 q 153 189 155 189 l 153 191 l 148 189 q 112 212 144 189 l 112 209 q 353 68 168 120 q 363 52 360 52 q 369 65 369 61 q 399 60 389 60 q 394 24 394 38 l 392 24 q 382 37 392 32 l 379 37 q 374 32 374 37 l 374 16 q 161 101 288 25 q 122 132 161 104 l 122 125 l 115 125 q 86 171 115 146 l 71 181 q 50 220 71 197 l 45 220 l 40 217 l 40 220 q 37 217 37 220 l 24 220 l 9 220 l 9 217 l 27 191 l 24 191 q -12 227 -4 227 l -12 233 l -3 233 q -19 283 -14 262 q -16 286 -16 283 l -22 289 l -22 286 l -27 289 q -37 286 -31 286 l -37 289 l -42 286 l -47 286 q -50 289 -50 286 l -73 281 l -73 283 l -88 279 l -88 281 l -94 279 l -104 279 l -104 286 q -39 302 -47 293 q -37 299 -39 299 l -37 304 q -68 332 -56 332 l -68 335 l -65 340 q -45 325 -53 339 l -42 325 q -47 345 -42 332 l -42 345 q -27 315 -42 342 l -22 315 l -22 332 q -24 335 -22 335 q -22 358 -22 336 q -12 319 -13 358 q -14 317 -14 319 q 7 312 -5 312 q 17 319 17 316 q 4 342 7 339 l 4 345 l 40 384 q 7 417 9 417 q 9 499 7 444 q 7 502 7 499 q 40 535 10 502 l 4 574 l 4 576 l 14 579 l 27 576 q 35 600 35 593 q 30 605 30 600 l 35 607 m 348 605 q 356 602 353 602 q 353 600 356 600 l 358 589 q 356 587 356 589 q 361 579 361 587 q 387 592 363 579 l 392 582 q 374 566 374 570 l 374 561 q 392 548 377 561 q 387 535 387 540 l 382 535 l 382 541 l 376 538 q 361 553 376 547 q 353 530 353 541 q 338 541 340 530 q 348 561 343 541 l 346 561 l 340 558 q 338 561 340 561 l 338 558 l 322 564 q 320 561 322 561 l 320 576 l 325 574 l 343 574 q 348 579 348 574 q 340 600 340 593 q 348 605 348 602 m 220 597 l 225 594 q 227 597 225 597 l 227 594 l 225 582 l 217 587 q 220 597 220 591 m 197 589 q 227 553 227 578 q 230 551 230 553 l 225 548 q 217 566 217 559 l 201 556 l 199 561 l 199 564 q 210 569 201 564 l 210 574 q 197 582 210 580 l 197 589 m 237 579 l 240 574 l 240 571 l 230 571 q 237 579 230 575 m -109 576 l -101 576 q -88 564 -98 576 l -91 564 l -88 558 l -91 553 l -88 553 q -109 538 -96 538 l -114 538 q -130 556 -119 538 q -109 576 -130 576 m -1 566 q 30 535 3 566 q 14 520 30 532 q 12 522 14 522 q 4 509 12 509 l 1 509 l -3 512 l -3 507 l -6 507 q -19 522 -11 507 q -35 535 -27 522 q -14 556 -35 538 q -12 548 -12 551 l -9 548 q -1 566 -9 565 m -22 561 q -45 533 -22 558 q -32 520 -41 533 l -35 520 q -50 535 -39 520 q -22 561 -50 561 m 145 561 q 155 558 150 558 q 132 522 155 522 l 127 522 q 117 535 127 524 l 145 561 m 7 541 l 7 535 l 9 535 q 14 541 14 535 l 12 541 q 9 538 12 538 q 7 541 9 541 m 256 528 l 266 522 q 269 525 266 525 l 269 522 q 261 494 261 505 l 266 497 q 269 494 266 494 q 271 497 269 497 l 271 494 l 276 497 l 279 497 l 284 494 q 286 497 284 497 q 289 494 286 494 l 286 489 l 289 484 q 263 481 264 484 l 271 456 q 263 450 263 453 q 248 476 256 450 l 243 476 q 222 463 243 467 l 217 471 q 237 486 237 483 l 214 507 q 222 515 222 507 l 243 502 l 248 502 l 245 507 q 256 528 250 507 m -19 509 l -12 499 l -12 492 q 1 469 0 492 l -14 453 l -19 456 q -22 453 -22 456 q -39 469 -36 458 l -37 469 l -39 473 l -39 479 q -27 492 -33 492 l -27 494 l -32 502 l -19 509 m 458 507 l 466 507 q 461 502 466 502 l 458 507 m 451 502 q 461 499 455 499 l 461 494 q 451 497 456 497 l 451 502 m 73 481 l 79 479 q 81 481 79 481 q 83 479 81 479 q 86 481 83 481 q 102 463 102 465 l 102 456 q 76 437 89 437 l 76 427 l 73 427 q 58 446 58 437 l 60 458 l 50 450 q 43 458 47 450 q 63 479 43 462 q 73 476 68 476 l 73 481 m 572 479 q 576 473 576 478 l 576 469 l 572 471 l 572 466 l 569 466 l 566 476 l 572 479 m 469 476 l 471 476 q 481 466 471 466 l 481 461 l 477 461 l 477 456 l 487 456 l 487 463 l 484 469 l 490 469 q 503 461 490 461 l 513 461 q 517 473 513 473 q 526 466 517 466 l 523 461 l 523 458 q 536 448 536 458 q 541 450 541 448 l 559 448 l 615 448 q 654 446 628 448 l 654 443 q 638 435 638 443 l 638 425 q 667 417 638 417 q 697 448 686 417 l 700 448 l 700 435 l 705 435 l 713 440 l 713 437 q 680 404 703 404 q 638 394 638 398 l 638 384 q 644 368 638 377 q 638 363 638 368 l 638 330 q 646 319 646 330 q 638 307 640 319 q 646 294 644 294 q 618 273 637 273 q 595 281 601 281 l 595 299 l 576 296 l 569 296 q 566 289 569 289 q 559 296 559 289 l 556 296 l 543 294 q 623 345 576 334 l 623 348 q 612 358 623 352 l 602 358 q 582 345 587 345 l 582 348 q 564 363 582 363 q 562 355 564 361 l 566 353 q 551 332 555 332 q 515 302 515 306 l 505 315 l 487 315 q 481 322 487 322 l 477 322 l 471 319 q 458 332 471 323 q 446 351 458 336 q 438 348 441 348 q 441 361 441 351 q 428 371 433 361 l 425 371 l 425 374 l 435 374 l 435 376 l 433 381 q 451 384 441 381 q 435 391 448 391 q 438 399 438 397 l 443 397 l 446 401 l 441 404 l 328 404 l 328 448 l 433 448 l 433 450 l 425 461 q 435 466 435 461 l 438 466 q 443 458 438 458 q 448 463 444 463 l 448 458 l 443 450 l 443 448 l 448 448 q 456 458 456 448 l 458 458 q 466 453 458 453 l 464 448 l 479 448 l 461 469 q 469 476 469 469 m 551 469 l 553 469 l 553 463 l 551 463 l 551 469 m 710 466 l 710 463 q 705 458 710 458 l 705 461 q 710 466 706 466 m -71 458 l -68 458 l -68 453 l -71 453 l -71 458 m 104 422 l 102 417 l 148 391 l 151 391 l 151 394 l 148 399 l 151 399 q 140 422 140 420 l 135 420 q 115 422 121 422 q 106 420 109 420 q 104 422 106 422 m 50 410 l 50 394 q 63 378 50 380 l 63 391 q 56 404 63 404 l 58 410 l 50 410 m 197 412 q 201 407 201 411 l 197 407 l 197 412 m 7 407 q 30 384 10 407 q -1 353 30 380 l -3 353 l -6 366 q 4 376 -5 374 l 7 371 q 4 368 4 371 l 9 366 l 9 376 q 1 381 1 376 l 7 389 l 7 394 q -12 387 -3 387 l -12 374 q -14 371 -12 371 l -12 366 l -12 361 q -19 376 -19 361 l -22 376 l -27 374 l -27 381 q -6 404 -20 381 l -6 397 l -1 399 q 1 397 -1 397 q 7 407 7 403 m 569 399 l 569 397 l 585 397 l 585 399 q 579 404 585 404 l 574 404 q 569 399 569 404 m 178 404 q 186 401 184 401 l 186 394 q 181 389 186 389 l 178 389 q 171 399 175 389 l 178 404 m 109 397 l 109 391 q 138 366 113 391 q 158 351 142 366 l 158 355 q 142 378 158 374 q 109 397 113 397 m 402 394 l 405 394 q 422 387 410 394 l 425 387 l 425 384 q 412 378 412 384 l 412 376 l 410 376 q 407 381 410 381 q 399 378 402 378 l 405 387 q 402 394 402 391 m 438 389 l 443 389 l 443 387 l 438 387 l 438 389 m 574 387 q 572 381 574 381 l 574 376 q 572 368 572 371 q 595 361 589 361 l 595 374 l 576 378 l 576 381 l 582 381 l 582 387 l 574 387 m 86 384 l 86 376 q 104 366 86 373 l 106 366 l 106 368 q 89 384 106 371 l 86 384 m 361 387 l 366 387 q 376 381 366 381 q 369 376 376 376 l 371 363 q 351 381 355 372 q 361 387 361 381 m 356 368 l 358 368 l 358 363 l 356 363 l 356 368 m 53 363 q 60 325 56 355 l 66 328 q 68 325 66 325 l 71 330 q 56 363 71 363 l 53 363 m 430 361 l 433 361 q 430 353 430 356 q 425 358 425 353 l 430 361 m 585 358 l 585 353 l 589 353 l 589 358 l 585 358 m 420 355 l 425 355 q 435 345 425 345 l 433 340 l 428 342 l 420 342 l 420 335 l 418 335 q 410 351 418 344 q 420 355 414 351 m 654 355 l 664 355 l 664 353 l 654 353 l 654 355 m 92 351 l 92 345 l 94 332 l 99 332 l 104 335 l 104 332 q 122 340 122 336 q 92 351 93 351 m 602 351 l 610 351 l 610 348 l 602 348 l 602 351 m 648 351 l 651 351 q 656 342 651 342 l 656 338 l 654 338 q 648 345 648 338 l 648 351 m 674 338 q 677 322 674 326 q 661 315 667 315 l 661 317 q 674 338 671 338 m 566 330 l 569 330 q 564 325 569 325 l 562 325 q 566 330 562 330 m 399 325 l 402 325 q 412 317 402 317 l 407 309 l 410 304 q 397 302 401 304 q 392 315 397 308 q 399 325 399 315 m 433 325 l 435 325 l 435 319 l 433 319 l 433 325 m 119 315 l 125 307 l 125 296 l 112 294 l 109 299 l 109 312 l 96 309 l 96 307 l 99 302 l 96 302 q 102 292 98 292 q 99 289 102 289 q 115 256 102 256 l 135 250 l 161 260 q 163 258 161 258 l 165 263 l 165 269 l 158 269 q 138 283 140 269 q 158 304 140 304 l 158 307 q 148 319 151 319 q 119 315 121 315 m 469 317 l 471 317 l 471 309 l 469 309 l 469 317 m 543 317 l 549 317 l 549 315 l 543 315 l 543 317 m 543 315 q 546 307 543 312 q 533 294 543 307 l 536 289 q 533 279 536 283 q 536 269 536 274 q 530 273 530 269 l 530 289 l 528 289 q 507 258 520 289 l 505 258 l 505 263 q 543 315 505 287 m 68 307 q 66 304 68 304 q 79 276 73 276 l 81 276 q 68 307 79 307 m 199 307 l 199 304 q 214 286 212 286 q 222 289 220 289 l 222 294 q 199 307 222 300 m 503 302 l 507 302 l 507 299 l 503 299 l 503 302 m 656 302 l 661 302 q 677 292 677 296 q 674 283 674 286 l 669 283 q 656 299 667 299 l 656 302 m 184 296 q 197 276 194 276 l 201 279 q 186 296 197 290 l 184 296 m 551 279 q 556 273 556 278 l 556 271 q 551 276 551 271 l 551 279 m 115 276 l 122 276 l 122 266 q 112 263 117 263 l 109 263 l 109 271 q 115 276 110 276 m 651 276 l 656 276 l 656 273 l 651 273 l 651 276 m 669 276 l 671 276 l 671 269 l 669 269 l 669 276 m -6 271 q 1 245 -6 267 l -1 245 q 9 230 5 230 l 14 230 q 17 233 17 230 l 22 230 l 27 230 l 33 233 q 35 230 33 230 l 37 235 q -1 269 32 235 l -1 271 l -6 271 m 17 271 q 33 256 17 267 l 35 256 q 17 271 31 271 m 595 273 q 623 266 618 266 q 638 271 633 271 l 638 258 q 644 243 638 251 q 635 230 640 243 q 615 237 623 237 q 579 224 581 224 l 579 227 q 595 253 595 245 l 595 273 m 648 273 l 651 273 l 651 266 l 648 266 l 648 273 m 484 271 l 487 271 l 487 266 l 484 266 l 484 271 m 582 271 l 585 271 q 592 258 590 271 l 585 253 l 574 253 l 574 256 l 582 256 l 582 271 m 556 269 l 556 263 l 551 263 q 556 269 552 269 m 654 263 l 664 263 l 664 260 l 654 260 l 654 263 m 503 256 l 505 256 l 505 250 l 503 250 l 503 256 m 564 243 l 569 243 l 569 240 l 564 240 l 564 243 m 140 233 q 158 222 140 229 l 163 222 l 163 227 l 161 233 l 155 230 l 153 230 l 140 233 m 471 233 l 474 233 l 474 227 l 471 227 l 471 233 m 428 230 l 430 230 q 443 209 430 211 l 454 214 l 454 212 q 441 184 441 188 q 422 197 422 189 q 428 230 422 204 m 618 230 q 633 224 626 224 q 585 212 633 218 l 585 214 q 618 230 585 220 m 469 227 l 471 227 l 471 222 l 469 222 l 469 227 m 466 222 l 469 222 l 469 217 q 441 168 453 177 l 438 168 q 422 184 422 168 q 443 176 435 176 q 466 222 466 218 m 135 217 l 135 214 q 153 197 135 210 l 158 197 q 161 209 158 205 q 135 217 155 209 m 638 214 l 638 191 l 644 184 l 638 184 l 638 150 l 641 150 l 641 158 l 644 158 q 654 153 644 153 l 654 150 q 638 142 638 149 l 638 117 q 641 114 638 114 l 638 109 l 638 42 l 641 37 l 638 37 q 631 40 633 40 q 618 6 618 15 l 623 4 l 638 6 l 638 -4 q 623 -7 623 -4 l 597 -4 l 579 -4 q 517 -1 554 -4 q 507 -4 513 -4 q 494 -1 503 -1 l 497 -7 l 494 -7 q 481 -4 491 -4 q 474 -12 474 -7 l 461 -12 q 477 1 461 -8 l 566 1 q 587 42 570 1 l 595 42 l 595 52 q 592 55 595 55 l 595 60 l 595 65 l 589 63 l 589 68 l 576 65 l 576 73 q 585 86 583 73 q 595 104 595 86 q 610 99 603 99 q 635 150 614 104 l 631 153 q 597 130 619 146 l 595 130 q 592 142 595 142 l 595 148 l 595 189 l 592 189 l 587 186 q 585 194 587 189 q 587 197 587 194 l 592 194 l 595 194 q 608 207 595 207 l 638 214 m 572 212 l 574 212 l 574 207 l 572 207 l 572 212 m 536 209 l 538 209 l 538 204 l 536 204 l 536 209 m 651 209 l 656 209 l 656 207 l 651 207 l 651 209 m 682 186 l 684 186 l 684 181 q 677 178 682 181 l 677 181 q 682 186 677 186 m 37 181 l 43 181 l 43 178 l 37 178 l 37 181 m 582 181 l 585 181 l 585 173 q 579 161 585 161 q 589 148 584 149 q 579 132 586 132 q 559 142 579 142 q 562 150 562 147 l 566 148 q 582 181 575 148 m 644 176 q 661 171 650 171 l 661 165 l 644 161 l 644 165 q 646 168 644 168 l 644 173 l 644 176 m 664 173 l 669 173 q 674 168 669 168 l 674 165 l 667 165 q 664 173 667 168 m 664 150 l 667 150 q 677 140 671 150 l 671 137 q 664 150 671 142 m 505 148 l 510 148 l 510 145 l 505 145 l 505 148 m 510 145 l 515 145 q 533 130 517 145 l 549 137 l 551 132 l 551 130 l 538 127 q 543 101 543 108 l 541 101 l 543 96 l 543 94 l 538 96 q 528 78 534 78 l 530 96 l 530 104 q 510 145 530 124 m 536 145 l 543 145 q 538 140 543 140 l 536 145 m 692 145 l 697 145 l 697 142 l 692 142 l 692 145 m 487 140 q 510 127 510 132 l 492 130 l 490 130 q 469 122 481 130 l 469 127 q 487 140 469 136 m 621 137 l 621 135 q 608 106 608 111 q 592 117 592 113 l 621 137 m 682 132 l 684 132 l 684 127 l 682 127 l 682 132 m 551 130 l 553 130 l 553 125 l 551 125 l 551 130 m 684 125 l 687 125 l 687 117 l 684 117 l 684 125 m 572 122 l 574 122 q 576 112 574 116 q 556 96 571 96 q 551 78 556 78 q 549 81 551 81 l 551 86 l 549 91 l 553 91 l 553 96 l 551 109 l 562 117 l 562 109 l 556 109 l 556 101 l 564 101 q 572 122 572 101 m 490 119 l 507 119 q 513 112 510 112 q 503 78 507 78 l 500 78 q 507 112 505 83 q 490 117 501 117 l 490 119 m 651 119 l 654 119 l 654 114 l 651 114 l 651 119 m 464 117 l 466 117 l 466 114 q 458 96 458 101 l 456 96 l 456 109 q 464 117 456 113 m 466 96 l 469 96 q 471 83 469 87 l 466 81 q 464 88 464 85 q 466 96 466 94 m 576 96 l 587 96 q 582 91 587 91 q 576 96 576 91 m 641 96 l 646 96 q 641 91 646 91 l 641 96 m 517 88 l 520 88 l 520 86 q 477 58 520 58 q 466 65 466 62 l 479 63 l 484 63 q 513 76 508 71 q 517 88 517 84 m 659 88 l 664 88 l 664 86 l 659 86 l 659 88 m 569 83 l 572 83 l 572 78 l 569 78 l 569 83 m 446 78 q 451 73 451 77 l 451 65 q 446 71 446 65 l 446 78 m 592 76 l 592 68 l 595 68 l 595 76 l 592 76 m 644 76 l 648 76 l 648 73 l 644 73 l 644 76 m 546 73 l 549 73 q 530 47 549 59 l 530 63 l 546 73 m 646 71 l 651 71 l 651 65 q 646 71 646 65 m 454 60 q 492 47 465 47 l 492 45 q 441 4 482 45 q 428 22 428 7 l 428 24 q 458 50 430 50 l 458 52 l 454 52 l 454 60 m 407 58 l 422 55 q 415 9 415 22 l 412 9 l 399 12 l 407 58 m 576 58 q 582 52 582 57 l 582 50 q 564 9 564 14 l 458 9 q 487 35 468 22 q 507 24 498 24 q 530 42 530 29 l 572 42 q 576 58 572 58 m 641 58 l 644 58 l 644 40 l 641 40 l 641 58 m 433 52 l 435 52 q 428 45 435 49 l 428 47 q 433 52 429 52 m 500 47 q 520 45 514 45 q 523 47 520 47 l 523 42 q 513 32 523 38 l 510 32 q 492 45 496 32 q 500 47 494 45 m 633 29 l 638 29 l 638 14 l 628 14 l 628 16 q 633 29 633 25 m 382 27 q 394 12 385 27 l 392 12 q 382 14 387 14 l 382 27 m 551 -7 l 553 -7 q 538 -27 553 -9 q 530 -24 533 -24 q 520 -32 520 -28 l 507 -30 l 503 -30 q 500 -32 500 -30 q 474 -22 480 -22 l 474 -12 l 484 -12 l 484 -14 q 481 -22 481 -19 l 494 -14 l 497 -14 l 494 -20 l 494 -22 l 497 -22 l 513 -12 l 515 -12 l 515 -14 l 510 -24 q 530 -9 514 -24 l 536 -9 l 533 -14 l 533 -17 l 538 -17 l 551 -7 m 559 -35 l 559 -37 q 543 -63 554 -52 l 543 -60 q 559 -35 553 -35 m 541 -63 l 543 -63 l 543 -68 l 541 -68 l 541 -63 m 526 -79 l 530 -79 l 530 -81 q 526 -86 530 -86 l 526 -79 z "},"H":{"ha":636,"x_min":-218,"x_max":817,"o":"m 801 892 l 804 892 l 804 869 l 801 869 l 801 892 m 459 874 l 469 874 l 469 864 l 459 864 l 459 874 m 492 874 l 503 874 l 503 864 l 490 864 q 492 874 492 868 m -1 859 l 47 859 l 47 795 q 50 798 50 795 q 63 789 63 794 l 63 782 q 47 772 59 772 l 47 734 q 56 721 56 734 l 47 711 l 47 708 q 58 701 58 707 l 58 692 q 47 685 58 685 l 47 665 q 53 654 53 659 l 58 654 q 66 665 59 665 l 73 665 q 81 652 79 665 q 56 634 81 646 l 47 639 l 47 629 q 56 614 56 622 l 58 614 q 71 621 71 619 q 81 618 75 618 l 81 604 q 50 593 81 597 q 47 595 50 595 l 47 585 l 45 585 q 9 621 33 621 q -1 629 -1 625 l -1 701 l -6 708 l -6 713 l -3 718 l -6 718 l -18 715 q -26 718 -24 718 l -26 731 q -18 739 -26 734 l -1 736 l -1 859 m 551 859 l 604 859 l 604 570 q 548 614 548 602 l 551 631 l 548 649 l 551 665 q 548 672 551 672 l 551 703 l 551 859 m 795 859 l 798 859 l 798 854 l 795 854 l 795 859 m 793 851 l 795 851 l 795 843 q 793 836 793 838 l 791 836 l 791 843 q 793 851 793 848 m 459 843 l 469 843 l 469 833 l 459 833 l 459 843 m 490 843 l 503 843 l 503 833 l 490 833 l 490 843 m 795 841 l 801 841 l 801 838 l 795 838 l 795 841 m 801 838 l 804 838 l 804 833 l 801 833 l 801 838 m 114 812 q 122 798 122 810 q 102 777 102 779 q 73 792 73 787 l 73 805 l 86 808 l 96 800 l 99 800 q 114 812 99 812 m 112 810 l 109 805 l 114 802 l 117 808 l 112 810 m 459 812 q 461 810 461 812 l 467 812 l 469 812 l 469 800 l 464 802 l 459 800 l 459 812 m 497 812 l 503 812 l 503 802 q 492 800 496 802 l 492 808 q 497 812 493 812 m 525 812 l 528 812 l 533 810 q 535 812 533 812 l 535 800 q 533 802 533 800 l 528 800 l 525 800 l 525 812 m 814 812 l 817 812 l 817 808 l 814 808 l 814 812 m 785 798 l 788 798 l 788 795 q 778 782 781 782 l 778 785 q 785 798 781 798 m -52 792 l -44 792 q -28 767 -39 792 q -44 744 -39 745 l -54 744 q -60 749 -60 744 l -60 759 q -50 764 -60 764 l -50 767 q -60 782 -60 775 q -52 792 -56 792 m 490 782 q 503 779 494 779 l 503 769 l 490 769 l 490 782 m 459 779 l 469 779 l 469 769 l 459 769 l 459 779 m 525 779 l 535 779 l 535 769 l 525 769 l 525 779 m 627 779 l 632 779 l 632 769 l 622 769 l 622 774 q 627 779 623 779 m 102 759 l 106 759 q 117 741 113 759 l 127 746 q 137 739 137 743 l 137 726 l 124 724 l 104 724 q 94 741 104 730 l 94 751 q 102 759 94 755 m 752 759 l 755 759 l 755 754 l 752 754 l 752 759 m -98 751 q -85 741 -94 751 l -87 736 l -87 734 l -82 734 l -85 728 l -75 721 q -72 724 -75 724 l -67 715 l -75 715 l -80 718 q -82 715 -80 715 q -103 749 -103 732 l -98 751 m 459 749 l 464 749 l 464 746 q 459 741 464 741 l 459 749 m 490 749 l 503 749 l 503 736 l 500 736 q 490 741 500 741 l 492 746 q 490 749 490 746 m 523 749 l 535 749 l 535 736 l 533 736 l 528 739 q 525 736 528 736 l 523 749 m 622 749 l 632 749 l 632 736 l 622 736 l 622 749 m 773 749 l 775 749 l 775 744 l 773 744 l 773 749 m -72 739 q -62 726 -62 736 l -64 726 l -70 728 q -72 726 -70 726 l -82 736 q -72 739 -77 736 m 740 736 q 747 734 745 734 l 747 731 q 737 726 743 731 l 734 726 l 740 736 m 523 718 q 528 713 528 718 l 523 711 l 523 718 m 622 718 l 627 715 l 632 718 l 632 705 l 622 705 l 622 718 m 503 711 l 503 705 l 494 705 l 494 708 q 503 711 497 708 m 99 698 q 112 685 112 694 l 117 685 q 122 692 117 692 l 130 692 q 137 685 133 692 q 112 665 137 669 q 109 662 112 662 l 89 682 l 89 690 q 99 698 89 696 m 722 695 l 724 695 q 727 688 724 692 q 724 685 724 688 l 730 685 q 714 657 718 671 q 717 654 717 657 q 694 657 703 657 q 704 667 694 661 q 714 665 708 665 q 722 695 714 676 m 734 695 q 740 690 740 694 l 734 690 l 734 695 m 740 695 l 745 695 l 745 690 q 740 695 740 690 m 793 695 q 804 692 798 692 q 783 670 785 670 l 783 677 l 785 690 l 791 688 l 793 688 l 793 695 m 765 690 l 770 690 l 770 688 l 765 688 l 765 690 m 487 685 l 494 685 l 494 682 l 487 682 l 487 685 m 614 685 l 625 685 l 625 672 l 620 672 q 614 677 614 672 l 614 685 m 645 685 l 658 685 l 658 672 l 645 675 l 645 685 m 528 682 l 528 672 l 523 672 l 525 677 q 523 680 523 677 l 528 682 m 150 680 l 160 680 q 165 675 165 679 l 165 665 q 155 644 155 652 l 150 644 q 147 647 147 644 l 142 644 l 134 644 l 122 647 l 122 659 q 137 667 124 667 q 142 662 138 662 l 145 662 l 145 675 q 150 680 146 680 m 742 680 l 747 680 l 747 677 l 742 677 l 742 680 m 768 680 l 770 680 l 770 675 l 768 675 l 768 680 m -28 677 l -21 677 q -14 667 -18 677 l -21 654 l -21 652 q -3 637 -3 652 q -14 629 -14 631 q -37 644 -19 629 l -41 644 q -34 675 -38 650 l -28 677 m 770 675 l 773 675 l 773 670 l 770 670 l 770 675 m -98 672 q -93 667 -93 671 l -103 667 q -98 672 -102 672 m -87 670 q -72 667 -83 667 l -75 662 q -90 665 -79 665 l -87 670 m 765 670 q 773 667 770 667 l 773 665 l 765 665 l 765 670 m 737 667 q 745 665 742 665 q 740 659 745 659 l 734 659 l 734 662 l 737 667 m -72 665 l -64 665 q -70 659 -64 659 l -72 665 m 793 665 l 798 665 l 798 662 l 793 662 l 793 665 m 808 665 l 814 665 l 814 662 l 808 662 l 808 665 m -98 659 l -95 659 l -95 652 l -98 652 l -98 659 m -85 657 l -82 657 l -82 649 l -85 649 l -85 657 m 487 654 l 494 654 l 494 649 l 492 649 q 487 654 487 649 m 523 654 l 528 654 l 528 642 l 515 642 q 523 654 518 654 m 614 654 l 620 652 l 625 654 l 625 642 l 614 642 l 614 654 m 645 654 l 648 654 q 650 652 650 654 l 655 654 l 658 654 q 661 642 658 646 l 645 642 l 645 654 m 785 647 l 791 647 q 785 642 791 642 l 785 647 m 94 642 l 99 642 q 106 621 106 642 l 112 624 l 122 624 q 130 614 130 624 q 119 604 127 604 q 89 621 89 604 q 86 624 86 621 l 86 634 q 94 642 86 637 m 737 637 l 745 637 q 752 629 749 637 l 750 616 l 747 616 q 732 631 747 627 q 737 637 732 637 m -108 634 q -103 629 -103 633 l -103 618 l -105 614 l -100 611 q -93 631 -94 611 l -85 631 q -108 604 -85 604 l -108 606 q -115 611 -108 611 l -115 614 q -108 634 -108 625 m -41 631 l -39 631 q -31 624 -35 631 l -31 621 q -52 614 -37 621 l -52 618 q -41 631 -45 631 m -125 629 l -121 629 l -121 627 l -125 627 l -125 629 m 528 624 l 528 618 q 517 616 522 618 l 517 621 q 528 624 524 621 m 696 624 l 701 624 l 701 621 l 696 621 l 696 624 m 785 624 l 788 618 l 788 616 l 781 616 l 781 618 q 785 624 781 624 m -80 621 l -77 621 l -77 616 l -80 616 l -80 621 m 481 621 l 484 621 q 494 614 484 614 l 494 611 l 481 611 l 481 621 m 614 621 l 625 621 l 625 611 l 612 611 q 614 621 614 616 m 645 621 l 658 621 q 661 611 658 616 l 645 611 l 645 621 m 694 621 l 696 621 l 696 616 l 694 616 l 694 621 m 701 621 l 707 621 l 707 618 l 701 618 l 701 621 m 717 621 l 719 621 l 719 614 l 714 614 q 717 621 717 618 m -1 616 l 4 616 q 40 575 40 604 q 15 588 18 588 q -1 550 9 550 l -1 616 m -39 611 q -34 604 -39 604 q -31 606 -34 606 l -31 595 q -41 593 -37 595 q -47 598 -41 598 l -60 588 l -62 588 q -67 593 -67 588 l -67 601 q -62 606 -66 606 q -52 604 -58 604 q -39 611 -52 608 m 704 606 q 722 591 709 591 l 722 575 l 719 575 l 719 581 l 714 581 q 709 572 714 572 l 704 572 l 711 583 l 711 585 q 696 588 700 585 q 694 585 696 585 l 694 591 l 686 591 q 681 583 686 583 l 671 583 l 668 595 q 678 604 668 598 l 691 593 l 696 593 l 696 604 q 704 606 699 604 m 765 606 l 770 606 l 770 598 l 765 598 l 765 606 m 801 604 l 806 604 l 806 598 l 801 598 l 801 604 m 553 593 q 604 560 596 560 l 604 537 q 548 578 587 558 l 548 588 q 553 593 549 593 m 481 591 l 494 591 l 494 581 l 481 578 l 481 591 m 614 591 l 625 591 l 625 578 l 620 581 l 614 578 l 614 591 m 645 591 l 658 591 l 658 581 q 648 578 652 581 l 650 572 l 650 565 l 648 560 q 658 557 652 557 l 658 550 l 653 550 q 632 562 642 560 l 632 572 q 645 585 645 582 l 645 591 m 762 588 l 768 588 l 768 585 l 762 585 l 762 588 m 66 585 q 76 575 76 583 l 81 575 q 94 585 81 585 q 102 583 99 583 l 102 568 q 79 552 102 565 q 53 572 53 566 l 53 575 q 66 585 56 585 m 517 585 l 520 585 q 528 583 525 583 l 528 578 q 525 581 525 578 l 520 578 l 517 578 l 517 585 m 20 578 q 47 568 34 568 l 47 529 q 30 511 47 526 q 2 542 26 528 q 20 578 20 551 m -80 575 l -70 575 l -70 572 l -75 572 l -75 568 l -70 560 l -72 560 q -80 575 -77 560 m -31 572 l -24 572 l -21 568 l -21 565 q -31 570 -27 570 l -31 572 m -62 568 l -52 568 q -47 560 -47 568 l -41 560 l -41 568 l -39 568 q -28 562 -33 562 l -28 560 q -44 542 -44 548 q -67 552 -67 547 l -67 562 q -62 568 -66 568 m 551 565 q 602 527 578 552 l 604 527 l 604 507 q 571 491 604 502 q 564 494 566 494 q 558 475 558 484 l 551 475 q 545 484 551 484 l 545 496 l 551 494 l 551 496 q 548 519 551 509 q 551 540 551 533 l 548 557 q 551 565 551 562 m 724 565 q 727 562 724 562 q 730 565 727 565 l 730 560 q 714 552 714 560 l 711 552 q 709 560 711 555 q 724 565 711 560 m -87 562 l -85 562 l -85 557 l -87 557 l -87 562 m 481 560 l 484 560 q 487 557 487 560 l 492 560 l 494 560 l 494 547 l 481 547 l 481 560 m 528 560 l 528 547 l 517 547 l 517 557 q 528 560 519 557 m 612 555 l 614 555 q 630 547 630 553 l 630 542 q 622 540 627 542 q 612 547 612 543 l 612 555 m 691 550 l 696 550 q 704 542 700 550 l 704 537 q 701 540 701 537 q 686 534 693 534 l 684 534 q 691 550 685 550 m -1 532 q 30 498 10 532 q 47 517 30 503 l 47 501 l 53 501 l 53 498 q 22 486 40 498 q -1 488 8 488 l -1 532 m 665 532 l 684 524 q 671 514 681 514 q 661 524 671 518 l 658 524 q 650 514 658 514 q 648 517 650 517 q 645 514 648 514 l 645 527 l 661 527 q 665 532 665 527 m 481 527 l 494 527 l 494 519 l 492 514 q 481 517 488 517 l 481 527 m 517 527 l 528 527 l 528 514 l 517 514 l 517 527 m 620 527 l 625 527 l 625 524 l 620 524 l 620 527 m -82 524 l -77 524 q -70 517 -77 517 l -67 517 l -67 514 q -80 504 -75 514 l -85 507 q -93 504 -90 504 l -87 511 l -93 519 q -82 524 -82 519 m 73 514 q 83 501 76 501 l 81 496 l 81 494 l 83 488 l 71 488 q 68 498 71 494 q 71 501 71 498 l 66 504 l 58 504 l 53 501 l 53 507 l 68 507 q 73 514 68 514 m 655 511 q 663 509 661 509 l 663 498 q 653 484 653 491 l 643 484 l 643 494 l 648 501 l 648 504 l 645 509 q 655 511 651 509 m -14 509 l -11 509 q -3 507 -6 507 l -3 504 q -14 501 -9 504 l -14 509 m -77 501 l -75 501 l -75 496 l -77 496 l -77 501 m -77 496 q -67 484 -77 484 l -67 481 q -80 475 -80 481 l -80 468 l -82 468 q -87 478 -82 478 q -95 475 -92 475 l -90 484 l -90 486 l -95 494 l -93 494 q -82 491 -88 491 q -77 496 -81 496 m 525 496 l 525 484 l 515 484 l 515 494 q 525 496 521 494 m 622 496 l 622 484 l 612 484 l 612 494 q 622 496 618 494 m 102 494 l 106 494 l 106 491 l 102 491 l 102 494 m 479 494 l 490 494 q 492 484 490 488 l 479 484 l 479 494 m -34 491 l -31 491 q -21 478 -31 478 l -21 475 q -37 468 -28 475 l -47 481 q -34 491 -34 481 m 604 491 l 604 468 q 602 471 602 468 q 587 465 587 468 l 581 468 l 578 468 q 571 460 575 468 q 584 437 571 448 l 587 437 l 602 448 l 604 448 l 604 427 l 600 420 l 600 417 l 604 410 l 604 374 l 602 374 q 576 410 593 395 q 566 399 576 406 l 564 412 q 574 427 574 422 l 568 437 l 571 437 q 561 460 565 460 q 545 453 551 453 l 545 463 q 578 484 558 463 q 604 491 597 491 m 43 488 q 63 455 43 471 q 37 430 50 455 q 4 443 20 443 q 9 465 9 459 q 4 481 9 470 q 25 478 18 478 l 43 488 m 83 488 l 91 488 l 91 486 l 83 486 l 83 488 m 53 486 l 56 486 q 79 465 72 480 q 76 463 76 465 q 91 458 81 458 l 89 453 l 117 453 q 119 455 119 453 l 134 448 l 142 453 l 479 453 q 481 460 479 456 q 479 463 479 460 l 490 463 q 494 453 490 453 l 515 453 l 515 463 l 525 463 q 551 443 525 443 q 558 445 555 445 q 561 437 558 442 l 558 437 l 564 425 q 553 417 553 421 l 553 404 q 556 401 553 401 q 553 394 553 397 q 561 384 557 384 l 564 384 l 576 397 l 604 358 l 604 338 q 594 300 600 300 q 589 304 594 304 l 581 304 q 576 300 576 304 l 576 297 q 584 279 576 288 q 581 277 581 279 q 600 267 591 267 l 597 261 l 602 248 q 576 226 576 239 q 589 210 580 215 q 610 215 600 210 q 612 213 610 213 q 604 203 610 203 l 604 190 q 620 187 618 187 l 620 177 q 604 167 610 177 l 604 3 l 551 3 l 551 19 l 548 19 l 543 16 l 543 29 l 551 29 l 551 50 l 543 50 l 543 62 l 551 62 l 551 144 l 543 144 l 543 157 l 548 154 l 551 154 l 551 177 l 548 177 l 543 174 q 538 195 543 177 l 538 197 q 551 203 538 203 l 551 210 q 548 208 548 210 q 535 218 545 208 q 548 231 535 224 q 551 228 548 228 l 551 248 q 543 264 543 258 q 551 271 547 264 l 551 325 l 545 325 l 545 338 l 551 338 l 551 358 l 545 356 l 545 368 l 551 368 l 551 389 l 545 389 l 545 401 l 551 399 l 551 407 l 137 407 l 137 187 q 140 184 137 184 l 137 180 l 137 154 l 150 157 q 134 144 150 153 q 127 146 130 146 l 127 164 q 119 154 121 164 l 117 154 q 112 159 117 159 q 127 174 112 161 l 127 218 l 124 218 l 119 215 q 117 220 119 220 l 119 226 l 119 381 l 114 381 q 132 407 132 403 l 119 407 q 109 391 119 395 l 109 394 l 117 404 l 117 407 l 73 407 q 68 401 68 406 l 71 397 l 58 387 q 47 389 54 389 l 47 376 l 58 376 l 58 374 l 47 374 l 47 356 q 58 351 47 351 l 58 348 q 47 333 47 348 l 60 323 l 79 325 l 83 325 l 83 323 q 58 307 64 323 l 60 302 q 47 290 58 290 l 47 279 q 50 277 47 277 l 47 271 l 47 180 l 50 164 q 47 151 47 160 l 47 121 l 58 121 q 60 126 58 126 q 104 121 69 126 q 109 126 104 126 l 112 126 l 109 121 q 122 113 109 117 l 122 111 l 140 111 l 140 108 l 130 108 l 130 103 l 137 103 l 134 98 l 142 87 l 142 83 l 127 83 q 117 80 121 83 q 96 87 104 87 q 89 85 92 85 l 89 80 q 99 70 89 76 l 104 70 l 104 75 l 109 75 l 109 67 q 99 60 99 67 l 94 62 l 86 62 l 86 57 l 83 57 l 83 62 l 76 62 q 47 67 54 67 l 50 44 l 47 44 l 50 39 q 47 19 47 25 q 53 14 53 18 q 50 -4 50 3 l 47 -4 l 47 3 l 22 3 l 22 -1 l 20 -1 l 20 3 l -1 3 q -3 14 -1 14 l -1 19 l -1 44 l -3 44 l -21 31 l -24 31 l -8 50 l -3 47 l -1 47 l -1 50 q -3 52 -1 52 l -1 57 l -1 67 l -3 67 q -31 57 -13 62 l -28 62 q -31 64 -28 64 l -28 70 q -37 80 -33 80 l -47 80 l -52 77 q -60 90 -52 83 l -60 96 q -50 103 -50 96 l -50 106 q -52 108 -50 108 l -50 113 q -64 121 -52 121 l -64 123 l -54 123 q -26 118 -31 118 l -31 111 l -31 108 q -21 103 -21 108 l -34 106 l -47 106 l -47 103 q -26 96 -45 96 l -21 96 l -8 98 l -8 100 l -14 100 l -14 103 l -3 103 l -3 108 l -18 108 l -18 111 l -3 111 l -3 113 q -44 131 -3 122 l -60 131 q -64 141 -60 135 l -14 141 l -14 144 l -26 157 l -24 157 q -8 146 -8 151 q -11 144 -11 146 l -1 139 l -1 141 q -3 144 -1 144 l -1 149 l -1 161 l -8 174 l -6 174 l -1 172 l -1 210 l -6 210 l -6 205 l -14 210 q -16 203 -16 205 l -21 205 l -28 205 q -31 203 -31 205 q -64 228 -64 212 q -72 233 -64 233 l -70 238 q -72 241 -72 238 l -70 241 q -77 248 -70 248 l -77 251 l -70 251 l -70 261 l -75 269 q -70 277 -70 269 l -67 277 l -54 267 q -39 284 -39 275 l -34 281 l -31 281 l -31 284 q -37 290 -31 290 l -39 290 l -39 284 q -47 292 -43 284 q -34 300 -34 292 l -26 294 q -11 304 -16 304 l -11 310 q -26 330 -26 325 q -28 328 -28 330 q -41 333 -37 333 l -39 338 q -52 351 -39 341 l -57 348 q -60 351 -57 351 q -70 338 -60 345 q -54 323 -70 334 l -41 333 l -41 325 q -52 315 -47 325 l -52 313 l -50 294 q -70 277 -69 290 l -75 279 q -82 277 -79 277 l -75 290 q -77 300 -77 294 q -67 310 -73 300 q -77 317 -67 316 l -77 345 q -95 356 -91 345 l -95 363 l -93 368 q -95 371 -95 368 q -72 391 -84 378 l -72 378 l -67 378 l -62 381 l -62 376 l -67 376 l -67 363 l -60 363 l -47 381 l -41 378 q -39 381 -41 381 l -39 378 l -28 384 q -37 401 -28 401 l -37 404 l -31 404 l -34 410 q -14 420 -22 413 q -24 430 -16 430 l -21 435 l -21 443 l -26 443 l -34 432 l -34 430 l -37 430 q -50 435 -37 435 l -44 443 l -44 448 l -50 448 l -50 453 l -47 453 l -39 448 l -37 448 l -34 458 l -31 458 l -31 445 l -18 445 l -21 450 q -16 455 -16 450 q -18 458 -18 455 q -8 475 -14 458 q -11 478 -11 475 l -6 481 q 2 460 2 470 q -6 437 -6 444 q 40 417 18 437 q 53 443 43 417 q 73 458 70 450 q 53 475 53 473 l 53 486 m 91 486 l 96 486 l 96 484 l 91 484 l 91 486 m 102 478 l 106 478 l 106 475 l 102 475 l 102 478 m 106 475 q 112 471 112 475 l 106 471 l 106 475 m 112 471 q 117 465 117 470 l 117 463 q 112 468 112 463 l 112 471 m 643 463 l 655 463 q 643 450 653 452 l 643 463 m 622 460 l 622 453 l 612 453 l 612 455 q 622 460 616 455 m 597 458 q 584 450 597 452 l 584 455 l 597 458 m -72 450 l -64 450 l -64 443 l -67 443 q -72 448 -72 443 l -72 450 m -90 445 l -87 445 q -72 437 -87 437 l -72 435 q -82 422 -82 435 l -85 422 q -87 425 -87 422 l -93 422 l -95 422 q -105 435 -95 435 l -105 437 l -90 437 l -90 445 m 643 432 l 653 432 l 653 425 q 648 420 653 420 l 643 420 l 643 432 m -154 420 l -144 420 l -144 401 q -149 397 -144 397 l -154 397 l -159 414 q -154 420 -158 420 m -18 404 l -18 401 q -11 397 -11 401 l -14 397 q -21 399 -18 399 l -26 391 l -26 389 q -11 384 -12 384 q -6 389 -10 389 q -1 384 -5 384 l -1 391 l -11 394 l -11 397 q -3 401 -3 397 q -11 410 -3 406 l -14 410 q -18 404 -18 408 m -50 410 l -47 410 q -39 401 -47 401 q -44 389 -44 393 l -57 391 q -50 410 -50 407 m 525 401 l 525 389 l 515 389 l 515 399 q 525 401 516 399 m 622 401 l 622 389 l 612 389 l 612 399 q 622 401 618 399 m 643 401 q 655 399 647 399 q 653 389 653 395 l 643 389 l 643 401 m 479 399 l 490 399 l 490 389 l 479 389 l 479 391 l 481 397 q 479 399 479 397 m 104 391 l 109 391 q 104 387 109 387 l 104 391 m 66 389 l 71 389 l 79 384 l 83 387 q 91 378 83 378 l 91 376 q 81 371 90 376 l 81 368 l 83 363 q 68 361 81 363 l 53 361 l 53 363 l 73 363 l 73 366 l 68 374 l 63 371 l 60 371 l 60 376 q 71 378 62 376 l 71 381 l 66 389 m 122 387 l 122 279 q 124 277 122 277 l 122 271 l 122 233 q 127 228 123 228 l 127 325 q 130 328 127 328 q 127 330 130 330 l 130 361 l 130 371 l 127 376 l 130 376 q 127 387 127 380 l 122 387 m 99 387 l 104 387 l 104 384 l 99 384 l 99 387 m -28 381 l -34 374 q -31 371 -31 374 q -37 366 -37 370 l -37 358 q -28 351 -28 358 l -16 358 l -16 343 q -1 351 -6 351 l -1 356 l -14 356 l -11 361 q -28 381 -14 381 m 96 384 l 99 384 q 94 378 99 378 l 91 378 q 96 384 92 384 m 112 378 l 112 320 q 106 315 112 315 l 104 315 q 99 325 99 315 l 89 325 l 89 281 l 86 281 l 86 325 l 83 325 l 86 330 l 86 358 q 83 361 86 361 q 86 371 86 366 q 94 368 91 368 l 112 378 m 89 361 l 89 328 l 99 328 l 99 366 l 94 366 q 89 361 89 365 m 479 368 l 490 368 l 490 358 l 479 358 l 479 368 m 515 368 l 525 368 l 525 358 l 515 358 l 515 368 m 612 368 l 622 368 l 622 358 l 620 358 q 612 368 616 358 m 643 368 l 650 368 l 650 358 q 643 356 648 358 l 643 368 m -11 338 q -1 328 -11 334 l -1 348 q -11 338 -5 348 m 479 338 l 490 338 l 490 325 l 479 325 l 481 330 l 481 333 l 479 338 m 515 338 l 517 338 q 535 328 531 338 q 523 313 535 314 l 515 323 l 515 338 m 614 338 l 622 338 l 622 325 l 612 325 q 614 338 614 330 m 643 338 l 655 338 q 653 325 653 334 l 643 325 l 643 338 m 63 310 l 66 310 q 76 307 70 307 l 76 304 l 66 304 l 63 310 m -11 281 l -11 277 q -1 269 -7 277 l -1 292 q -11 281 -5 292 m 589 292 q 604 281 604 292 l 604 277 l 610 279 q 617 271 613 279 l 617 267 q 610 258 617 262 q 591 279 610 279 l 589 292 m -47 243 l -50 243 l -50 254 l -57 254 l -57 251 q -28 220 -50 220 l -26 220 q -6 236 -9 227 l -6 241 l -16 243 l -11 251 l -11 254 q -24 267 -11 257 l -26 267 q -47 243 -47 251 m -90 254 l -85 254 q -90 248 -85 248 l -90 254 m -39 248 q -28 238 -35 248 l -31 238 q -39 246 -35 238 l -39 248 m 612 243 l 614 243 l 614 233 q 589 220 614 226 l 589 228 q 604 238 594 238 q 610 233 605 233 q 612 243 612 237 m -11 223 q -1 213 -11 219 l -1 233 q -11 223 -5 233 m 60 215 l 63 215 l 63 187 l 58 184 q 60 215 60 203 m 86 205 l 89 205 l 89 200 l 86 182 q 81 187 81 182 l 86 205 m 112 197 l 114 197 l 114 193 l 112 193 l 112 197 m 109 193 l 112 193 l 112 187 l 109 187 l 109 193 m 109 187 l 109 182 q 106 174 106 177 l 102 177 q 109 187 105 187 m 477 187 l 487 187 l 487 177 l 477 174 l 477 187 m 513 187 l 523 187 l 523 174 l 517 177 l 513 174 l 513 187 m 640 187 l 650 187 l 650 177 l 640 177 l 640 187 m 63 180 l 66 180 l 66 172 l 63 172 l 63 180 m 56 172 l 58 172 l 58 154 l 56 154 l 56 172 m -218 170 l -212 170 l -212 167 l -218 167 l -218 170 m -167 167 l -149 167 l -149 164 l -167 164 l -167 167 m 81 167 l 83 167 l 83 161 l 81 161 l 81 167 m 99 167 l 102 167 l 102 161 l 99 161 l 99 167 m -123 161 l -118 161 l -118 159 l -123 159 l -123 161 m -31 159 l -26 159 l -26 157 l -31 157 l -31 159 m 66 157 l 71 157 l 71 154 q 68 146 68 149 l 66 146 l 66 157 m 477 157 l 487 157 l 487 144 l 477 144 l 477 157 m 513 157 q 515 154 515 157 l 520 157 l 523 157 l 523 144 l 510 144 q 513 157 513 148 m 610 157 l 614 154 l 620 157 l 620 144 l 610 144 l 610 157 m 640 157 q 650 154 644 154 l 650 149 q 645 144 650 144 l 640 144 l 640 157 m -138 154 l -131 154 l -121 151 q -118 154 -118 151 q -80 144 -114 154 l -77 144 l -77 141 q -85 131 -85 141 q -113 146 -102 132 q -138 151 -117 149 l -138 154 m 53 154 l 56 154 l 56 149 l 53 149 l 53 154 m 79 154 l 83 151 q 81 144 81 146 l 79 144 l 79 154 m 91 149 q 96 144 96 148 l 91 141 l 91 149 m -182 141 l -169 141 l -169 139 l -182 139 l -182 141 m 104 139 l 106 134 q 99 131 104 134 l 99 134 q 104 139 100 139 m 163 136 l 168 136 l 168 134 l 163 134 l 163 136 m 157 134 l 163 134 l 163 131 q 140 123 158 131 l 140 131 l 157 134 m -141 129 l -136 129 q -131 123 -131 127 l -136 123 q -141 129 -141 123 m 127 129 l 134 129 l 134 126 l 127 126 l 127 129 m -111 126 q -70 118 -99 126 l -75 111 l -75 106 l -72 100 l -77 100 q -90 121 -77 121 q -103 111 -102 116 l -103 106 l -100 100 l -105 100 q -111 126 -105 114 m 119 126 l 124 126 l 124 123 l 119 123 l 119 126 m 620 126 l 620 113 l 610 113 l 610 123 q 620 126 615 123 m 134 123 l 140 123 l 140 121 l 134 121 l 134 123 m 477 123 l 487 123 l 487 113 l 477 113 l 477 123 m 513 123 l 523 123 q 520 121 523 121 l 523 116 l 523 113 l 513 113 l 513 123 m 648 123 l 650 123 l 650 113 l 645 113 l 645 116 q 648 123 648 121 m -70 121 l -64 121 l -64 118 l -70 118 l -70 121 m 173 111 l 173 106 l 157 106 l 145 103 q 173 111 145 109 m 153 98 q 170 83 164 83 l 170 80 q 147 77 161 80 q 145 85 147 85 q 153 98 148 98 m 477 93 l 487 93 l 487 80 l 481 83 l 477 80 l 477 93 m 513 93 l 523 93 l 523 90 q 520 87 523 87 l 523 83 l 523 80 q 513 83 518 83 l 513 93 m 610 93 l 620 93 l 620 83 l 610 83 l 610 93 m 640 93 l 645 93 l 645 90 l 640 90 l 640 93 m -85 85 l -82 85 l -82 80 l -85 80 l -85 85 m -70 77 l -54 77 l -54 70 q -70 75 -62 75 l -70 77 m 99 77 l 104 77 l 104 75 l 99 75 l 99 77 m 117 70 l 124 70 l 124 67 l 117 67 l 117 70 m 140 67 q 155 57 155 61 l 153 57 q 134 62 142 62 l 134 64 q 140 67 140 64 m 481 62 l 487 62 l 487 50 l 477 50 l 477 57 q 481 62 477 62 m 513 62 l 523 62 l 523 50 l 513 50 l 513 62 m 610 62 l 614 60 l 620 62 l 620 50 l 610 50 l 610 62 m 640 62 q 650 60 644 60 l 650 50 l 640 50 l 643 54 q 640 62 640 60 m -37 57 l -31 57 l -31 54 l -37 54 l -37 57 m 60 57 l 63 57 l 63 44 l 58 44 q 60 57 60 49 m 86 57 q 91 52 91 56 l 86 52 l 86 57 m 155 57 l 160 57 l 160 54 l 155 54 l 155 57 m 73 54 l 76 54 q 79 47 76 52 l 73 47 l 73 54 m 130 50 l 137 39 l 134 39 q 124 44 128 44 q 130 50 125 50 m 56 37 l 58 37 l 58 31 l 56 31 l 56 37 m 142 34 l 147 34 l 147 31 l 142 31 l 142 34 m 66 31 l 68 31 l 68 26 l 66 26 l 66 31 m 73 31 l 76 31 l 76 -7 l 73 -7 l 71 9 q 73 31 73 22 m 109 31 l 117 31 q 122 21 117 28 l 122 19 q 109 31 119 19 m 477 29 l 487 29 l 487 19 q 479 16 484 19 l 477 21 l 477 29 m 513 29 l 523 29 l 523 16 q 513 19 518 19 l 513 29 m 610 29 l 620 29 l 620 16 l 614 19 l 610 16 l 610 29 m 640 29 l 650 29 l 650 19 q 640 16 644 19 l 640 21 l 643 26 q 640 29 640 26 m 96 24 l 99 9 l 99 6 l 96 6 l 91 21 l 96 24 m 99 6 l 102 6 l 102 1 l 99 1 l 99 6 z "},"I":{"ha":271,"x_min":-218,"x_max":387,"o":"m 58 860 l 91 860 q 109 821 91 845 l 75 821 q 58 860 75 842 m 106 860 l 176 860 q 150 827 176 842 q 106 857 115 827 l 106 860 m 194 860 l 235 860 q 222 821 222 846 l 173 821 q 194 860 194 847 m 39 857 q 68 824 68 845 l 62 821 l 39 821 l 39 857 m 114 819 q 130 811 130 817 q 117 791 117 805 l 114 791 l 114 819 m 160 814 l 160 742 l 145 742 q 121 780 121 757 q 160 814 132 814 m -68 762 l -66 762 l -66 744 l -68 744 l -68 762 m 114 760 q 145 731 127 740 l 160 731 l 160 646 l 153 646 q 117 613 117 637 l 114 613 q 111 629 114 629 l 114 654 l 114 760 m 230 747 l 237 747 l 237 739 l 230 739 l 230 747 m 209 744 l 209 739 l 204 739 q 209 744 205 744 m -61 724 l -58 724 l -58 718 l -61 718 l -61 724 m 199 721 l 209 721 l 209 711 q 199 713 205 713 l 199 721 m 230 721 l 237 721 l 237 711 q 230 713 233 713 l 230 721 m -68 716 l -66 716 l -66 711 l -68 711 l -68 716 m 171 693 l 181 693 l 178 688 q 181 685 181 688 l 171 685 l 171 693 m 199 693 l 209 693 l 209 685 l 199 685 l 199 693 m 230 693 l 237 693 l 237 685 l 230 685 l 230 693 m -53 677 l -48 677 l -48 672 q -53 677 -53 672 m 88 667 l 94 659 l 94 656 l 83 656 l 83 662 q 88 667 84 667 m 171 667 q 181 656 179 665 l 171 656 l 171 667 m 199 667 l 201 667 q 209 665 206 665 l 209 656 l 199 656 l 199 667 m 83 639 q 88 633 88 638 q 83 629 88 629 l 83 639 m 199 639 l 201 639 l 201 629 l 199 629 l 199 639 m 233 639 l 237 639 l 237 633 q 233 639 233 633 m 160 636 l 160 562 l 153 562 q 121 590 134 568 q 124 593 121 593 l 121 606 l 121 608 q 150 636 130 629 l 160 636 m 171 636 q 181 631 177 631 l 181 629 l 171 629 l 171 636 m -9 626 l -9 621 l -14 621 q -9 626 -14 626 m 176 610 l 181 610 l 181 606 q 176 610 176 606 m -7 593 l -4 587 l -12 587 q -7 593 -11 593 m -61 590 l -61 585 l -56 585 l -51 587 l -51 572 q -66 587 -54 572 l -61 590 m 1 587 l 6 587 q 22 567 6 567 q 26 559 24 567 l 22 559 q -2 580 10 559 q 1 587 1 585 m 60 583 l 71 583 l 71 574 l 60 574 l 60 583 m 91 583 l 98 583 l 98 577 l 91 577 l 91 583 m 114 583 l 117 583 q 150 554 131 554 q 160 551 150 551 l 160 366 l 163 366 l 163 372 l 171 372 q 160 348 160 356 l 160 325 q 163 323 160 323 l 160 317 l 160 217 q 114 245 117 245 l 114 304 l 140 304 q 150 330 148 304 q 114 338 140 338 q 124 372 124 351 q 114 382 121 382 l 114 487 q 134 523 130 503 l 132 528 q 134 536 134 533 q 114 570 130 551 l 114 583 m -79 580 q -61 567 -66 567 l -61 564 l -79 564 l -79 567 l -74 567 l -74 572 l -79 572 l -79 580 m 178 580 l 181 580 l 181 574 l 178 574 l 178 580 m -40 567 l -33 567 l -33 564 l -40 564 l -40 567 m -14 567 l -12 567 q -7 562 -7 566 l -14 562 l -14 567 m -64 554 l -58 554 l -58 551 l -64 551 l -64 554 m 60 554 l 62 554 q 71 546 66 554 l 65 546 q 60 551 60 546 l 60 554 m 91 554 l 98 554 q 101 546 98 551 l 91 546 l 91 554 m 178 554 l 186 554 q 189 546 186 551 l 178 546 l 178 554 m 14 549 l 19 549 l 19 544 q 14 549 14 544 m -14 541 l -12 541 q -4 538 -7 538 l -4 533 q -14 541 -14 537 m 114 541 l 117 541 q 119 536 117 536 q 117 515 117 533 l 114 515 l 114 541 m -20 531 q -9 523 -9 527 l -20 523 l -20 531 m -53 528 l -48 528 l -48 523 l -53 523 l -53 528 m 6 528 q 14 521 9 528 l 6 521 l 6 528 m 60 528 l 71 528 l 71 518 l 60 518 l 62 523 l 60 528 m 91 528 l 101 528 l 98 523 l 101 518 l 91 518 l 91 528 m 178 528 l 186 528 l 186 518 l 178 518 l 178 528 m 217 526 l 217 518 l 207 518 l 207 521 q 217 526 211 521 m -76 515 l -71 515 l -71 513 l -76 513 l -76 515 m -38 515 q -33 510 -33 515 l -38 508 l -38 515 m -71 513 l -68 513 q -64 508 -64 512 l -71 508 l -71 513 m 19 513 l 22 513 q 29 510 26 510 q 24 505 29 505 l 19 513 m -14 510 l -7 510 l -7 500 l -9 500 q -14 510 -9 504 m 42 510 q 52 497 45 510 l 52 495 q 45 492 45 495 q 29 500 35 500 l 29 503 q 42 510 33 503 m 3 503 l 9 500 q 16 503 14 503 l 19 497 q 11 490 14 497 q 3 492 6 492 l 3 503 m 91 500 l 101 500 l 101 497 q 91 495 96 497 l 91 500 m 178 500 l 189 500 q 186 490 186 496 l 178 490 l 178 500 m 207 500 l 217 500 l 217 490 l 214 490 l 209 492 q 207 490 209 490 l 207 500 m 14 490 l 19 490 l 19 487 l 14 487 l 14 490 m 1 479 l 9 479 q 14 474 14 479 l 14 469 q -4 474 6 474 q 1 479 -3 479 m 73 474 q 71 464 71 470 l 62 464 q 60 471 62 467 l 73 474 m 88 471 l 91 467 l 91 459 l 85 459 l 83 469 l 88 471 m 178 471 l 186 471 l 186 464 l 178 464 l 178 471 m 207 471 l 217 471 l 217 467 l 214 461 q 207 464 210 464 l 207 471 m 26 464 l 32 464 q 37 459 37 463 l 37 454 q 32 448 37 448 l 26 448 q 22 454 22 448 l 22 459 q 26 464 22 464 m 42 451 l 50 451 l 50 448 q 45 444 50 444 l 42 444 l 42 451 m 178 446 q 186 444 183 444 l 186 435 l 178 435 l 178 446 m 207 446 l 209 446 l 214 444 q 217 446 214 446 l 217 435 l 207 435 l 207 446 m 62 444 l 68 444 q 62 438 68 438 l 62 444 m 91 444 q 96 438 96 443 l 96 435 l 91 435 l 91 444 m 47 441 l 50 435 l 42 435 q 47 441 43 441 m -140 428 q -113 408 -124 412 q -104 402 -113 402 q -110 382 -110 384 l -107 363 l -110 363 q -136 372 -121 363 q -146 359 -142 359 l -149 359 q -156 385 -153 359 q -169 397 -159 385 l -169 399 q -140 428 -140 402 m 71 420 l 73 420 l 73 408 l 68 408 l 71 420 m 181 418 l 189 418 l 189 408 l 181 408 l 181 418 m 209 418 l 220 418 l 220 408 l 209 408 l 209 418 m 50 395 l 50 387 q 45 392 45 387 l 50 395 m 62 389 l 73 389 l 73 387 q 71 379 71 382 l 68 379 q 62 385 62 379 q 65 387 65 385 q 62 389 62 387 m 94 389 l 101 389 q 104 379 101 384 l 101 379 l 96 382 q 94 379 96 379 l 94 389 m 181 389 l 189 389 l 189 379 q 181 382 184 382 l 181 389 m 209 389 l 220 389 l 220 379 l 214 382 l 209 379 l 209 389 m 94 361 l 98 361 q 94 356 98 356 l 94 361 m 181 361 l 189 361 l 189 353 l 181 353 l 181 361 m 209 361 l 220 361 l 220 353 l 209 353 l 209 361 m 248 351 q 253 346 253 350 l 253 338 l 243 338 q 240 346 243 340 l 248 351 m 78 346 l 81 346 l 81 340 l 78 340 l 78 346 m 94 336 q 98 330 98 334 l 94 328 l 94 336 m 181 336 q 189 333 186 333 l 189 325 l 181 325 l 181 336 m 209 336 l 212 336 q 220 333 217 333 l 220 325 l 209 325 l 209 336 m 119 328 l 121 328 q 140 323 140 327 q 137 315 137 317 l 114 315 l 114 323 q 119 328 115 328 m -48 312 q -33 299 -37 309 l -33 297 q -51 307 -44 307 l -48 312 m 62 307 l 65 307 l 71 304 q 73 307 71 307 l 73 297 l 62 297 l 65 302 l 62 307 m 94 307 l 96 307 l 96 302 l 94 302 l 94 307 m 181 307 l 189 307 l 189 297 l 181 297 l 181 307 m 209 307 l 220 307 l 220 297 l 209 297 l 209 307 m -58 304 l -56 304 q -27 284 -27 287 l -30 284 q -58 297 -50 297 l -58 304 m -64 294 q -43 284 -46 284 l -43 281 l -48 281 q -71 289 -70 289 l -71 292 q -64 294 -68 292 m -25 294 l -20 294 l -20 292 l -25 292 l -25 294 m 286 294 q 307 281 299 281 q 302 271 302 275 l 302 263 q 283 258 292 263 q 271 279 283 269 q 286 294 286 279 m 248 289 q 253 284 253 288 l 248 281 q 243 286 243 281 l 248 289 m -76 286 q -35 269 -39 269 l -35 266 l -38 266 l -87 281 q -89 279 -87 279 l -89 284 l -76 286 m -43 281 l -38 281 l -38 279 l -43 279 l -43 281 m -38 279 l -33 279 l -33 276 l -38 276 l -38 279 m 94 279 l 104 279 q 101 271 101 274 l 94 271 l 94 279 m 186 279 l 189 279 l 189 274 q 181 258 189 260 l 178 258 q 171 266 174 258 l 171 271 q 186 279 173 279 m 209 279 l 220 279 l 220 271 l 209 271 l 209 279 m -33 276 l -27 276 l -27 274 l -33 274 l -33 276 m 62 276 l 65 276 q 71 271 71 275 l 62 271 l 62 276 m -79 271 l -71 271 l -71 269 l -79 269 l -79 271 m -58 263 l -51 263 q -43 261 -45 261 l -43 258 l -51 258 q -58 261 -56 261 l -58 263 m -43 258 l -35 258 l -35 256 l -43 256 l -43 258 m -71 256 l -68 256 l -56 253 l -56 250 l -71 250 l -71 256 m -159 250 l -146 248 l -146 243 l -161 243 q -159 250 -159 248 m -56 250 l -45 250 l -45 248 l -56 248 l -56 250 m -40 248 l -35 248 l -35 245 l -40 245 l -40 248 m -68 243 l -66 243 l -53 240 l -53 237 l -68 237 l -68 243 m -143 235 l -140 230 l -140 222 l -149 222 l -161 220 l -163 233 l -159 230 q -143 235 -151 230 m 114 235 q 160 207 156 207 l 160 191 l 158 191 q 109 225 109 221 q 114 235 114 225 m 258 222 l 258 214 l 240 214 l 240 220 l 258 222 m 379 222 q 387 212 379 212 l 387 207 q 379 197 379 207 q 363 201 370 201 l 363 217 q 379 222 373 217 m 98 217 l 101 217 q 109 210 105 217 l 106 210 q 98 217 102 210 m 243 210 l 256 210 q 253 201 253 204 l 245 201 q 243 210 245 204 m 114 207 l 117 207 q 165 178 157 178 q 168 181 165 181 l 168 171 q 160 165 160 171 l 160 161 q 168 155 168 161 l 168 151 q 160 125 160 141 q 163 119 160 119 l 160 102 l 160 37 l 235 37 l 235 -1 l 73 -1 q 68 -7 68 -2 l 68 -17 l 71 -17 q 91 -14 73 -17 l 94 -14 l 94 -17 q 65 -35 88 -17 l 62 -35 l 65 -22 l 65 -1 l 52 -1 q 50 -17 50 -15 q 62 -35 50 -35 q 47 -47 62 -38 l 29 24 l 32 24 q 42 37 39 24 l 45 37 l 45 58 q 50 83 45 63 l 52 83 l 52 73 q 47 42 52 58 q 52 37 52 42 l 62 37 q 71 55 67 37 l 65 65 q 73 71 73 65 l 73 83 q 65 94 65 83 l 65 102 l 68 102 l 68 91 l 73 91 l 73 99 l 75 99 l 75 40 l 88 37 l 114 37 l 114 138 l 109 135 l 106 135 q 96 140 100 140 l 96 148 l 109 151 l 114 148 l 114 161 l 104 163 l 104 176 l 114 176 l 114 184 q 98 189 102 184 q 114 201 99 196 l 114 207 m 325 181 q 351 155 328 155 q 335 135 335 141 l 332 119 q 296 138 319 127 q 299 145 299 142 l 289 163 q 325 181 309 163 m -199 165 q -163 153 -186 153 q -172 132 -172 136 q -169 130 -169 132 q -182 125 -182 130 l -182 117 q -197 106 -197 116 l -202 106 q -199 109 -202 109 q -218 132 -203 132 q -199 165 -199 149 m -33 148 l -33 142 q -64 122 -37 142 l -68 130 q -33 148 -64 130 m 68 148 l 75 148 l 75 138 q 68 140 71 140 l 68 148 m 183 148 l 191 148 l 191 138 q 183 140 186 140 l 183 148 m 212 148 l 222 148 l 222 138 l 220 138 l 214 140 q 212 138 214 138 l 212 148 m -33 135 l -33 132 q -51 114 -33 128 q -58 117 -56 117 l -58 119 q -33 135 -52 119 m 68 122 q 75 119 73 119 l 75 112 l 68 112 l 68 122 m -35 119 l -33 119 l -33 114 q -40 106 -33 111 q -45 112 -45 106 q -35 119 -41 112 m 96 119 l 104 119 q 106 112 104 117 l 96 112 l 96 119 m 183 119 l 191 119 l 191 112 l 181 112 q 183 119 183 117 m 212 119 l 222 119 l 222 112 l 212 112 l 212 119 m 45 102 l 47 102 l 47 96 l 45 96 l 45 102 m 96 94 l 101 91 q 104 94 101 94 l 104 83 l 96 83 l 96 94 m 183 94 l 191 94 l 191 83 l 183 83 l 183 94 m 212 94 l 222 94 l 222 83 l 212 83 l 212 94 m 83 89 l 85 89 q 88 68 85 68 q 85 55 85 64 l 83 55 l 83 89 m -102 76 l -100 76 q -87 71 -93 71 l -87 55 l -102 52 q -110 65 -102 57 q -102 76 -102 65 m 96 65 l 104 65 l 104 55 l 98 58 q 96 55 98 55 l 96 65 m 183 65 l 191 65 l 191 55 l 186 58 q 183 55 186 55 l 183 65 m 212 65 l 222 65 l 222 55 q 220 58 220 55 l 214 55 l 212 55 l 212 65 m 81 52 l 85 50 q 83 40 83 45 l 81 40 l 81 52 m 335 52 q 345 32 335 48 q 322 22 340 32 l 325 12 q 322 1 322 7 l 335 1 l 343 -4 q 345 6 345 1 l 351 6 l 351 -14 q 330 -7 336 -7 q 309 -12 326 -7 l 309 -7 l 312 12 q 296 29 310 12 q 335 52 320 29 m 345 32 q 366 22 366 27 l 356 14 q 345 22 356 22 l 345 32 m 281 19 l 283 19 q 289 14 289 18 l 286 14 q 281 19 281 14 m -94 -4 l -92 -4 q -71 -14 -92 -14 q -79 -24 -75 -24 l -76 -37 l -76 -40 l -81 -37 l -84 -37 q -100 -43 -91 -37 q -110 -24 -100 -24 l -110 -22 q -94 -4 -96 -22 m 168 -43 q 186 -50 176 -50 l 183 -63 l 186 -68 q 165 -73 173 -68 q 158 -56 165 -63 q 168 -43 168 -56 m 256 -47 l 260 -47 l 266 -50 q 263 -63 263 -54 l 258 -60 q 250 -63 253 -63 l 250 -58 q 256 -47 256 -58 m 9 -50 l 11 -50 l 11 -56 l 9 -56 l 9 -50 m 114 -63 l 117 -63 l 117 -71 l 114 -71 l 114 -63 z "},"J":{"ha":553,"x_min":-68,"x_max":640,"o":"m 332 860 l 434 860 l 407 830 q 446 790 410 830 l 446 753 q 449 724 446 731 q 446 686 446 702 l 446 614 l 449 599 q 446 589 446 595 q 456 606 452 589 l 459 606 q 469 594 459 599 q 474 591 469 591 l 481 591 q 479 584 479 587 q 496 569 484 584 l 506 569 q 501 559 501 563 l 504 554 q 501 545 501 550 q 506 542 506 545 l 519 545 l 524 545 l 524 542 q 504 537 506 537 l 504 534 q 506 532 504 532 l 504 527 q 506 524 504 524 l 504 519 l 513 509 l 501 512 l 494 512 l 494 505 l 498 505 q 491 497 498 497 l 491 490 l 501 488 q 494 480 501 484 q 481 488 494 486 l 479 482 l 479 480 l 484 480 l 484 477 l 469 477 q 467 473 469 473 l 461 475 q 446 455 446 470 l 446 433 l 407 391 q 446 351 410 391 l 446 298 l 464 298 q 474 291 464 292 q 479 303 479 299 l 494 303 l 498 301 q 494 288 494 293 q 452 281 484 288 q 446 286 452 286 l 446 254 l 452 254 q 494 273 452 262 l 506 269 q 509 271 506 271 q 526 254 526 256 l 526 246 q 484 184 526 216 q 437 157 439 161 q 416 110 433 138 l 429 112 l 439 112 q 441 110 441 112 l 446 112 q 524 77 469 104 l 524 73 q 452 100 465 100 q 444 97 447 97 l 444 100 q 419 80 419 96 l 419 75 q 427 73 422 75 q 464 87 427 79 q 486 75 486 82 l 486 65 l 484 65 q 474 77 484 73 q 431 55 442 70 q 429 58 429 55 q 387 40 417 50 q 355 45 364 45 q 223 1 302 1 q 47 104 119 1 q 34 117 47 109 l 37 122 q 9 246 9 182 l 47 246 q 235 40 71 40 l 260 43 l 260 45 l 250 45 q 253 47 250 47 q 243 62 253 50 l 243 65 q 255 82 255 65 l 258 82 q 262 77 262 81 l 268 80 l 273 80 q 265 70 268 70 q 283 50 270 50 q 307 70 300 50 l 319 67 q 330 87 330 78 l 330 95 l 334 95 q 332 87 332 90 q 334 80 334 83 l 340 80 l 340 87 l 337 92 q 357 102 349 102 q 359 100 357 100 l 362 104 q 355 110 355 104 q 379 132 376 132 l 377 137 q 387 152 387 137 l 364 152 q 342 167 364 167 l 342 170 q 352 182 352 170 l 355 182 q 387 157 355 164 l 394 177 q 389 182 389 177 l 389 186 l 392 186 q 399 184 397 184 l 399 186 q 404 252 404 227 q 385 229 401 252 q 364 244 385 232 q 355 224 355 230 q 374 214 370 214 q 379 219 375 219 l 379 216 q 377 214 379 214 q 382 194 382 199 l 377 197 l 374 197 l 370 194 l 370 197 l 364 194 l 362 194 q 345 209 362 200 l 340 209 q 337 201 340 201 l 332 204 l 322 199 l 322 201 q 330 219 322 210 l 330 222 l 325 222 q 345 241 326 228 q 352 249 345 249 q 349 252 352 252 q 352 259 352 256 l 357 256 q 404 286 359 266 l 404 443 l 399 440 l 397 440 l 397 443 l 414 463 l 414 465 q 370 507 382 503 q 385 530 371 530 l 385 534 l 372 539 l 374 545 q 362 559 368 559 l 362 562 q 370 567 370 562 l 370 572 l 364 572 q 359 567 359 571 l 359 562 q 362 559 359 559 q 359 552 359 555 q 364 539 364 544 q 334 569 344 547 l 334 584 q 345 602 334 597 l 347 597 q 340 589 343 597 l 340 576 q 355 554 340 565 l 357 554 l 357 564 l 352 564 q 364 579 361 579 l 367 579 q 377 569 367 574 l 377 567 q 389 572 385 572 l 389 576 l 382 576 l 385 582 l 389 579 q 399 589 393 579 q 407 604 405 589 q 414 612 410 604 l 404 624 l 404 659 q 377 676 389 659 l 377 699 q 401 669 401 692 l 404 669 l 404 684 q 394 703 404 692 q 404 706 399 706 l 404 716 l 392 716 l 392 728 l 389 733 l 399 741 l 399 721 l 404 721 l 404 745 l 414 758 q 404 770 404 769 l 404 815 l 332 815 l 332 820 l 342 833 q 332 842 338 833 l 332 860 m 446 860 l 449 860 q 479 830 452 860 q 464 815 479 827 l 446 815 l 446 803 q 416 833 443 803 l 446 860 m 461 860 l 521 860 l 521 815 l 474 815 l 489 833 q 461 860 486 833 m 379 763 q 397 751 395 758 l 397 748 q 387 739 397 744 q 379 745 387 742 l 377 745 l 379 728 l 374 726 l 362 741 q 379 763 362 753 m 310 753 l 317 743 l 315 726 q 330 718 330 724 l 330 716 q 310 721 322 721 l 310 741 q 304 745 310 745 l 302 745 l 302 728 q 295 743 295 731 l 295 745 q 310 753 297 753 m 275 728 l 290 728 l 280 718 l 280 713 l 283 713 q 290 716 288 716 q 283 709 290 712 q 273 721 273 711 q 275 728 275 726 m 213 724 l 220 724 q 225 718 225 722 l 238 721 q 273 696 270 704 l 268 694 q 223 716 240 716 l 216 716 q 186 696 201 716 q 180 701 180 696 q 213 724 194 724 m 382 724 l 382 718 q 379 711 379 713 l 377 711 q 374 718 377 713 l 382 724 m 317 713 l 319 713 q 327 711 325 711 q 322 706 327 706 q 317 711 317 706 l 317 713 m 300 709 l 304 706 q 312 709 310 709 l 312 703 q 304 691 304 703 l 302 691 q 300 709 302 699 m 372 709 l 374 709 l 374 706 l 337 688 l 334 694 l 334 696 q 372 709 361 709 m 372 701 l 377 701 l 377 699 l 372 699 l 372 701 m 176 694 l 178 694 q 183 688 183 692 q 173 671 177 671 l 173 676 l 176 694 m 277 691 q 290 666 290 672 q 273 686 281 672 q 277 691 273 691 m 330 691 l 332 686 q 310 661 313 662 l 310 664 q 330 691 314 680 m 205 686 l 210 686 q 238 659 238 681 l 235 646 l 228 651 l 216 642 l 201 644 l 198 644 l 198 642 l 208 631 l 198 624 q 191 644 195 644 l 186 642 l 186 646 l 198 646 q 205 661 205 649 l 210 659 l 218 659 l 218 669 l 205 686 m 300 681 l 302 681 q 304 654 302 663 l 302 654 l 297 656 q 300 681 300 657 m 180 669 q 191 654 180 667 q 180 649 180 654 l 180 646 l 178 646 l 173 664 l 180 669 m 285 659 l 297 649 q 295 642 295 644 q 304 597 295 627 q 275 612 288 612 l 275 606 q 325 562 285 606 l 319 562 l 300 579 q 295 574 300 574 l 260 621 l 265 624 q 285 614 273 624 l 288 614 l 285 631 l 285 659 m 334 659 q 349 649 345 659 q 322 624 322 633 q 319 604 319 621 l 317 604 l 317 619 q 332 646 317 629 l 332 651 q 310 612 310 646 l 307 612 l 300 644 l 307 649 l 307 644 l 310 644 q 334 659 325 659 m 146 654 q 163 636 146 650 l 168 639 l 171 639 q 176 631 171 631 q 183 642 183 631 l 186 642 l 186 629 q 168 612 186 612 l 163 612 q 138 642 142 612 q 146 654 142 654 m 216 629 q 231 612 231 619 l 231 609 l 228 609 q 210 621 228 616 l 210 624 q 216 629 211 629 m 355 621 q 372 606 370 616 l 367 606 q 347 614 367 614 q 355 621 347 618 m 340 619 l 334 612 q 337 604 337 607 q 322 587 334 604 q 319 602 322 589 q 340 619 332 619 m 504 619 q 509 614 509 618 l 509 612 q 498 609 503 612 l 498 614 q 504 619 499 619 m 201 616 l 205 616 q 223 604 205 610 q 225 597 223 602 l 223 597 q 201 616 201 606 m 253 616 l 258 616 l 258 614 l 253 614 l 253 616 m 231 609 l 233 609 l 233 604 l 231 604 l 231 609 m 449 609 l 452 609 l 452 604 l 449 604 l 449 609 m 349 606 l 359 606 l 359 604 q 352 602 357 604 l 349 606 m 379 606 l 385 606 l 385 597 q 379 602 379 597 q 382 604 382 602 q 379 606 379 604 m 372 584 l 377 584 l 377 582 l 372 582 l 372 584 m 446 579 l 407 537 l 449 497 q 471 512 449 500 q 489 539 471 520 q 446 579 455 573 m 374 564 l 374 559 q 379 554 375 554 l 385 554 l 385 557 q 377 564 385 560 l 374 564 m 446 567 q 456 537 446 546 q 446 509 446 518 q 416 539 443 509 l 446 567 m 300 559 l 312 559 q 322 549 316 559 l 319 549 q 304 554 311 554 l 292 552 q 300 559 292 555 m 516 559 l 521 559 l 521 557 l 516 557 l 516 559 m 509 557 l 513 557 l 513 554 l 509 554 l 509 557 m 332 549 l 337 549 l 337 545 q 332 549 332 545 m 531 547 l 536 547 l 536 545 l 531 545 l 531 547 m 340 542 l 342 542 q 347 537 347 541 l 345 537 q 340 542 340 537 m 476 542 l 479 542 l 479 537 l 476 537 l 476 542 m 340 537 l 342 537 l 342 532 l 340 532 l 340 537 m 347 537 l 352 537 l 352 534 l 347 534 l 347 537 m 352 534 l 355 534 l 370 527 l 370 532 l 372 532 l 372 524 q 352 534 358 524 m 337 532 l 340 532 l 340 524 l 337 524 l 337 532 m 511 530 l 524 530 l 524 527 q 511 524 515 527 l 511 530 m 531 530 l 536 530 l 536 527 l 531 527 l 531 530 m 220 522 l 225 522 q 270 512 266 512 q 258 503 269 507 l 233 505 l 228 497 q 235 490 228 494 q 260 492 238 490 q 273 482 271 488 l 273 480 l 270 480 q 218 477 262 480 q 203 485 203 480 l 203 488 l 205 503 q 203 515 203 507 q 220 522 212 522 m 334 519 l 337 519 l 337 509 l 334 509 l 334 519 m 452 519 l 454 519 l 454 512 l 452 512 l 452 519 m 325 512 l 327 512 q 364 497 327 497 q 340 477 349 477 q 334 465 340 471 l 334 458 q 349 448 345 458 q 342 437 342 448 l 342 313 l 340 313 l 340 448 l 334 450 l 334 252 l 327 252 l 327 465 l 312 467 l 312 470 l 327 470 l 327 475 l 312 475 l 312 470 q 307 475 307 470 l 307 477 l 325 480 l 325 512 m 191 505 l 195 505 l 195 503 q 178 490 186 503 l 178 485 q 210 455 178 463 l 231 455 q 275 460 250 455 l 280 460 l 280 458 l 223 450 q 156 473 206 450 q 143 475 152 475 q 101 425 113 475 q 111 398 101 411 l 111 395 q 98 422 102 395 l 98 430 q 151 480 98 474 l 173 473 l 173 495 q 191 505 177 505 m 270 503 l 280 503 l 280 497 l 270 497 l 270 503 m 330 497 l 330 495 q 337 482 332 482 l 342 482 q 349 488 342 488 l 349 490 q 345 495 349 495 l 342 495 l 342 490 l 340 490 q 330 497 340 497 m 377 497 l 377 492 l 372 492 q 377 497 373 497 m 292 492 l 302 492 l 300 480 l 300 473 q 310 460 310 461 l 307 460 q 285 482 285 463 l 285 485 q 292 492 285 488 m 392 477 q 387 465 387 469 l 389 465 l 399 473 l 407 463 l 389 448 l 382 448 l 385 452 l 385 455 q 372 460 385 460 l 372 463 l 382 463 l 382 473 l 377 473 q 364 465 364 473 l 357 465 l 357 470 q 392 480 378 480 l 392 477 m 506 480 l 509 475 l 509 470 q 501 477 505 470 l 506 480 m 367 465 l 372 465 l 372 463 l 367 463 l 367 465 m 349 463 l 355 463 q 362 452 355 458 l 357 450 l 349 460 l 349 463 m 370 452 l 374 452 q 372 437 372 449 l 370 437 l 370 452 m 349 448 q 359 437 353 448 l 359 410 q 355 406 359 406 q 349 410 349 406 l 349 448 m 370 428 l 372 428 l 372 376 l 370 376 l 370 428 m 401 422 l 401 418 l 397 418 q 401 422 397 422 m 446 420 l 446 361 q 416 391 443 361 q 446 420 416 394 m 379 410 l 385 410 l 385 408 l 379 408 l 379 410 m 161 406 q 165 393 165 397 q 153 380 162 393 l 153 378 l 176 380 q 183 361 183 368 q 168 355 179 361 q 158 368 158 358 l 151 368 l 153 351 l 149 348 l 134 348 l 131 366 q 149 380 149 376 q 141 400 141 393 l 141 403 q 161 406 152 406 m 116 391 l 119 391 q 123 385 123 390 l 121 385 q 116 391 116 385 m 123 385 l 131 385 l 131 383 l 123 383 l 123 385 m 131 383 l 136 383 l 136 380 l 131 380 l 131 383 m 635 340 l 640 340 l 640 338 l 635 338 l 635 340 m 635 338 q 583 311 635 329 l 583 318 q 635 338 583 321 m 563 318 l 576 318 l 576 309 l 546 301 q 563 318 546 304 m 538 313 l 538 311 l 543 313 l 548 313 q 519 296 538 296 l 513 296 q 504 306 509 296 l 509 309 l 511 309 q 531 301 519 309 q 538 313 532 313 m 74 286 l 76 286 l 76 281 l 74 281 l 74 286 m 106 286 l 109 286 l 109 281 l 106 281 l 106 286 m 76 279 l 79 279 l 79 273 l 76 273 l 76 279 m 104 279 l 106 279 l 106 273 l 104 273 l 104 279 m 471 264 l 474 259 q 467 246 467 259 q 476 239 476 243 q 464 227 465 227 l 456 231 l 454 231 q 449 227 449 231 q 452 224 452 227 l 446 224 l 446 214 q 454 209 446 209 l 454 204 q 449 189 449 199 l 444 192 q 441 172 444 185 l 441 170 l 444 170 l 444 177 l 446 177 l 452 174 l 452 177 q 449 179 449 177 q 484 194 458 179 q 486 192 484 192 l 486 194 q 484 197 484 194 q 516 244 516 210 q 486 259 509 252 q 479 267 486 260 q 471 264 474 264 m 86 256 l 89 256 l 89 252 l 86 252 l 86 256 m 94 256 l 96 256 l 96 252 l 94 252 l 94 256 m 141 241 l 149 241 l 149 239 l 141 239 l 141 241 m 143 229 l 153 229 l 153 227 l 143 227 l 143 229 m 382 229 l 385 229 l 385 224 l 382 224 l 382 229 m 146 214 l 153 214 l 153 212 l 146 212 l 146 214 m 141 201 l 146 201 l 146 199 l 141 199 l 141 201 m 330 197 l 332 197 q 347 179 332 190 q 342 172 342 179 q 340 174 340 172 l 334 172 l 325 172 q 319 184 325 184 q 330 197 325 195 m 131 194 q 136 189 136 193 l 131 189 l 131 194 m 357 192 l 359 192 l 359 186 l 357 186 l 357 192 m 355 186 l 357 186 l 357 182 l 355 182 l 355 186 m 123 182 l 126 182 l 126 177 l 123 177 l 123 182 m 83 174 l 86 174 l 86 170 l 83 170 l 83 174 m 96 174 l 98 174 l 98 170 l 96 170 l 96 174 m 111 174 l 113 174 l 113 170 l 111 170 l 111 174 m -63 172 l -60 167 l -60 164 l -63 164 q -68 170 -68 164 l -63 172 m 81 167 l 83 167 l 83 162 l 81 162 l 81 167 m 332 167 l 340 167 l 340 164 l 332 164 l 332 167 m 295 159 l 300 157 q 310 159 304 159 l 312 155 l 312 144 l 310 140 q 312 137 312 140 l 295 134 l 292 134 q 288 147 292 139 q 290 149 290 147 q 288 152 288 149 q 295 159 295 152 m 315 157 l 319 157 q 330 140 330 157 q 315 119 315 134 q 322 112 315 112 q 302 102 322 106 l 290 102 q 283 112 286 102 l 300 112 l 300 117 q 297 119 300 119 q 315 132 297 128 q 319 144 315 136 l 315 157 m 283 155 l 283 142 q 295 132 288 132 l 295 130 l 285 130 q 265 147 275 147 l 265 149 l 283 155 m -23 137 l -20 132 l -20 127 q -26 122 -20 122 q -38 127 -34 127 l -38 130 q -23 137 -33 130 m 248 137 q 265 115 248 115 l 265 112 q 248 95 248 112 q 238 102 238 100 q 243 110 240 110 l 235 125 q 248 137 241 136 m 295 130 l 300 130 l 300 127 l 295 127 l 295 130 m 233 122 q 235 119 233 119 q 220 100 233 100 l 220 102 q 233 122 227 122 m 218 95 l 223 95 l 223 92 l 218 92 l 218 95 m 233 95 q 248 87 248 93 l 248 77 q 231 67 243 67 l 223 77 l 223 82 q 233 95 229 95 m 280 87 l 285 87 l 285 85 l 280 85 l 280 87 m 288 87 l 290 87 q 295 82 295 87 l 292 82 q 288 87 288 82 m 394 82 q 374 58 394 77 q 377 60 377 58 l 389 58 q 409 65 408 58 l 409 70 q 399 82 399 70 l 394 82 m 292 80 q 300 62 300 69 q 285 52 289 52 l 273 60 q 292 80 275 80 m 531 75 q 538 73 536 73 l 538 70 l 531 70 l 531 75 m 541 70 l 548 70 l 548 67 l 541 67 l 541 70 m 225 65 l 231 65 l 231 62 l 225 62 l 225 65 m 481 65 l 484 65 l 484 60 l 481 60 l 481 65 m 437 58 l 449 58 l 449 52 l 437 55 l 437 58 m 452 55 l 469 55 l 469 52 l 452 52 l 452 55 z "},"K":{"ha":485,"x_min":-132,"x_max":585,"o":"m 291 892 l 296 892 q 309 866 309 886 l 309 859 q 294 840 294 843 l 291 840 q 288 850 291 846 q 294 876 294 872 l 291 876 q 286 869 286 876 q 275 886 281 869 q 291 892 284 892 m 366 884 l 371 884 q 381 873 374 884 q 374 861 378 861 q 371 869 374 869 l 374 873 l 374 876 l 371 876 q 363 866 367 876 l 366 850 l 358 850 q 345 843 345 850 l 342 843 l 342 850 q 358 856 351 856 l 358 861 q 355 871 358 867 q 366 884 361 883 m 271 876 l 273 876 q 281 845 273 873 q 227 863 227 845 l 245 866 q 268 850 250 866 l 271 850 l 271 876 m 392 861 q 402 853 402 857 l 402 845 q 392 838 402 842 l 376 840 q 384 848 376 842 q 397 843 393 843 l 397 845 q 384 856 391 856 l 384 859 q 392 861 392 859 m -1 859 l 5 859 q -1 853 5 853 l -1 859 m 15 859 l 46 859 l 46 840 q -1 793 23 809 l -1 843 q 15 859 -1 844 m 219 859 l 221 859 q 227 835 227 837 q 219 850 219 838 l 219 859 m 420 859 l 474 859 l 472 853 q 508 804 508 838 l 505 804 q 508 802 505 802 l 503 776 l 500 776 q 495 783 500 783 l 490 781 l 490 783 q 500 804 500 794 l 500 806 q 464 845 488 845 q 389 763 389 774 q 387 739 389 749 l 389 739 q 410 750 400 750 l 415 750 q 422 742 418 750 q 405 734 416 742 l 402 734 l 402 739 q 368 722 390 739 l 368 724 q 379 758 376 743 q 368 742 368 753 l 363 745 q 351 711 354 734 l 348 711 q 342 722 348 722 q 338 716 342 716 q 340 709 340 711 q 307 665 340 677 q 312 680 312 673 l 312 683 l 307 683 l 296 670 l 299 665 l 299 662 q 278 713 294 662 l 281 719 q 278 722 278 719 q 286 729 286 722 l 286 732 l 288 732 l 294 729 q 330 770 294 732 l 330 773 l 322 773 q 351 789 322 785 l 355 796 q 301 832 347 817 l 294 840 q 358 802 358 823 l 361 802 q 371 812 365 802 l 371 819 q 345 838 371 838 q 353 843 345 843 q 374 835 356 843 l 374 814 l 420 859 m 234 843 l 237 843 q 275 835 264 835 l 275 832 q 262 802 262 818 l 262 796 l 268 796 q 283 825 268 810 l 286 825 l 286 796 q 260 786 286 789 l 252 786 l 247 802 q 255 822 247 810 l 255 830 l 237 830 l 234 843 m 46 827 l 46 675 q 2 639 2 646 l -1 639 l -1 781 l 46 827 m 467 814 l 472 814 q 459 796 472 812 l 459 791 q 464 786 460 786 l 467 786 l 472 789 l 479 773 l 467 770 l 448 770 q 438 786 444 770 q 467 814 446 814 m 294 812 l 296 812 l 296 806 l 294 806 l 294 812 m 534 781 l 536 781 q 541 776 541 780 l 541 763 q 513 737 541 742 q 495 755 495 737 l 495 766 l 503 760 l 505 760 q 528 773 528 768 q 534 781 528 781 m 479 773 l 495 773 l 495 768 l 490 770 q 477 734 486 770 q 454 724 460 724 q 474 742 454 729 l 474 750 l 469 750 q 448 729 448 740 l 446 729 l 446 737 q 482 766 454 757 l 482 768 l 479 773 m 157 745 l 162 745 q 167 739 167 744 l 167 737 l 162 739 l 157 737 l 157 745 m 216 737 l 219 737 q 229 726 220 726 q 247 734 236 726 q 260 722 247 722 q 288 662 269 717 l 286 657 q 296 616 292 652 q 288 613 294 616 q 265 693 288 640 l 262 693 q 239 623 254 693 l 239 587 l 242 582 q 229 572 239 582 l 227 572 q 219 590 222 572 q 203 629 203 590 q 201 639 201 629 q 216 673 212 639 q 229 683 229 676 l 232 683 l 232 675 l 237 675 q 252 690 241 675 q 234 699 241 699 l 237 703 q 216 734 229 703 l 216 737 m 402 734 l 402 732 q 361 688 387 703 l 361 686 q 381 677 381 686 q 335 667 356 677 l 355 686 l 355 688 l 351 688 q 402 734 389 734 m 208 732 q 214 726 214 731 l 208 726 l 208 732 m 262 729 l 268 729 l 268 726 l 262 726 l 262 729 m -65 726 q -34 711 -58 711 l -45 696 l -45 693 l -42 675 l -55 677 l -58 677 q -78 670 -65 677 q -94 703 -78 695 q -68 726 -74 703 l -65 726 m 193 719 q 195 716 195 719 l 201 719 l 208 719 q 191 667 201 692 q 188 659 191 665 q 206 580 195 614 l 206 574 q 172 657 185 591 l 172 680 q 193 719 172 702 m 219 719 q 232 701 224 701 l 232 699 q 211 696 214 699 l 211 699 q 219 719 214 719 m 317 693 l 319 693 q 317 680 317 690 q 335 706 335 689 l 335 711 q 317 693 331 711 m 157 696 l 165 696 l 165 690 q 157 693 159 693 l 157 696 m 149 683 l 154 683 l 154 680 l 149 680 l 149 683 m 159 680 l 165 680 l 165 677 l 159 677 l 159 680 m 260 675 l 265 675 q 281 616 281 629 q 273 608 277 616 l 273 606 l 281 606 l 278 600 l 273 603 l 268 603 l 268 600 l 275 590 q 268 580 272 580 l 265 580 q 258 587 262 580 l 262 587 l 262 590 q 250 595 262 595 l 250 593 l 247 593 l 247 618 q 260 675 247 633 m 121 673 l 139 673 l 139 670 l 121 670 l 121 673 m 139 670 l 146 670 l 162 667 q 165 670 162 670 q 167 636 165 653 l 152 633 l 162 644 q 159 646 162 646 l 162 652 l 159 657 q 162 659 162 657 q 139 667 148 667 l 139 670 m 327 667 l 335 667 q 332 659 332 663 q 327 665 327 659 l 327 667 m 46 665 l 46 484 l 48 484 q 152 587 149 587 l 180 551 q 59 425 59 431 q 77 407 59 421 l 79 407 l 82 420 l 82 427 q 79 430 82 430 q 82 437 82 435 l 85 437 q 87 433 85 433 l 85 427 l 85 399 q 95 383 95 389 l 98 383 q 102 448 98 404 l 105 448 q 108 401 105 416 q 102 386 102 393 l 102 378 q 353 123 317 156 q 376 138 353 130 q 412 117 392 138 l 407 117 q 415 104 410 104 l 415 113 l 418 113 q 420 104 418 110 q 418 97 418 100 q 425 100 422 100 l 425 115 l 428 115 l 428 104 l 431 104 l 438 110 l 441 110 q 474 63 451 63 q 487 53 487 56 q 456 24 487 52 l 456 14 l 474 -6 l 451 -6 l 451 -14 q 412 -4 445 -7 q 399 7 407 7 q 374 4 396 7 l 381 33 q 368 43 380 33 l 368 -4 l 366 -4 l 366 48 l 358 53 l 358 50 q 361 48 358 48 l 358 43 l 358 22 l 351 22 q 335 35 351 35 l 335 33 q 338 4 338 15 l 338 -4 l 335 -17 l 340 -19 l 340 -12 l 342 -12 q 348 -24 342 -16 q 345 -35 345 -29 l 340 -32 l 335 -32 l 338 -37 q 335 -45 338 -45 l 338 -58 l 338 -104 l 335 -104 q 330 -99 330 -104 l 330 -6 l 332 7 l 322 7 l 322 14 l 327 14 l 332 12 l 332 20 l 325 20 l 325 24 q 332 30 325 30 q 327 48 332 48 l 330 53 l 330 81 q 322 89 330 85 q 301 58 301 72 q 304 56 304 58 q 296 45 296 56 l 291 48 l 288 48 q 227 12 252 12 q 216 14 222 14 l 216 17 q 283 58 262 17 l 283 61 l 281 66 q 319 94 301 66 q 113 300 315 96 l 105 300 l 108 306 q 102 311 108 311 l 98 309 l 98 311 l 100 316 l 85 329 l 85 324 l 87 311 q 72 327 83 311 l 72 329 l 79 329 q 48 366 74 345 l 46 366 l 46 288 l 48 288 l 48 293 l 51 293 l 51 286 q 46 280 46 284 l 46 262 q 54 231 46 240 q 51 221 51 227 l 48 221 l 48 229 l 46 229 l 46 221 l 48 221 l 46 216 l 46 143 l 54 149 q 61 141 57 149 l 61 133 q 69 120 67 133 l 72 120 q 77 125 77 120 q 87 115 85 123 l 77 107 q 69 115 77 111 l 61 110 l 54 110 l 46 115 l 46 97 l 54 102 l 61 102 q 69 94 65 102 q 54 79 69 79 l 46 84 l 46 -6 l -1 -6 l -1 76 l -3 92 q -1 104 -1 96 l -1 130 q -3 141 -1 136 q -1 151 -1 145 l -1 182 q -3 190 -1 190 l -1 203 l -1 334 q -3 347 -1 343 l -1 363 l -1 446 q -3 448 -1 448 l -1 453 l -1 484 l -6 481 q -11 487 -11 481 q -1 489 -9 487 l -1 569 q -8 574 -1 574 l -8 577 l -1 577 l -1 582 q -3 585 -1 585 l -1 590 q -3 593 -1 593 q 31 652 7 652 q 46 665 31 656 m 322 662 l 327 662 l 327 659 l 322 659 l 322 662 m 317 659 l 322 659 l 322 657 l 317 657 l 317 659 m 317 657 q 304 649 317 651 l 301 649 l 301 652 l 317 657 m 332 657 l 335 657 l 335 652 l 332 652 l 332 657 m 136 654 l 149 654 l 149 652 l 136 652 l 136 654 m 152 654 l 157 654 q 152 649 157 649 l 152 654 m 299 649 l 301 649 l 301 644 l 299 644 l 299 649 m 335 649 l 338 649 l 338 626 l 340 626 q 345 633 345 626 l 348 633 l 348 603 q 368 600 362 600 q 366 593 366 595 l 361 593 l 361 597 l 348 597 l 348 593 l 361 593 l 361 590 q 348 585 348 590 l 348 378 l 345 366 l 340 366 q 338 373 340 368 q 340 530 340 478 l 340 572 l 335 572 l 332 562 l 332 433 l 330 433 l 330 562 q 327 569 327 566 l 322 569 l 322 551 q 325 541 322 545 q 317 526 321 526 q 312 530 312 526 l 312 574 l 304 574 l 304 577 q 317 587 317 577 l 327 580 l 330 580 l 330 582 l 322 595 l 335 595 l 335 603 l 327 603 l 322 600 q 307 608 322 608 l 307 610 l 312 610 l 312 616 l 304 616 l 304 621 l 307 621 q 335 626 335 623 l 335 649 m 456 646 q 477 636 467 646 q 474 629 474 631 q 477 608 477 610 q 464 600 469 600 q 402 603 404 603 q 420 616 406 616 q 446 613 433 613 l 448 618 l 448 626 q 441 629 446 626 l 418 626 q 407 633 407 630 l 407 636 l 456 646 m 134 642 l 139 642 l 139 639 l 134 639 l 134 642 m 485 629 l 492 629 q 508 616 503 625 l 508 603 q 500 587 500 593 l 495 590 q 503 610 503 603 q 485 626 496 626 l 485 629 m 170 626 l 172 626 l 172 621 l 170 621 l 170 626 m 397 626 l 402 626 q 407 621 407 625 l 397 621 l 397 626 m 332 610 l 330 610 l 330 618 q 325 613 325 617 l 325 608 l 330 610 l 330 606 l 340 606 q 345 621 340 610 l 342 621 q 332 610 332 618 m -11 618 l -6 618 l -6 613 q -11 618 -11 613 m 374 616 l 381 616 q 389 608 385 616 l 389 603 q 368 582 389 582 l 363 582 l 363 585 q 374 600 374 585 l 374 616 m -21 613 l -8 610 l -8 606 q -29 608 -22 608 l -29 610 q -21 613 -26 610 m 175 613 q 195 566 195 572 l 185 559 q 157 593 181 559 q 175 613 159 613 m 294 608 l 296 608 l 296 603 l 294 603 l 294 608 m 291 603 l 294 597 q 288 587 288 591 l 288 580 q 268 562 282 562 l 265 566 q 288 603 283 581 l 291 603 m 538 603 q 585 551 574 603 l 585 541 l 580 523 l 578 523 l 578 526 q 583 546 578 530 q 534 597 572 597 q 511 590 529 597 l 511 597 q 538 603 532 603 m -19 600 l -11 600 l -11 595 l -14 595 q -19 600 -19 595 m 322 600 l 322 595 l 317 595 q 322 600 317 600 m 301 597 q 314 593 310 593 l 314 587 l 307 587 q 301 593 307 593 l 301 597 m 335 590 l 335 580 l 340 580 l 340 590 l 335 590 m 301 587 l 307 587 l 307 585 l 301 585 l 301 587 m 394 585 q 407 582 399 582 l 407 580 l 394 580 l 394 585 m -75 582 q -65 580 -71 580 q -71 569 -71 573 q -68 562 -68 564 l -81 562 l -85 559 q -91 572 -85 566 l -75 582 m 407 580 l 410 580 q 479 577 425 577 l 479 574 q 456 572 466 574 l 407 577 l 407 580 m 299 574 l 304 574 q 299 569 304 569 l 299 574 m 299 559 l 301 559 l 301 494 l 299 494 l 299 559 m 268 543 q 273 538 273 543 l 268 538 l 268 543 m 288 533 l 291 533 l 291 528 l 288 528 l 288 533 m 521 528 q 541 523 537 523 l 541 520 q 534 494 534 497 q 552 484 552 488 l 552 479 q 547 473 552 473 q 524 494 530 494 l 526 500 l 526 502 q 515 520 515 511 q 521 528 521 520 m 578 523 l 578 520 q 565 507 578 517 l 562 507 q 578 523 562 511 m -117 515 q -88 505 -104 505 l -94 492 l -88 476 q -117 469 -111 476 q -132 494 -117 479 q -117 515 -117 494 m 557 507 l 562 507 l 562 505 l 557 505 l 557 507 m 552 505 l 557 505 l 557 502 l 552 502 l 552 505 m 508 502 l 511 502 q 521 484 511 497 l 521 481 q 515 476 521 476 q 495 481 505 476 q 508 502 504 502 m 544 502 l 549 502 l 549 500 l 544 500 l 544 502 m -68 497 q -55 484 -64 497 l -60 481 q -68 494 -60 486 l -68 497 m -55 479 l -52 479 l -52 473 l -55 473 l -55 479 m -47 466 q -39 458 -45 466 l -19 458 l -19 456 q -37 453 -37 456 l -37 450 q -47 453 -41 453 l -45 458 q -47 466 -47 463 m 113 458 l 115 458 l 115 427 l 113 427 l 113 458 m -55 456 l -52 456 l -52 450 l -55 450 l -55 456 m -16 456 l -8 456 l -8 453 l -16 453 l -16 456 m -8 453 l -3 453 l -3 450 l -8 450 l -8 453 m 85 448 l 87 448 l 87 443 l 85 443 l 85 448 m -37 443 l -29 437 q -26 440 -29 440 q -24 435 -26 435 q -34 425 -26 427 q -45 435 -42 427 q -37 443 -37 435 m -14 430 l -11 430 l -11 425 l -14 425 l -14 430 m -21 427 l -19 427 l -19 422 l -21 422 l -21 427 m 111 427 l 113 427 l 113 420 l 111 420 l 111 427 m -19 422 l -16 422 l -16 417 l -19 417 l -19 422 m -16 417 l -14 417 l -14 412 l -16 412 l -16 417 m -6 414 l -3 389 l -3 386 l -6 386 q -11 412 -11 405 l -6 414 m -21 407 l -19 407 l -19 401 l -21 401 l -21 407 m -19 399 l -16 399 l -16 394 l -19 394 l -19 399 m -16 391 l -14 391 l -14 386 l -16 386 l -16 391 m -14 386 l -11 386 l -11 378 l -14 378 l -14 386 m -11 378 l -8 378 l -8 370 l -11 370 l -11 378 m -32 376 l -26 376 l -26 370 l -24 370 l -19 373 l -16 360 l -19 360 l -16 355 l -16 350 l -29 353 q -34 347 -29 347 q -42 360 -35 360 l -42 366 q -32 376 -32 366 m -8 370 l -6 370 l -6 363 l -8 363 l -8 370 m -6 363 l -3 363 l -3 353 l -6 353 l -6 363 m 56 314 l 59 314 l 59 309 l 56 309 l 56 314 m 64 306 l 74 306 q 79 300 79 305 l 77 300 l 64 303 l 64 306 m 74 298 q 79 293 79 297 l 79 290 l 74 290 l 74 298 m 113 298 l 113 290 l 111 290 q 105 296 105 290 q 113 298 108 296 m 59 275 q 64 270 64 274 l 56 264 l 54 270 q 59 275 54 275 m 123 275 l 131 275 l 131 270 q 126 264 131 264 l 123 270 l 123 275 m 141 264 l 146 264 l 146 262 l 141 262 l 141 264 m -88 257 l -81 247 l -91 239 l -99 249 l -88 257 m 85 254 l 92 254 q 100 244 96 254 l 98 244 l 100 239 q 85 231 98 231 q 77 239 81 231 l 77 247 q 85 254 77 250 m 128 252 l 131 247 l 131 239 l 123 239 l 123 247 q 128 252 124 252 m 144 252 l 149 252 l 149 249 l 144 249 l 144 252 m 59 249 l 64 247 q 61 239 61 241 l 59 239 q 54 244 54 239 q 59 249 54 249 m 149 249 l 154 249 q 159 244 159 248 l 159 231 l 157 231 q 149 249 157 236 m -62 234 q -55 221 -62 229 l -65 213 l -73 223 q -62 234 -73 227 m 136 231 l 141 231 l 141 229 l 136 229 l 136 231 m 134 229 l 136 229 l 136 223 l 134 223 l 134 229 m 154 229 l 157 229 l 157 223 l 154 223 l 154 229 m -19 226 l -11 216 l -21 208 q -29 216 -25 208 q -19 226 -29 220 m 74 226 q 87 218 81 218 l 87 216 l 72 210 l 69 210 l 69 213 q 74 226 74 213 m 111 226 l 115 210 l 105 210 q 102 216 105 216 q 111 226 106 226 m 61 210 l 69 210 l 69 208 l 61 208 l 61 210 m 115 210 l 126 210 l 126 208 l 115 208 l 115 210 m 98 208 l 100 208 l 100 203 l 98 203 l 98 208 m 126 208 l 128 208 l 128 200 l 126 200 l 126 208 m 56 205 q 61 200 61 204 l 61 197 q 56 203 56 197 l 56 205 m 87 205 q 95 197 87 201 l 100 197 l 100 203 q 113 190 104 203 l 113 187 l 108 187 l 108 182 q 113 177 109 177 l 126 184 l 128 184 q 134 180 134 184 q 123 161 127 180 q 113 174 113 161 l 102 174 l 102 169 l 100 169 l 100 187 q 85 172 85 178 l 79 174 l 77 174 l 77 161 q 69 154 77 158 l 64 154 q 56 161 60 154 l 56 172 q 66 180 56 176 q 77 177 71 177 l 77 184 l 72 184 q 87 205 72 200 m -45 200 q -37 193 -41 200 q -47 182 -37 189 l -55 193 l -45 200 m -19 177 q -11 164 -19 172 l -21 156 l -29 167 q -19 177 -29 171 m 85 172 l 87 172 l 87 167 l 85 167 l 85 172 m 371 161 l 379 161 l 379 159 l 371 159 l 371 161 m 374 154 l 389 154 l 389 151 l 374 151 l 374 154 m -45 151 l -37 141 q -47 130 -37 137 l -55 141 q -45 151 -55 144 m 366 151 l 371 151 l 371 149 l 366 149 l 366 151 m 394 151 l 399 151 l 399 149 l 394 149 l 394 151 m 118 149 l 126 149 q 134 133 134 146 l 123 125 l 118 125 q 111 133 115 125 l 111 141 q 118 149 111 144 m 399 149 l 402 149 q 412 141 412 144 l 402 141 q 399 149 402 144 m 46 138 l 46 128 q 51 133 51 128 q 46 138 51 138 m 474 141 l 477 136 l 472 133 l 469 138 l 474 141 m 433 138 q 441 136 438 136 q 438 128 438 131 q 428 136 428 132 q 433 138 433 136 m 397 136 l 402 136 l 402 133 l 397 133 l 397 136 m 420 130 l 422 130 l 422 125 l 420 125 l 420 130 m -71 125 l -62 115 q -71 107 -62 111 q -81 117 -75 107 l -71 125 m -19 125 l -11 115 l -21 107 q -29 115 -25 107 q -19 125 -29 119 m 115 123 q 128 104 128 119 q 115 97 120 97 q 108 100 111 100 l 108 97 l 113 89 l 102 81 l 100 81 q 95 92 100 85 q 105 100 95 98 l 105 115 q 115 123 105 119 m 469 115 l 474 113 l 479 115 q 485 102 479 109 q 472 97 478 102 q 464 102 472 102 q 469 115 469 109 m 123 87 l 128 87 q 136 61 131 67 l 126 53 l 108 74 q 123 87 109 87 m 518 81 q 521 71 518 75 q 513 63 513 71 q 500 68 507 68 q 518 81 503 81 m 77 76 q 87 66 81 76 q 77 56 87 62 l 69 66 q 77 76 77 66 m 342 66 l 342 61 l 348 61 l 348 66 l 342 66 m 275 61 l 281 61 l 281 58 l 275 58 l 275 61 m 102 48 l 111 37 q 100 27 111 33 l 92 37 q 102 48 92 41 m 317 37 l 319 37 l 319 33 l 317 33 l 317 37 m 505 37 l 511 37 l 511 35 l 505 35 l 505 37 m 314 30 l 317 30 l 317 22 q 312 4 312 5 l 307 4 q 314 30 314 26 m 340 30 l 342 30 l 342 24 l 340 24 l 340 30 m 490 20 l 490 9 q 482 17 486 9 q 490 20 485 17 m 299 17 l 301 17 l 301 12 l 299 12 l 299 17 m 299 12 l 299 9 q 296 1 296 4 l 291 1 q 299 12 295 12 m 288 -1 l 294 -4 q 281 -22 287 -20 l 281 -19 q 288 -1 288 -3 m 273 -4 l 275 -4 l 275 -9 l 273 -9 l 273 -4 m 268 -14 l 268 -17 q 229 -50 243 -50 l 229 -47 q 268 -14 245 -31 m 239 -19 l 245 -19 l 245 -22 l 239 -22 l 239 -19 m 381 -19 l 387 -19 l 387 -24 l 381 -24 l 381 -19 m 232 -27 l 234 -27 q 229 -32 234 -32 l 227 -32 q 232 -27 227 -27 m 441 -27 l 444 -27 l 444 -32 l 441 -32 l 441 -27 m 227 -32 q 134 -68 176 -68 q 128 -63 128 -68 q 227 -32 161 -63 m 405 -40 l 407 -40 q 412 -45 412 -41 l 407 -47 l 405 -47 l 405 -40 m 340 -45 l 342 -45 l 342 -53 l 340 -53 l 340 -45 z "}}}
